<svg width="38" height="38" viewBox="0 0 38 38" fill="none" xmlns="http://www.w3.org/2000/svg">
<rect y="-0.000244141" width="38" height="38" rx="6" fill="white"/>
<path d="M35.5722 30.1011C35.5726 27.5884 33.8108 25.4204 31.4446 24.829L31.4546 10.6394L28.3834 10.6392L28.3733 24.8781C26.0572 25.5678 24.3954 27.637 24.395 30.1005C24.3946 33.1059 26.9116 35.5695 29.9828 35.5697C33.054 35.5699 35.5717 33.1065 35.5722 30.1011ZM26.8117 30.1006C26.812 28.4255 28.2219 27.046 29.9338 27.0461C31.6456 27.0462 33.0551 28.4258 33.0548 30.101C33.0546 31.7761 31.6446 33.1556 29.9328 33.1555C28.221 33.1554 26.8115 31.7758 26.8117 30.1006Z" fill="#01777E"/>
<path d="M29.9694 24.6618C27.3937 24.6618 25.1711 26.3813 24.5644 28.6902L6.02604 28.6908L6.0253 31.6874L24.6142 31.6867C25.3207 33.9464 27.4415 35.5675 29.9667 35.5674C33.0475 35.5673 35.5734 33.111 35.5741 30.1144C35.5749 27.1178 33.0502 24.6616 29.9694 24.6618ZM29.9673 33.2094C28.2502 33.2095 26.8364 31.834 26.8368 30.1638C26.8372 28.4936 28.2517 27.118 29.9688 27.118C31.686 27.1179 33.0998 28.4934 33.0994 30.1636C33.099 31.8338 31.6845 33.2094 29.9673 33.2094Z" fill="#00A8B3"/>
<path d="M2.39176 7.90014C2.39679 10.4129 4.16391 12.5775 6.53226 13.1642L6.56063 27.3542L9.63292 27.3484L9.60446 13.1091C11.9199 12.4149 13.5778 10.3424 13.5729 7.87887C13.5669 4.87336 11.0437 2.41464 7.97139 2.42048C4.8991 2.42632 2.38576 4.89463 2.39176 7.90014ZM11.1553 7.88347C11.1587 9.55867 9.75122 10.9409 8.0388 10.9442C6.32637 10.9474 4.91338 9.57055 4.91003 7.89535C4.90669 6.22015 6.31416 4.8379 8.02658 4.83464C9.73901 4.83138 11.152 6.20827 11.1553 7.88347Z" fill="#01777E"/>
<path d="M8.00884 13.3183C10.5847 13.3144 12.8027 11.5915 13.403 9.28135L31.9425 9.24582L31.9349 6.24877L13.3449 6.28438C12.6321 4.02538 10.5067 2.40723 7.98132 2.41103C4.90036 2.41568 2.38118 4.87608 2.38874 7.87312C2.3963 10.8702 4.92787 13.323 8.00884 13.3183ZM7.98727 4.76936C9.70454 4.76677 11.1222 6.14034 11.1264 7.81082C11.1306 9.48131 9.71991 10.8591 8.00264 10.8617C6.28538 10.8643 4.86771 9.49075 4.86349 7.82026C4.85928 6.14978 6.27001 4.77195 7.98727 4.76936Z" fill="#00A8B3"/>
</svg>
