<svg width="380" height="369" viewBox="0 0 380 369" fill="none" xmlns="http://www.w3.org/2000/svg">
<rect width="280.558" height="267" transform="translate(38.1465 72.5945)" fill="#F4F4F4"/>
<g clip-path="url(#clip0)">
<rect width="59.3519" height="68.6728" rx="5.51237" transform="matrix(-1 0 0 1 107.342 88.5898)" fill="white"/>
<path fill-rule="evenodd" clip-rule="evenodd" d="M77.6663 128.437C70.1739 128.437 64.1001 122.364 64.1001 114.872C64.1001 107.38 70.1739 101.307 77.6663 101.307C85.1586 101.307 91.2324 107.38 91.2324 114.872C91.2324 122.364 85.1586 128.437 77.6663 128.437Z" fill="#DDE3E9"/>
<rect width="42.3942" height="5.08687" rx="2.41166" transform="matrix(-1 0 0 1 98.8633 131.828)" fill="#DDE3E9"/>
<rect width="28.8281" height="5.08688" rx="2.41166" transform="matrix(-1 0 0 1 92.0801 140.306)" fill="#DDE3E9"/>
<g clip-path="url(#clip1)">
<rect width="59.3519" height="164.476" rx="5.51237" transform="matrix(-1 0 0 1 107.342 164.045)" fill="white"/>
<g clip-path="url(#clip2)">
<rect width="34.4276" height="17.9152" rx="2.75618" transform="matrix(-1 0 0 1 94.9385 176.448)" fill="#DDE3E9"/>
<rect width="34.4276" height="17.2261" rx="2.75618" transform="matrix(-1 0 0 1 94.9385 199.875)" fill="#AFB9C5"/>
<rect width="34.4276" height="17.2261" rx="2.75618" transform="matrix(-1 0 0 1 94.9385 222.614)" fill="#DDE3E9"/>
<rect width="34.4276" height="17.2262" rx="2.75618" transform="matrix(-1 0 0 1 94.9385 268.091)" fill="#DDE3E9"/>
<rect width="34.4276" height="17.2262" rx="2.75618" transform="matrix(-1 0 0 1 94.9385 245.353)" fill="#C5CFD6"/>
</g>
</g>
<g clip-path="url(#clip3)">
<g clip-path="url(#clip4)">
<rect width="203.035" height="32.3852" rx="2.75618" transform="matrix(-1 0 0 1 304.771 89.2788)" fill="white"/>
<g clip-path="url(#clip5)">
<rect width="163.071" height="4.85777" rx="2.06714" transform="matrix(-1 0 0 1 298.57 98.9944)" fill="#DDE3E9"/>
<rect width="109.458" height="4.85777" rx="2.06714" transform="matrix(-1 0 0 1 298.57 107.091)" fill="#DDE3E9"/>
</g>
<path fill-rule="evenodd" clip-rule="evenodd" d="M142.305 110.295C139.641 110.295 137.481 108.135 137.481 105.472C137.481 102.808 139.641 100.648 142.305 100.648C144.968 100.648 147.128 102.808 147.128 105.472C147.128 108.135 144.968 110.295 142.305 110.295Z" fill="#DDE3E9"/>
<path fill-rule="evenodd" clip-rule="evenodd" d="M142.305 107.539C141.163 107.539 140.238 106.613 140.238 105.471C140.238 104.33 141.163 103.404 142.305 103.404C143.447 103.404 144.372 104.33 144.372 105.471C144.372 106.613 143.447 107.539 142.305 107.539Z" fill="#F2F2F2"/>
</g>
<g clip-path="url(#clip6)">
<rect width="203.035" height="26.8728" rx="2.75618" transform="matrix(-1 0 0 1 304.771 127.177)" fill="white"/>
<g clip-path="url(#clip7)">
<rect width="163.071" height="4.03092" rx="2.01546" transform="matrix(-1 0 0 1 298.57 135.238)" fill="#DDE3E9"/>
<rect width="109.458" height="4.03092" rx="2.01546" transform="matrix(-1 0 0 1 298.57 141.956)" fill="#DDE3E9"/>
</g>
<path fill-rule="evenodd" clip-rule="evenodd" d="M142.305 145.436C139.641 145.436 137.481 143.277 137.481 140.613C137.481 137.949 139.641 135.79 142.305 135.79C144.968 135.79 147.128 137.949 147.128 140.613C147.128 143.277 144.968 145.436 142.305 145.436Z" fill="#DDE3E9"/>
<path fill-rule="evenodd" clip-rule="evenodd" d="M142.305 142.68C141.163 142.68 140.238 141.754 140.238 140.613C140.238 139.471 141.163 138.546 142.305 138.546C143.447 138.546 144.372 139.471 144.372 140.613C144.372 141.754 143.447 142.68 142.305 142.68Z" fill="#F2F2F2"/>
</g>
<g clip-path="url(#clip8)">
<rect width="203.035" height="26.8728" rx="2.75618" transform="matrix(-1 0 0 1 304.771 159.562)" fill="white"/>
<g clip-path="url(#clip9)">
<rect width="163.071" height="4.03092" rx="2.01546" transform="matrix(-1 0 0 1 298.57 167.623)" fill="#DDE3E9"/>
<rect width="109.458" height="4.03092" rx="2.01546" transform="matrix(-1 0 0 1 298.57 174.342)" fill="#DDE3E9"/>
</g>
<path fill-rule="evenodd" clip-rule="evenodd" d="M142.305 177.821C139.641 177.821 137.481 175.662 137.481 172.998C137.481 170.334 139.641 168.175 142.305 168.175C144.968 168.175 147.128 170.334 147.128 172.998C147.128 175.662 144.968 177.821 142.305 177.821Z" fill="#DDE3E9"/>
<path fill-rule="evenodd" clip-rule="evenodd" d="M142.305 175.065C141.163 175.065 140.238 174.14 140.238 172.998C140.238 171.856 141.163 170.931 142.305 170.931C143.447 170.931 144.372 171.856 144.372 172.998C144.372 174.14 143.447 175.065 142.305 175.065Z" fill="#AFB9C5"/>
</g>
<g clip-path="url(#clip10)">
<rect width="203.035" height="26.8728" rx="2.75618" transform="matrix(-1 0 0 1 304.771 256.717)" fill="white"/>
<g clip-path="url(#clip11)">
<rect width="163.071" height="4.03092" rx="2.01546" transform="matrix(-1 0 0 1 298.57 264.779)" fill="#DDE3E9"/>
<rect width="109.458" height="4.03092" rx="2.01546" transform="matrix(-1 0 0 1 298.57 271.497)" fill="#DDE3E9"/>
</g>
<path fill-rule="evenodd" clip-rule="evenodd" d="M142.305 274.977C139.641 274.977 137.481 272.817 137.481 270.153C137.481 267.49 139.641 265.33 142.305 265.33C144.968 265.33 147.128 267.49 147.128 270.153C147.128 272.817 144.968 274.977 142.305 274.977Z" fill="#DDE3E9"/>
<path fill-rule="evenodd" clip-rule="evenodd" d="M142.305 272.221C141.163 272.221 140.238 271.295 140.238 270.154C140.238 269.012 141.163 268.086 142.305 268.086C143.447 268.086 144.372 269.012 144.372 270.154C144.372 271.295 143.447 272.221 142.305 272.221Z" fill="#F2F2F2"/>
</g>
<g clip-path="url(#clip12)">
<rect width="203.035" height="26.8728" rx="2.75618" transform="matrix(-1 0 0 1 304.771 224.332)" fill="white"/>
<g clip-path="url(#clip13)">
<rect width="163.071" height="4.03092" rx="2.01546" transform="matrix(-1 0 0 1 298.57 232.394)" fill="#DDE3E9"/>
<rect width="109.458" height="4.03092" rx="2.01546" transform="matrix(-1 0 0 1 298.57 239.112)" fill="#DDE3E9"/>
</g>
<path fill-rule="evenodd" clip-rule="evenodd" d="M142.305 242.592C139.641 242.592 137.481 240.432 137.481 237.768C137.481 235.105 139.641 232.945 142.305 232.945C144.968 232.945 147.128 235.105 147.128 237.768C147.128 240.432 144.968 242.592 142.305 242.592Z" fill="#DDE3E9"/>
<path fill-rule="evenodd" clip-rule="evenodd" d="M142.305 239.835C141.163 239.835 140.238 238.91 140.238 237.768C140.238 236.627 141.163 235.701 142.305 235.701C143.447 235.701 144.372 236.627 144.372 237.768C144.372 238.91 143.447 239.835 142.305 239.835Z" fill="#F2F2F2"/>
</g>
<g clip-path="url(#clip14)">
<rect width="203.035" height="26.8728" rx="2.75618" transform="matrix(-1 0 0 1 304.771 191.947)" fill="white"/>
<g clip-path="url(#clip15)">
<rect width="163.071" height="4.03092" rx="2.01546" transform="matrix(-1 0 0 1 298.57 200.009)" fill="#DDE3E9"/>
<rect width="109.458" height="4.03092" rx="2.01546" transform="matrix(-1 0 0 1 298.57 206.727)" fill="#DDE3E9"/>
</g>
<path fill-rule="evenodd" clip-rule="evenodd" d="M142.305 210.206C139.641 210.206 137.481 208.047 137.481 205.383C137.481 202.719 139.641 200.56 142.305 200.56C144.968 200.56 147.128 202.719 147.128 205.383C147.128 208.047 144.968 210.206 142.305 210.206Z" fill="#DDE3E9"/>
<path fill-rule="evenodd" clip-rule="evenodd" d="M142.305 207.45C141.163 207.45 140.238 206.525 140.238 205.383C140.238 204.241 141.163 203.316 142.305 203.316C143.447 203.316 144.372 204.241 144.372 205.383C144.372 206.525 143.447 207.45 142.305 207.45Z" fill="#F2F2F2"/>
</g>
</g>
</g>
<path fill-rule="evenodd" clip-rule="evenodd" d="M257.531 265.782C258.44 264.392 260.126 260.862 261.406 260.365C262.23 260.046 261.99 263.355 262 263.986C262.039 266.427 261.818 268.852 261.544 271.273C261.051 275.639 259.439 279.527 257.228 283.242C256.09 285.154 254.755 287.089 252.907 288.282C252.056 288.831 251.032 288.923 250.192 289.397C249.213 289.948 249.746 289.502 249.305 290.596C248.693 292.114 248.497 294.073 248.213 295.693C246.912 303.131 243.762 342.446 244.308 350.012C244.357 350.682 243.485 350.842 243.441 350.024C243.21 345.683 245.212 315.626 246.222 305.796C247.232 295.967 248.254 287.283 249.278 283.882C250.522 279.756 252.767 274.795 254.636 270.947C255.504 269.16 256.45 267.434 257.531 265.782Z" fill="#A26638"/>
<path fill-rule="evenodd" clip-rule="evenodd" d="M264.277 313.992C266.643 312.13 269.203 315.644 267.063 317.507C265.879 318.536 264.642 318.17 263.946 317.312C263.494 317.903 263.071 318.521 262.664 319.043C261.425 320.633 260.255 322.262 259.136 323.928C256.811 327.39 254.82 331.047 252.737 334.637C250.681 338.18 248.643 341.742 246.78 345.375C245.201 348.453 243.098 352.075 242.558 355.449C243.377 348.292 246.488 341.413 250.193 335.104C253.867 328.846 258.084 322.012 263.773 317.074C263.194 316.161 263.178 314.857 264.277 313.992Z" fill="#C1DEE2"/>
<path fill-rule="evenodd" clip-rule="evenodd" d="M219.394 296.537C220.718 296.815 222.881 300.026 223.972 301.249C225.268 302.703 226.445 304.253 227.554 305.877C229.941 309.371 232.076 313.087 233.891 316.962C236.851 323.278 239.222 329.763 240.942 336.641C241.996 340.852 242.678 345.216 243.082 349.549C243.158 350.367 243.957 356.668 242.806 356.838C241.77 356.991 242.09 352.053 242.04 351.381C241.475 343.804 239.784 336.432 237.431 329.29C236.918 327.734 236.442 325.828 235.622 324.428C235.032 323.42 235.618 323.772 234.581 323.39C233.69 323.062 232.675 323.142 231.763 322.741C229.782 321.869 228.195 320.178 226.804 318.476C224.102 315.169 221.96 311.591 220.843 307.354C220.224 305.004 219.655 302.641 219.339 300.219C219.257 299.593 218.542 296.359 219.394 296.537Z" fill="#69A1AC"/>
<path fill-rule="evenodd" clip-rule="evenodd" d="M224.618 243.113C229.603 252.385 233.7 262.571 236.346 272.888C237.949 279.138 239.07 285.552 240.184 291.92C241.908 301.78 243.539 311.639 244.003 321.674C244.47 331.767 245.393 343.408 242.311 353.13C243.85 343.26 242.385 332.754 242.125 322.823C242.001 318.083 241.642 313.388 241.171 308.675C240.713 304.103 239.966 299.553 239.27 295.016C238.931 292.807 238.575 290.601 238.212 288.397C238.104 287.739 238.058 285.787 237.669 285.338C237.278 284.886 235.28 284.701 234.653 284.369C233.389 283.701 232.201 282.751 231.15 281.748C229.134 279.825 227.381 277.312 225.996 274.835C222.794 269.104 221.514 262.109 221.578 255.471C221.591 254.182 223.524 240.304 222.747 240.113C222.794 240.055 222.838 239.994 222.88 239.931C223.468 240.986 224.044 242.048 224.618 243.113Z" fill="#89C5CC"/>
<path fill-rule="evenodd" clip-rule="evenodd" d="M278.43 276.555C278.507 276.436 279.007 275.608 278.755 275.661C279.269 275.554 278.049 276.574 279.328 275.948C278.721 276.563 279.072 277.362 279.08 278.19C279.093 279.534 278.883 280.867 278.647 282.182C278.274 284.261 277.718 286.283 276.912 288.216C275.154 292.43 272.169 296.487 268.625 299.122C266.876 300.422 265.161 300.865 263.166 301.464C261.906 301.842 261.806 302.541 261.137 303.853C259.744 306.585 258.376 309.306 257.148 312.13C255.682 315.502 254.258 318.878 252.915 322.309C248.391 333.867 244.708 345.841 242.774 358.233C242.727 350.93 244.302 343.409 246.289 336.449C247.737 331.377 249.621 326.489 251.631 321.649C252.118 320.477 252.856 318.969 253.063 317.675C253.208 316.768 252.765 315.896 252.562 314.941C251.772 311.22 251.828 307.053 252.522 303.313C253.288 299.189 255.5 297.274 259.244 296.69C260.613 296.477 262.353 296.555 263.608 295.929C264.976 295.247 265.54 293.007 266.318 291.568C268.406 287.705 270.888 283.999 273.738 280.744C274.527 279.842 275.376 279.011 276.276 278.24C276.844 277.753 278.043 277.154 278.43 276.555Z" fill="#89C5CC"/>
<path d="M236.508 280.681H178.583V356.871H236.508V280.681Z" fill="#E0E0E0"/>
<path d="M178.516 280.535H120.591V356.725H178.516V280.535Z" fill="white"/>
<path fill-rule="evenodd" clip-rule="evenodd" d="M207.545 242.123L222.026 261.402L236.508 280.681H207.545H178.582L193.063 261.402L207.545 242.123Z" fill="#A26638"/>
<path fill-rule="evenodd" clip-rule="evenodd" d="M230.697 280.681H207.545H184.393L193.063 269.138L207.545 249.859L222.026 269.138L230.697 280.681Z" fill="#E0E0E0"/>
<path d="M172.084 328.184H127.154V356.871H172.084V328.184Z" fill="#703B0E"/>
<path d="M169.479 331.77H129.761V338.045H169.479V331.77Z" fill="#999999"/>
<path d="M169.479 338.045H129.761V344.321H169.479V338.045Z" fill="#A8A8A8"/>
<path d="M169.479 344.321H129.761V350.596H169.479V344.321Z" fill="#999999"/>
<path d="M169.479 350.596H129.761V356.871H169.479V350.596Z" fill="#A8A8A8"/>
<path d="M240.221 315.291H116.944V318.776H240.221V315.291Z" fill="#703B0E"/>
<path fill-rule="evenodd" clip-rule="evenodd" d="M120.656 280.681H178.582L193.063 261.402L207.545 242.123H152.227L120.656 280.681Z" fill="#E9B58F"/>
<path d="M203.594 292.387H188.258V305.7H203.594V292.387Z" fill="#E0E0E0"/>
<path d="M194.738 293.703H189.523V304.384H194.738V293.703Z" fill="white"/>
<path d="M202.329 293.703H197.114V304.384H202.329V293.703Z" fill="white"/>
<path d="M204.996 305.7H186.857V307.515H204.996V305.7Z" fill="#B3B3B3"/>
<path d="M226.832 292.387H211.496V305.7H226.832V292.387Z" fill="#E0E0E0"/>
<path d="M217.975 293.703H212.761V304.384H217.975V293.703Z" fill="white"/>
<path d="M225.567 293.703H220.353V304.384H225.567V293.703Z" fill="white"/>
<path d="M228.233 305.7H210.095V307.515H228.233V305.7Z" fill="#B3B3B3"/>
<path d="M145.669 292.387H130.333V305.7H145.669V292.387Z" fill="#E0E0E0"/>
<path d="M136.812 293.703H131.598V304.384H136.812V293.703Z" fill="white"/>
<path d="M144.404 293.703H139.189V304.384H144.404V293.703Z" fill="white"/>
<path d="M147.07 305.7H128.932V307.515H147.07V305.7Z" fill="#B3B3B3"/>
<path d="M168.906 292.387H153.57V305.7H168.906V292.387Z" fill="#E0E0E0"/>
<path d="M160.05 293.703H154.836V304.384H160.05V293.703Z" fill="white"/>
<path d="M167.642 293.703H162.428V304.384H167.642V293.703Z" fill="white"/>
<path d="M170.307 305.7H152.169V307.515H170.307V305.7Z" fill="#E0E0E0"/>
<path d="M236.508 353.155H178.583V356.871H236.508V353.155Z" fill="#E0E0E0"/>
<path d="M236.508 351.297H178.583V353.155H236.508V351.297Z" fill="white"/>
<path d="M199.023 323.552H181.617V351.297H199.023V323.552Z" fill="#E0E0E0"/>
<path d="M197.746 325.587H182.894V351.297H197.746V325.587Z" fill="#B3B3B3"/>
<path d="M213.411 325.063H203.432V345.712H213.411V325.063Z" fill="#E0E0E0"/>
<path d="M212.483 325.97H204.36V344.807H212.483V325.97Z" fill="white"/>
<path fill-rule="evenodd" clip-rule="evenodd" d="M106.654 303.526C106.106 302.688 105.09 300.562 104.319 300.262C103.823 300.07 103.968 302.063 103.961 302.444C103.937 303.914 104.071 305.376 104.236 306.834C104.533 309.465 105.504 311.807 106.837 314.046C107.522 315.198 108.326 316.364 109.44 317.083C109.953 317.414 110.57 317.469 111.076 317.754C111.666 318.086 111.344 317.818 111.61 318.477C111.979 319.392 112.097 320.572 112.268 321.548C113.052 326.029 114.95 349.718 114.621 354.276C114.592 354.68 115.117 354.776 115.143 354.283C115.283 351.668 114.076 333.558 113.468 327.635C112.859 321.713 112.244 316.481 111.626 314.432C110.877 311.946 109.524 308.956 108.398 306.638C107.875 305.561 107.305 304.521 106.654 303.526Z" fill="#A26638"/>
<path fill-rule="evenodd" clip-rule="evenodd" d="M102.589 332.573C101.164 331.451 99.6215 333.569 100.911 334.691C101.624 335.311 102.369 335.091 102.789 334.574C103.061 334.93 103.316 335.302 103.561 335.617C104.308 336.575 105.013 337.556 105.687 338.56C107.088 340.646 108.288 342.849 109.543 345.012C110.781 347.147 112.009 349.293 113.132 351.482C114.083 353.337 115.35 355.519 115.676 357.552C115.182 353.24 113.308 349.095 111.076 345.293C108.862 341.523 106.321 337.406 102.893 334.43C103.242 333.88 103.252 333.095 102.589 332.573Z" fill="#C1DEE2"/>
<path fill-rule="evenodd" clip-rule="evenodd" d="M129.632 322.057C128.834 322.224 127.531 324.159 126.874 324.896C126.092 325.772 125.384 326.705 124.715 327.684C123.277 329.789 121.991 332.028 120.897 334.363C119.114 338.168 117.685 342.075 116.648 346.22C116.014 348.757 115.603 351.386 115.359 353.997C115.313 354.49 114.832 358.286 115.526 358.389C116.15 358.481 115.957 355.506 115.987 355.101C116.327 350.536 117.346 346.094 118.764 341.79C119.073 340.853 119.36 339.705 119.854 338.861C120.209 338.254 119.856 338.466 120.481 338.236C121.018 338.038 121.63 338.086 122.179 337.845C123.373 337.32 124.329 336.3 125.167 335.275C126.795 333.282 128.086 331.127 128.758 328.574C129.132 327.158 129.474 325.734 129.665 324.275C129.714 323.898 130.145 321.949 129.632 322.057Z" fill="#69A1AC"/>
<path fill-rule="evenodd" clip-rule="evenodd" d="M126.485 289.867C123.481 295.454 121.012 301.591 119.418 307.807C118.453 311.573 117.777 315.438 117.106 319.275C116.067 325.215 115.084 331.156 114.805 337.202C114.524 343.283 113.967 350.297 115.824 356.155C114.897 350.208 115.78 343.878 115.936 337.894C116.011 335.038 116.227 332.209 116.511 329.37C116.787 326.615 117.237 323.873 117.657 321.14C117.861 319.809 118.075 318.48 118.294 317.152C118.359 316.755 118.387 315.579 118.621 315.309C118.857 315.036 120.061 314.925 120.439 314.725C121.2 314.322 121.916 313.75 122.549 313.146C123.764 311.987 124.82 310.473 125.654 308.981C127.584 305.527 128.355 301.313 128.316 297.314C128.308 296.537 127.144 288.175 127.612 288.06C127.584 288.025 127.557 287.988 127.532 287.95C127.178 288.586 126.83 289.226 126.485 289.867Z" fill="#89C5CC"/>
<path fill-rule="evenodd" clip-rule="evenodd" d="M94.0612 310.017C94.0149 309.945 93.7132 309.447 93.8651 309.478C93.5558 309.414 94.2905 310.028 93.5199 309.651C93.8858 310.022 93.6746 310.503 93.6697 311.002C93.6618 311.812 93.7881 312.615 93.9303 313.407C94.1551 314.66 94.4899 315.878 94.9758 317.043C96.035 319.582 97.8335 322.026 99.9686 323.614C101.023 324.397 102.056 324.664 103.258 325.025C104.017 325.253 104.077 325.674 104.48 326.464C105.32 328.11 106.144 329.75 106.884 331.452C107.767 333.483 108.625 335.517 109.434 337.584C112.16 344.548 114.379 351.763 115.544 359.229C115.573 354.829 114.624 350.298 113.426 346.104C112.554 343.048 111.419 340.103 110.208 337.187C109.915 336.481 109.47 335.572 109.345 334.792C109.258 334.246 109.525 333.72 109.647 333.145C110.123 330.903 110.089 328.392 109.671 326.139C109.21 323.654 107.877 322.501 105.621 322.149C104.796 322.02 103.748 322.067 102.992 321.69C102.168 321.279 101.828 319.929 101.359 319.063C100.101 316.735 98.6052 314.502 96.8881 312.541C96.4127 311.998 95.9014 311.496 95.359 311.032C95.0169 310.739 94.2943 310.378 94.0612 310.017Z" fill="#89C5CC"/>
<path fill-rule="evenodd" clip-rule="evenodd" d="M56.5602 156.958C58.9802 157.883 61.2425 158.137 62.2064 157.7C64.6233 156.606 63.2339 147.367 60.6359 144.085C58.0379 140.804 47.6908 140.999 48.4504 148.273C48.714 150.798 50.1603 152.837 52.0377 154.379L51.5253 167.801L59.6367 166.37L56.5602 156.958Z" fill="#B28B67"/>
<path fill-rule="evenodd" clip-rule="evenodd" d="M55.2754 140.721C54.1756 140.735 51.276 141.123 50.7452 141.217C50.4059 141.276 50.0519 141.418 49.7964 141.144C49.5872 140.92 49.5719 140.481 49.4709 140.195C49.3537 139.864 49.2132 139.541 49.072 139.219C48.6701 138.303 48.157 137.455 47.5131 136.687C46.3048 135.246 44.7275 134.229 42.8869 133.8C40.8545 133.326 38.6831 133.518 36.6789 134.04C34.5341 134.599 32.6905 135.66 30.7547 136.693C28.91 137.678 26.9042 138.291 24.8017 138.34C22.6834 138.389 20.9289 137.553 19.0031 136.806C17.0316 136.041 14.8716 135.694 12.7945 136.227C10.8557 136.725 9.18624 137.851 7.75082 139.214C6.40783 140.49 5.36686 141.924 4.95936 143.755C4.52095 145.725 4.87695 147.739 6.41622 149.14C8.64736 151.171 12.1268 151.185 14.9217 150.63C16.5384 150.309 18.0802 149.734 19.5179 148.928C21.4353 147.854 22.9875 146.333 24.7259 145.014C25.5417 144.395 26.4023 143.853 27.3261 143.409C28.2226 142.978 29.1302 142.693 30.0839 143.109C31.0929 143.548 32.0061 143.994 33.1056 144.186C34.1605 144.371 35.2461 144.387 36.3009 144.193C38.3532 143.815 40.2669 142.821 42.1877 142.043C43.7541 141.409 45.4346 140.756 47.1529 140.797C47.8699 140.815 48.9321 140.924 49.3083 141.595C45.2326 143.095 44.4914 148.557 46.3475 152.144C47.3493 154.08 51.6216 155.797 52.9285 154.456C53.7565 153.606 53.0227 152.812 52.5459 152.286C51.6326 151.279 51.1319 149.867 52.3132 148.846C53.3321 147.965 54.8144 149.369 54.8367 149.363C55.1454 149.284 57.5821 147.287 59.0546 144.741C60.912 144.526 60.9786 143.272 60.366 142.365C59.7533 141.458 56.7949 140.701 55.2754 140.721Z" fill="#184747"/>
<path fill-rule="evenodd" clip-rule="evenodd" d="M50.2045 195.526C52.2749 203.71 95.7615 221.213 96.1109 221.857C96.3438 222.287 89.0058 252.875 89.0058 252.875L92.6653 253.6C92.6653 253.6 106.299 220.172 104.761 217.138C102.559 212.793 69.0345 192.297 69.0345 192.297L50.2045 195.526Z" fill="#B28B67"/>
<path fill-rule="evenodd" clip-rule="evenodd" d="M89.153 248.438L95.1035 249.485C104.552 234.118 107.24 222.339 105.412 216.901C103.584 211.463 69.7993 192.092 69.7993 192.092L49.8072 195.617C53.8756 214.698 92.7031 222.533 93.3331 223.266C93.9632 223.998 90.5961 232.855 89.153 248.438Z" fill="#653918"/>
<path fill-rule="evenodd" clip-rule="evenodd" d="M90.5774 253.199C89.024 252.926 87.1318 252.895 86.7087 254.414C86.6902 254.481 86.6755 254.544 86.6651 254.603C86.504 255.514 86.4991 257.316 86.4991 257.316C87.5574 257.502 105.523 260.663 105.523 260.663C105.523 260.663 106.697 258.345 105.134 257.868C103.571 257.392 102.542 257.049 102.542 257.049L95.4428 252.261C94.7092 251.767 93.7115 251.975 93.2367 252.722L93.1029 252.933C93.1029 252.933 91.5021 253.362 90.5774 253.199V253.199Z" fill="#E4E4E4"/>
<path fill-rule="evenodd" clip-rule="evenodd" d="M54.71 194.732L44.6365 239.663L33.7215 278.071L37.7689 277.357L68.4296 192.313L54.71 194.732Z" fill="#997659"/>
<path fill-rule="evenodd" clip-rule="evenodd" d="M36.2202 276.183C34.6666 276.457 32.8774 277.074 33.0004 278.647C33.0057 278.715 33.0134 278.779 33.0238 278.838C33.1845 279.749 33.7968 281.444 33.7968 281.444C34.8553 281.258 52.8217 278.09 52.8217 278.09C52.8217 278.09 53.1315 275.511 51.4993 275.597C49.8671 275.683 48.7825 275.712 48.7825 275.712L40.4712 273.64C39.6126 273.425 38.7465 273.962 38.5561 274.826L38.5025 275.07C38.5025 275.07 37.1449 276.02 36.2202 276.183V276.183Z" fill="#E4E4E4"/>
<path fill-rule="evenodd" clip-rule="evenodd" d="M33.974 270.447L43.2645 270.546C48.4174 259.109 70.1351 212.109 69.8886 192.055L49.8672 195.585C41.6967 211.554 38.7718 258.898 33.974 270.447Z" fill="#A26638"/>
<path fill-rule="evenodd" clip-rule="evenodd" d="M94.1259 173.539L82.8675 181.057L87.6461 185.369L95.5493 176.74C99.9669 175.096 101.957 174.001 101.52 173.456C101.151 172.997 100.627 173.06 100.144 173.118C99.7684 173.163 99.4174 173.205 99.1845 172.995C98.6528 172.515 99.42 170.608 100.225 168.83C101.031 167.052 100.024 167.288 99.4618 167.583C97.6664 169.044 95.8877 171.029 94.1259 173.539ZM40.9296 191.389L33.7856 191.234C31.283 204.412 29.6861 211.674 28.9948 213.018C28.4878 214.004 24.8107 216.962 22.2655 218.643C21.2438 219.319 21.6464 220.213 22.0237 220.455C24.4035 221.983 26.1895 220.985 28.1336 219.9C28.6964 219.585 29.2725 219.264 29.88 218.994C31.4527 218.295 32.1025 219.053 32.7166 219.77C33.2604 220.405 33.7761 221.007 34.8795 220.536C34.7873 220.319 34.6783 220.077 34.5607 219.816C33.8005 218.128 32.6793 215.638 33.3938 213.951C33.7604 213.085 36.2723 205.564 40.9296 191.389Z" fill="#B28B67"/>
<path fill-rule="evenodd" clip-rule="evenodd" d="M54.886 160.855L57.7104 159.841C65.1409 164.884 70.3402 179.23 74.9135 180.444C79.2373 181.592 84.5875 178.8 90.8959 175.192L93.7722 179.443C88.8216 187.15 76.772 195.049 70.9237 192.784C61.5734 189.162 56.4033 171.249 54.886 160.855Z" fill="#1C9FA8"/>
<path fill-rule="evenodd" clip-rule="evenodd" d="M48.6529 199.74C48.6529 199.74 66.1705 196.651 74.4241 195.196C75.6017 194.989 75.0796 193.325 74.7578 192.496C71.0446 182.928 61.4905 173.592 59.0015 159.478L51.3621 159.622C46.9596 170.607 46.983 183.171 48.6529 199.74Z" fill="#DDE3E9"/>
<path fill-rule="evenodd" clip-rule="evenodd" d="M67.374 203.742L44.1759 207.832C43.5655 202.225 43.7084 196.157 44.3121 190.158C40.732 200.571 37.5209 208.18 34.6789 212.984L29.0902 212.877C28.7595 190.658 36.0238 172.934 50.8831 159.707L50.9672 159.693C50.9673 159.692 50.9674 159.692 50.9675 159.692L53.826 159.188C53.826 159.188 69.861 191.587 67.374 203.742Z" fill="#2F6267"/>
<path fill-rule="evenodd" clip-rule="evenodd" d="M75.6293 44.9211C74.6784 46.9801 73.4159 48.5165 72.5446 48.8246C70.3598 49.597 65.5755 42.8735 65.1958 39.2069C64.8161 35.5403 71.421 29.3759 75.3973 34.4662C76.7773 36.2328 77.119 38.4096 76.8855 40.5314L85.4218 48.7604L79.462 52.7799L75.6293 44.9211Z" fill="#B28B67"/>
<path fill-rule="evenodd" clip-rule="evenodd" d="M78.1536 41.4253C76.6451 37.5758 77.2379 33.8583 75.9039 32.5827C74.5699 31.3071 72.9147 31.8933 72.9147 31.8933C72.9147 31.8933 70.1863 29.4208 66.5119 32.5429C62.8375 35.6651 61.5314 38.959 65.0403 41.902C66.003 41.2528 66.929 40.1191 68.9403 39.6349C69.8976 39.4045 71.2281 40.6668 71.2281 40.6668L71.9543 40.1771C71.9543 40.1771 71.8231 37.7025 73.1656 37.4764C74.5081 37.2503 75.1629 39.4296 75.1629 39.4296L77.3811 41.9463L78.1536 41.4253Z" fill="#184747"/>
<path fill-rule="evenodd" clip-rule="evenodd" d="M104.752 62.9419L94.3271 105.138L87.5554 140.187L84.1105 141.24L90.778 67.2136L104.752 62.9419Z" fill="#997659"/>
<path fill-rule="evenodd" clip-rule="evenodd" d="M86.7533 139.124C88.0754 138.72 89.7169 138.49 90.2481 139.767C90.2716 139.823 90.2915 139.877 90.307 139.928C90.5445 140.705 90.7415 142.274 90.7415 142.274C89.8406 142.55 74.5488 147.224 74.5488 147.224C74.5488 147.224 73.2794 145.33 74.5884 144.748C75.8974 144.166 76.7559 143.757 76.7559 143.757L82.5546 138.71C83.0662 138.265 83.8446 138.33 84.2751 138.854L84.5277 139.162C84.5277 139.162 85.9662 139.364 86.7533 139.124V139.124Z" fill="#E4E4E4"/>
<path fill-rule="evenodd" clip-rule="evenodd" d="M90.5201 133.999L83.262 134.02C83.262 134.02 83.6361 119.63 85.1783 102.014C86.7206 84.3987 89.5355 67.5933 89.5355 67.5933L108.299 61.8574C108.299 61.8574 105.852 82.775 101.402 100.619C96.9525 118.463 90.5201 133.999 90.5201 133.999Z" fill="#773A0C"/>
<path fill-rule="evenodd" clip-rule="evenodd" d="M106.154 62.5132C112.001 74.434 120.782 89.2635 121.299 89.6457C121.644 89.9005 131.341 90.1599 150.391 90.4238L150.576 93.6898C128.976 97.028 117.368 98.0438 115.751 96.7371C113.325 94.7772 99.0175 77.8091 92.1201 66.8034L106.154 62.5132Z" fill="#B28B67"/>
<path fill-rule="evenodd" clip-rule="evenodd" d="M143.49 89.6612L143.676 94.9557C128.618 101.043 118.838 102.96 114.335 100.707C109.833 98.4547 102.064 87.2645 91.0296 67.1367L108.922 61.6673C117.13 78.402 121.515 87.0877 122.075 87.7244C122.634 88.3611 129.773 89.0067 143.49 89.6612Z" fill="#B6601F"/>
<path fill-rule="evenodd" clip-rule="evenodd" d="M149.682 92.033C149.513 90.6604 149.572 89.003 150.922 88.7022C150.981 88.689 151.037 88.6789 151.09 88.6724C151.896 88.5735 153.475 88.6524 153.475 88.6524C153.59 89.5877 155.541 105.463 155.541 105.463C155.541 105.463 153.455 106.384 153.109 104.993C152.763 103.603 152.509 102.686 152.509 102.686L148.546 96.0963C148.196 95.5152 148.395 94.7603 148.986 94.4274L149.333 94.2319C149.333 94.2319 149.782 92.8501 149.682 92.033V92.033Z" fill="#E4E4E4"/>
<path fill-rule="evenodd" clip-rule="evenodd" d="M64.9041 77.8095L75.226 71.7917L76.8123 77.2718L66.9015 80.1896C63.8898 83.0599 62.2516 84.2151 61.987 83.6552C61.7639 83.183 62.016 82.7909 62.2482 82.4297C62.4291 82.1484 62.598 81.8858 62.5207 81.6188C62.3441 81.009 60.5316 80.8752 58.8065 80.8219C57.0814 80.7686 57.658 80.0603 58.1092 79.7286C59.9632 78.8709 62.2282 78.2312 64.9041 77.8095ZM128.166 65.2286C126.378 64.3672 106.217 51.0526 106.217 51.0526L101.059 55.114C101.059 55.114 124.507 67.5838 125.576 68.2008C126.965 69.0023 127.49 71.3326 127.847 72.9127C127.902 73.1572 127.953 73.3837 128.002 73.5838C129.023 73.3307 129.068 72.6381 129.114 71.9079C129.167 71.0832 129.223 70.2106 130.692 69.869C131.26 69.7371 131.833 69.6578 132.393 69.5805C134.326 69.3131 136.102 69.0676 136.964 66.7448C137.101 66.3766 136.912 65.5397 135.841 65.6072C133.173 65.7753 129.04 65.6497 128.166 65.2286Z" fill="#997659"/>
<path fill-rule="evenodd" clip-rule="evenodd" d="M79.2447 45.7426L75.4041 49.1768C81.447 58.967 80.4597 68.9041 66.7866 76.4827L74.2369 89.3495C86.7557 81.9324 93.1779 69.5958 85.6065 55.6929C83.6465 52.0939 81.4739 48.4522 79.2447 45.7426Z" fill="#AFB9C5"/>
<path fill-rule="evenodd" clip-rule="evenodd" d="M80.3384 42.9893L80.7269 42.6857C96.1762 43.7839 111.144 50.7042 125.63 63.4464L113.217 73.1431C110.934 70.3748 108.64 67.7346 106.314 65.2394L89.737 78.1898C88.4312 75.4464 87.3473 72.6799 86.2443 69.8645C83.69 63.3452 81.0332 56.5642 75.2821 49.2038L80.3247 43.0041L80.3249 42.9998L80.3339 42.9928L80.3371 42.9888C80.3375 42.989 80.3379 42.9891 80.3384 42.9893Z" fill="#C5CFD6"/>
<path fill-rule="evenodd" clip-rule="evenodd" d="M106.694 57.7417C102.761 53.522 98.7179 49.8011 94.4147 46.6965C98.0254 50.791 102.259 56.0626 103.895 59.9282L106.694 57.7417Z" fill="black" fill-opacity="0.1"/>
<path fill-rule="evenodd" clip-rule="evenodd" d="M230.715 60.3801C227.914 60.1679 225.56 59.3788 224.793 58.5153C222.871 56.3503 228.259 48.0435 232.26 46.0566C236.261 44.0697 246.439 48.992 242.529 55.6851C241.172 58.008 238.852 59.3202 236.321 59.953L231.004 73.1776L223.579 68.0823L230.715 60.3801Z" fill="#B28B67"/>
<path fill-rule="evenodd" clip-rule="evenodd" d="M235.833 52.1262C235.823 50.7649 235.688 49.6395 235.166 48.6813C231.868 46.4909 231.872 45.6653 233.176 43.7664C233.952 43.765 236.232 44.43 238.434 45.6876C239.697 46.1241 240.919 47.0431 241.796 48.3638C243.013 49.8002 243.676 51.5509 243.104 53.5841C242.82 58.3403 238.877 60.789 235.983 60.5639C235.864 59.5562 235.801 58.6162 235.772 57.7377C236.34 57.65 236.865 57.3441 237.209 56.843C237.886 55.856 237.604 54.4856 236.579 53.7821C236.504 53.7303 236.426 53.6836 236.347 53.6419C235.454 54.8442 232.399 58.8891 230.905 59.9971C229.143 61.3034 225.425 59.3689 224.228 58.5478C223.195 57.8386 223.877 56.9206 224.365 56.2627C224.436 56.168 224.502 56.0786 224.559 55.9961C224.677 55.8236 224.91 55.9839 225.173 56.1651C225.514 56.4004 225.907 56.6708 226.166 56.2931C226.448 55.8814 226.074 55.1601 225.739 54.5147C225.53 54.112 225.337 53.7389 225.328 53.4888C225.298 52.7 225.652 51.9054 226.237 52.307C226.557 52.5264 226.874 53.0051 227.255 53.5809C227.831 54.4502 228.553 55.5411 229.653 56.2962C231.473 57.5451 235.789 52.1809 235.833 52.1262Z" fill="#191847"/>
<path fill-rule="evenodd" clip-rule="evenodd" d="M216.512 99.5981L179.286 129.796L151.932 152.111L145.963 148.015L199.839 88.1568L216.512 99.5981Z" fill="#191847"/>
<path fill-rule="evenodd" clip-rule="evenodd" d="M219.511 101.657C206.365 121.366 199.938 132.627 198.993 134.588C198.047 136.55 194.418 150.665 188.104 176.934L181.921 172.691C185.478 145.775 187.566 130.602 188.184 127.171C188.802 123.74 192.469 110.586 199.805 88.1338L219.511 101.657Z" fill="#00383D"/>
<path fill-rule="evenodd" clip-rule="evenodd" d="M184.977 182.675L188.961 176.208L182.464 171.749C175.697 171.706 166.923 168.533 166.923 168.533L166.105 169.724L177.862 177.792L182.292 179.956L181.884 180.552L184.977 182.675Z" fill="#191847"/>
<path fill-rule="evenodd" clip-rule="evenodd" d="M149.089 158.047L153.072 151.58L146.576 147.122C139.808 147.078 131.034 143.905 131.034 143.905L130.217 145.097L141.973 153.164L146.404 155.329L145.995 155.924L149.089 158.047Z" fill="#191847"/>
<path fill-rule="evenodd" clip-rule="evenodd" d="M233.112 126.888C233.079 124.464 238.316 102.528 238.316 102.528L232.311 99.5339C232.311 99.5339 228.485 124.018 228.392 125.519C228.271 127.469 225.981 129.236 224.429 130.434C224.189 130.619 223.966 130.791 223.772 130.948C224.616 131.953 225.407 131.651 226.241 131.332C227.183 130.972 228.18 130.591 229.37 132.05C229.829 132.614 230.233 133.21 230.628 133.792C231.991 135.805 233.244 137.653 236.291 137.432C236.775 137.397 237.597 136.762 236.931 135.607C235.271 132.728 233.129 128.073 233.112 126.888ZM179.192 78.0202L193.763 76.8063L192.861 83.5906L180.274 81.643C175.475 83.2101 173.065 83.6206 173.042 82.8744C173.022 82.2452 173.498 81.9488 173.937 81.6757C174.278 81.463 174.597 81.2645 174.641 80.9339C174.741 80.179 172.767 79.0965 170.851 78.1467C168.935 77.197 169.931 76.7242 170.602 76.5964C173.11 76.6213 175.973 77.0959 179.192 78.0202Z" fill="#B28B67"/>
<path fill-rule="evenodd" clip-rule="evenodd" d="M230.175 65.3053L227.521 61.8942C215.312 69.8108 201.087 75.8149 183.397 76.9921L182.999 83.6537C197.012 84.8551 209.61 86.9637 219.376 81.0388C222.654 79.0503 227.916 68.8228 230.175 65.3053Z" fill="#C5CFD6"/>
<path fill-rule="evenodd" clip-rule="evenodd" d="M220.44 104.484C220.44 104.484 204.828 95.9619 197.472 88.7236C196.865 88.1258 197.521 86.9355 198.362 86.3987C211.45 78.0398 221.936 70.1055 227.556 61.9177C228.473 63.5291 232.232 65.4213 232.232 65.4213C232.602 78.0869 228.789 89.7116 220.44 104.484Z" fill="#323337"/>
<path fill-rule="evenodd" clip-rule="evenodd" d="M234.483 65.9255C234.394 65.7131 234.346 65.6042 234.346 65.6042L234.249 65.7649L231.681 64.003C231.051 64.645 229.003 67.2229 226.018 70.9819C215.17 84.6417 191.935 113.897 179.3 122.524L210.796 144.138C219.307 130.313 225.161 110.812 229.174 93.5971C230.515 100.031 230.773 109.452 227.287 122.447L234.187 125.038C245.294 95.9695 236.508 71.0182 234.666 66.377C234.683 66.2798 234.701 66.1832 234.718 66.0871L234.483 65.9255Z" fill="#DDE3E9"/>
<path fill-rule="evenodd" clip-rule="evenodd" d="M276.666 133.725C275.002 137.002 272.865 139.418 271.435 139.87C267.851 141.003 260.51 129.888 260.117 123.944C259.724 118 270.792 108.386 276.923 116.82C279.051 119.747 279.472 123.282 278.966 126.698L292.29 140.442L282.397 146.624L276.666 133.725Z" fill="#915B3C"/>
<path fill-rule="evenodd" clip-rule="evenodd" d="M279.401 111.188C279.523 110.672 279.414 110.111 279.297 109.588C279.175 109.044 279.046 108.499 278.86 107.97C278.488 106.913 277.824 105.846 276.713 105.539C275.821 105.293 274.864 105.532 274.094 105.935C273.581 106.203 273.121 106.585 272.748 107.033C272.378 107.477 272.168 108.032 271.835 108.503C271.193 107.515 270.369 106.577 269.329 106.041C268.328 105.525 267.263 105.55 266.301 105.982C265.314 106.424 264.549 107.198 264.01 108.147C263.875 108.384 263.745 108.626 263.634 108.877C263.54 109.088 263.455 109.324 263.293 109.487C263.112 109.669 262.931 109.613 262.697 109.544C262.423 109.464 262.141 109.418 261.861 109.397C260.621 109.303 259.345 109.743 258.594 110.733C258.248 111.189 257.99 111.758 257.935 112.354C257.885 112.885 258.046 113.578 257.824 114.065C257.73 114.272 257.528 114.202 257.317 114.189C256.999 114.17 256.682 114.128 256.364 114.115C255.918 114.096 255.48 114.147 255.065 114.29C254.458 114.498 253.743 114.985 254.026 115.774C254.132 116.071 254.35 116.322 254.532 116.574C254.783 116.919 255.035 117.263 255.291 117.604C255.486 117.863 255.681 118.108 255.901 118.344C256.018 118.47 256.271 118.683 256.299 118.865C256.334 119.092 255.916 119.212 255.769 119.313C255.478 119.512 255.21 119.752 255.014 120.052C254.861 120.285 254.727 120.571 254.79 120.873C254.829 121.059 254.94 121.205 255.063 121.343C255.211 121.51 255.237 121.631 255.331 121.834C254.806 121.887 253.14 122.317 253.414 123.146C253.506 123.422 253.808 123.61 254.035 123.748C254.434 123.992 254.869 124.17 255.301 124.33C256.2 124.664 257.14 124.85 258.075 124.926C257.535 125.726 257.952 126.827 258.964 127.007C259.411 127.086 259.831 126.903 260.181 126.662C260.309 126.573 260.467 126.404 260.585 126.362C260.649 126.339 260.738 126.349 260.819 126.306C261.349 126.023 261.847 125.542 262.274 125.119C263.034 124.364 263.61 123.42 263.896 122.354C263.969 122.08 264.055 121.895 264.293 121.749C264.502 121.622 264.74 121.552 264.951 121.428C265.507 121.1 265.834 120.523 266.231 120.027C266.691 120.695 267.36 121.329 268.027 121.772C268.571 122.132 269.096 121.906 269.594 121.657C271.186 120.859 272.597 119.758 274.104 118.819C272.852 120.059 271.431 121.136 270.228 122.427C269.685 123.01 270.458 123.138 270.928 123.269C271.702 123.484 272.433 123.893 273.08 124.4C273.212 123.025 274.09 121.625 275.385 121.213C276.816 120.758 278.728 121.883 278.688 123.575C278.665 124.558 278.006 125.344 277.505 126.073C278.39 126.295 279.035 127.039 279.793 127.531C280.166 127.774 280.632 128.021 281.063 127.918C281.222 127.88 281.379 127.787 281.55 127.829C281.763 127.882 281.886 128.012 282.122 128.023C283.064 128.069 284.068 127.393 284.278 126.434C284.468 125.566 283.798 124.799 283.017 124.527C283.535 123.798 284.575 122.626 283.616 121.71C285.07 120.662 287.215 115.902 284.057 115.377C284.779 114.047 284.842 111.864 283.274 110.952C282.067 110.25 280.49 110.585 279.401 111.188" fill="#184747"/>
<path fill-rule="evenodd" clip-rule="evenodd" d="M331.645 225.065C331.645 225.065 314.151 229.956 301.458 229.956C288.766 229.956 277.88 222.425 277.88 222.425C277.88 222.425 294.999 217.406 306.077 217.406C317.154 217.406 331.645 225.065 331.645 225.065Z" fill="#1C9FA8"/>
<path fill-rule="evenodd" clip-rule="evenodd" d="M291.362 234.655C291.475 234.486 291.57 234.302 291.645 234.103C293.204 229.983 318.174 185.535 320.661 177.409L292.549 177.409C290.657 183.587 282.145 222.36 280.947 230.096C277.167 242.298 269.384 281.817 268.39 284.555C267.345 287.435 273.226 290.435 274.793 286.895C277.287 281.261 283.228 265.672 285.873 256.154C288.353 247.23 290.373 239.202 291.362 234.655Z" fill="#784931"/>
<path fill-rule="evenodd" clip-rule="evenodd" d="M314.362 240.081C325.778 242.965 367.535 248.178 370.4 248.995C373.348 249.836 375.932 243.764 372.289 242.449C366.491 240.356 350.517 235.52 340.831 233.547C333.041 231.96 325.932 230.664 321.159 229.906C321.563 216.508 323.412 184.354 322.2 177.409L297.326 177.409C298.488 184.068 308.308 232.659 310.133 237.523C310.713 239.26 312.441 240.027 314.362 240.081V240.081Z" fill="#915B3C"/>
<path fill-rule="evenodd" clip-rule="evenodd" d="M371.428 242.836C371.232 241.861 371.813 240.862 372.797 240.718C373.71 240.584 374.752 240.484 375.375 240.594C376.67 240.822 379.079 241.691 379.079 241.691C378.814 243.193 374.317 268.678 374.317 268.678C374.317 268.678 370.652 269.117 370.774 266.802C370.897 264.486 370.938 262.948 370.938 262.948L367.646 249.782C367.53 249.317 367.82 248.849 368.288 248.746L370.022 248.365C370.022 248.365 371.372 246.44 371.603 245.128C371.708 244.533 371.589 243.637 371.428 242.836Z" fill="#E4E4E4"/>
<path fill-rule="evenodd" clip-rule="evenodd" d="M274.501 286.197C275.427 285.834 276.511 286.233 276.824 287.176C277.114 288.052 277.394 289.061 277.394 289.693C277.394 291.007 276.955 293.529 276.955 293.529C275.43 293.529 249.535 293.529 249.535 293.529C249.535 293.529 248.467 289.997 250.769 289.716C253.072 289.434 254.595 289.207 254.595 289.207L266.999 283.681C267.436 283.486 267.947 283.691 268.13 284.133L268.806 285.774C268.806 285.774 270.938 286.768 272.271 286.768C272.876 286.768 273.739 286.495 274.501 286.197Z" fill="#E4E4E4"/>
<path fill-rule="evenodd" clip-rule="evenodd" d="M322.119 177.409C322.119 177.409 305.677 172.708 291.005 177.409C287.602 192.926 279.333 199.084 277.879 222.875C294.408 231.083 314.827 217.021 331.842 225.025C336.704 213.829 329.898 186.866 322.119 177.409Z" fill="#393939"/>
<path fill-rule="evenodd" clip-rule="evenodd" d="M259.502 205.17L267.531 187.721L274.626 193.462L264.299 206.454C262.976 213.011 261.885 216.044 261.026 215.552C260.301 215.137 260.273 214.389 260.247 213.699C260.227 213.162 260.208 212.661 259.862 212.381C259.073 211.742 256.573 213.241 254.262 214.765C251.951 216.288 252.059 214.824 252.347 213.971C253.994 211.13 256.379 208.197 259.502 205.17ZM342.145 194.323C339.783 192.139 325.182 167.619 325.182 167.619L315.727 171.291C315.727 171.291 335.366 196.236 336.73 197.7C338.502 199.602 338.214 203.464 338.02 206.082C337.99 206.487 337.962 206.863 337.944 207.196C339.644 207.289 340.04 206.236 340.457 205.127C340.929 203.873 341.427 202.547 343.864 202.715C344.806 202.78 345.73 202.93 346.634 203.076C349.754 203.579 352.621 204.042 355.053 200.851C355.439 200.345 355.542 198.958 353.852 198.555C349.64 197.548 343.3 195.391 342.145 194.323Z" fill="#915B3C"/>
<path fill-rule="evenodd" clip-rule="evenodd" d="M283.02 138.214L278.843 139.046C278.567 158.487 272.668 178.32 261.146 198.544L279.772 209.1C289.051 183.039 291.644 158.831 283.02 138.214Z" fill="#184747"/>
<path fill-rule="evenodd" clip-rule="evenodd" d="M319.003 180.898L284.113 194.29C284.113 194.29 284.92 160.155 277.01 139.548L286.932 133.94C300.311 144.068 308.934 159.55 319.003 180.898Z" fill="#DDE3E9"/>
<path fill-rule="evenodd" clip-rule="evenodd" d="M340.601 189.764C320.259 148.18 287.162 133.851 287.162 133.851L287.156 133.861C287.154 133.86 287.152 133.858 287.15 133.856L286.463 134.12C285.246 134.636 282.765 135.715 282.765 135.715L283.012 143.958C287.711 157.405 298.866 199.34 298.866 199.34L321.703 190.574C322.373 192.436 323.006 194.342 323.596 196.291L340.601 189.764Z" fill="#2F7661"/>
<path fill-rule="evenodd" clip-rule="evenodd" d="M321.768 190.755C318.863 182.641 315.25 175.363 311.436 168.985C313.926 177.334 316.372 187.592 315.405 193.197L321.768 190.755Z" fill="black" fill-opacity="0.1"/>
<path fill-rule="evenodd" clip-rule="evenodd" d="M311.322 178.648L298.032 177.733L300.045 182.976L311.322 178.648Z" fill="white" fill-opacity="0.2"/>
<path fill-rule="evenodd" clip-rule="evenodd" d="M320.66 282.552C318.059 284.125 315.503 284.885 314.304 284.575C311.296 283.797 311.019 272.758 313.347 268.406C315.674 264.054 327.638 262.157 328.241 270.78C328.451 273.772 327.198 276.443 325.348 278.622L328.666 294.139H319.027L320.66 282.552Z" fill="#B28B67"/>
<path fill-rule="evenodd" clip-rule="evenodd" d="M317.155 263.666C318.472 263.263 320.384 263.126 321.188 263.219C320.73 262.119 320.549 260.894 320.697 259.701C320.841 258.542 321.357 257.554 321.835 256.52C322.055 256.043 322.304 255.569 322.676 255.205C323.055 254.833 323.534 254.588 324.037 254.471C324.552 254.351 325.09 254.361 325.605 254.47C325.833 254.518 326.038 254.622 326.262 254.681C326.491 254.74 326.602 254.596 326.768 254.452C327.168 254.104 327.756 253.932 328.262 253.87C328.831 253.801 329.421 253.887 329.963 254.075C330.491 254.257 330.998 254.554 331.38 254.986C331.549 255.178 331.704 255.397 331.804 255.638C331.845 255.737 331.852 255.796 331.95 255.832C332.042 255.866 332.148 255.867 332.242 255.899C333.152 256.208 333.93 256.914 334.354 257.819C334.601 258.348 334.718 259.278 334.686 260.321C334.654 261.363 333.716 264.084 332.838 265.076C332.054 265.962 330.903 266.547 329.791 266.803C330.529 267.649 331.02 268.706 331.383 269.781C331.778 270.949 332.022 272.162 332.112 273.398C332.198 274.573 332.206 275.815 331.931 276.965C331.674 278.04 331.125 278.922 330.208 279.481C329.788 279.738 329.337 279.93 328.882 280.106C328.434 280.28 327.985 280.448 327.516 280.545C326.628 280.73 325.605 280.698 324.921 279.989C324.675 279.733 324.404 279.412 324.224 279.1C324.159 278.988 324.12 278.914 324.199 278.805C324.293 278.673 324.445 278.572 324.566 278.47C325.255 277.883 325.682 277.101 325.79 276.17C325.899 275.227 325.646 274.008 324.732 273.597C323.603 273.088 322.359 273.672 321.356 274.216C320.929 272.706 320.054 271.346 318.681 270.653C317.162 269.887 315.419 269.797 313.858 269.14C313.451 268.969 313.037 268.774 312.738 268.425C312.613 268.279 312.466 268.09 312.416 267.897C312.35 267.643 312.513 267.431 312.639 267.233C313.306 266.186 315.837 264.069 317.155 263.666Z" fill="#191847"/>
<path fill-rule="evenodd" clip-rule="evenodd" d="M327.737 310.147L309.427 340.737L295.699 366.599H292.742L315.743 310.147L327.737 310.147Z" fill="#997659"/>
<path fill-rule="evenodd" clip-rule="evenodd" d="M296.551 365.245C296.966 365.077 297.454 365.258 297.598 365.682C297.756 366.146 297.92 366.711 297.92 367.056C297.92 367.722 297.698 369 297.698 369C296.925 369 283.799 369 283.799 369C283.799 369 283.258 367.21 284.425 367.067C285.592 366.925 286.364 366.81 286.364 366.81L292.696 363.989C292.893 363.901 293.123 363.993 293.206 364.192L293.567 365.069C293.567 365.069 294.648 365.573 295.323 365.573C295.656 365.573 296.143 365.41 296.551 365.245Z" fill="#E4E4E4"/>
<path fill-rule="evenodd" clip-rule="evenodd" d="M299.512 362.458L293.81 360.734C293.81 360.734 297.557 349.539 302.996 336.095C308.434 322.651 314.677 310.147 314.677 310.147H330.782C330.782 310.147 323.841 325.964 316.066 338.89C308.29 351.817 299.512 362.458 299.512 362.458Z" fill="#00383D"/>
<path fill-rule="evenodd" clip-rule="evenodd" d="M328.94 310.147C330.668 320.896 334.002 334.631 334.316 335.054C334.526 335.337 342.075 337.865 356.965 342.638L356.326 345.244C338.571 342.684 329.215 340.698 328.259 339.285C326.825 337.167 319.667 320.431 316.894 310.147H328.94Z" fill="#B28B67"/>
<path fill-rule="evenodd" clip-rule="evenodd" d="M351.73 340.386L350.605 344.583C337.325 345.746 329.188 344.905 326.194 342.059C323.2 339.214 319.788 328.576 315.958 310.147H331.315C333.742 325.238 335.099 333.1 335.385 333.734C335.672 334.367 341.12 336.585 351.73 340.386Z" fill="#2F6267"/>
<path fill-rule="evenodd" clip-rule="evenodd" d="M355.912 342.467C355.819 342.029 356.082 341.579 356.525 341.511C357.01 341.436 357.595 341.373 357.934 341.433C358.591 341.548 359.812 341.989 359.812 341.989C359.677 342.75 357.398 355.667 357.398 355.667C357.398 355.667 355.54 355.889 355.602 354.716C355.664 353.542 355.685 352.762 355.685 352.762L354.005 346.042C353.952 345.832 354.083 345.621 354.294 345.575L355.221 345.371C355.221 345.371 355.905 344.395 356.022 343.73C356.08 343.403 356.004 342.897 355.912 342.467Z" fill="#E4E4E4"/>
<path fill-rule="evenodd" clip-rule="evenodd" d="M306.822 290.096L315.313 294.787L312.178 298.182L306.008 292.484C302.758 291.58 301.272 290.919 301.549 290.501C301.783 290.148 302.16 290.16 302.508 290.172C302.779 290.18 303.031 290.189 303.184 290.023C303.533 289.646 302.867 288.325 302.183 287.099C301.498 285.873 302.23 285.979 302.649 286.156C304.019 287.092 305.41 288.405 306.822 290.096ZM298.285 296.678L302.015 298.745L301.803 302.52C301.803 302.52 299.387 300.761 297.309 300.177C294.659 299.432 293.587 298.862 292.292 297.198C291.599 296.308 291.011 294.518 291.67 293.935C291.923 293.711 292.866 294.24 293.828 294.779C294.561 295.189 295.305 295.607 295.763 295.702C296.38 295.83 296.308 295.023 296.25 294.378C296.209 293.916 296.175 293.537 296.408 293.646C297.5 293.665 298.285 296.678 298.285 296.678Z" fill="#997659"/>
<path fill-rule="evenodd" clip-rule="evenodd" d="M319.449 293.742C316.475 293.711 312.509 293.077 308.277 290.368L306.615 294.106C309.534 297.028 313.638 299.428 317.227 299.327C320.055 299.247 321.501 295.796 319.449 293.742Z" fill="#703B0E"/>
<path fill-rule="evenodd" clip-rule="evenodd" d="M319.926 284.251C319.926 284.251 319.926 284.251 319.926 284.251H325.824C325.824 284.251 325.824 284.251 325.824 284.251H326.038C326.782 284.251 331.841 294.033 331.846 300.387C331.847 302.57 332.606 304.452 333.404 306.435C334.728 309.724 336.162 313.286 334.435 318.945C332.895 318.639 330.297 318.981 327.47 319.353C322.178 320.048 316.083 320.85 314.619 317.711C313.527 315.369 313.202 312.805 313.345 310.11C308.843 310.011 303.379 308.514 297.003 305.155C296.794 302.697 299.559 296.927 299.559 296.927C299.559 296.927 310.513 300.859 315.446 299.729C315.739 298.729 316.044 297.727 316.348 296.727C317.652 292.441 318.947 288.184 319.25 284.251H319.926Z" fill="#DD8A5B"/>
<defs>
<clipPath id="clip0">
<rect width="256.909" height="239.931" fill="white" transform="translate(47.9902 88.5898)"/>
</clipPath>
<clipPath id="clip1">
<rect width="59.3519" height="164.476" fill="white" transform="matrix(-1 0 0 1 107.342 164.045)"/>
</clipPath>
<clipPath id="clip2">
<rect width="34.4276" height="108.869" fill="white" transform="matrix(-1 0 0 1 94.9385 176.448)"/>
</clipPath>
<clipPath id="clip3">
<rect width="203.035" height="194.311" fill="white" transform="matrix(-1 0 0 1 304.771 89.2788)"/>
</clipPath>
<clipPath id="clip4">
<rect width="203.035" height="32.3852" fill="white" transform="matrix(-1 0 0 1 304.771 89.2788)"/>
</clipPath>
<clipPath id="clip5">
<rect width="163.071" height="12.9541" fill="white" transform="matrix(-1 0 0 1 298.57 98.9944)"/>
</clipPath>
<clipPath id="clip6">
<rect width="203.035" height="26.8728" fill="white" transform="matrix(-1 0 0 1 304.771 127.177)"/>
</clipPath>
<clipPath id="clip7">
<rect width="163.071" height="10.7491" fill="white" transform="matrix(-1 0 0 1 298.57 135.238)"/>
</clipPath>
<clipPath id="clip8">
<rect width="203.035" height="26.8728" fill="white" transform="matrix(-1 0 0 1 304.771 159.562)"/>
</clipPath>
<clipPath id="clip9">
<rect width="163.071" height="10.7491" fill="white" transform="matrix(-1 0 0 1 298.57 167.623)"/>
</clipPath>
<clipPath id="clip10">
<rect width="203.035" height="26.8728" fill="white" transform="matrix(-1 0 0 1 304.771 256.717)"/>
</clipPath>
<clipPath id="clip11">
<rect width="163.071" height="10.7491" fill="white" transform="matrix(-1 0 0 1 298.57 264.779)"/>
</clipPath>
<clipPath id="clip12">
<rect width="203.035" height="26.8728" fill="white" transform="matrix(-1 0 0 1 304.771 224.332)"/>
</clipPath>
<clipPath id="clip13">
<rect width="163.071" height="10.7491" fill="white" transform="matrix(-1 0 0 1 298.57 232.394)"/>
</clipPath>
<clipPath id="clip14">
<rect width="203.035" height="26.8728" fill="white" transform="matrix(-1 0 0 1 304.771 191.947)"/>
</clipPath>
<clipPath id="clip15">
<rect width="163.071" height="10.7491" fill="white" transform="matrix(-1 0 0 1 298.57 200.009)"/>
</clipPath>
</defs>
</svg>
