<svg width="533" height="493" viewBox="0 0 533 493" fill="none" xmlns="http://www.w3.org/2000/svg">
<g clip-path="url(#clip0)">
<g clip-path="url(#clip1)">
<rect x="8.42822" y="162.49" width="396" height="346" rx="8" transform="rotate(-24.1015 8.42822 162.49)" fill="#F2F2F2"/>
<path d="M11.6951 169.793C9.89083 165.76 11.6977 161.028 15.7308 159.224L362.604 4.04915C366.637 2.24493 371.369 4.05179 373.173 8.0849L380.932 25.4286L19.4538 187.137L11.6951 169.793Z" fill="#C5CFD6"/>
<path fill-rule="evenodd" clip-rule="evenodd" d="M27.6452 173.613C29.6617 172.711 30.5652 170.344 29.6631 168.328C28.7609 166.311 26.3949 165.408 24.3783 166.31C22.3618 167.212 21.4584 169.578 22.3605 171.595C23.2626 173.611 25.6286 174.515 27.6452 173.613Z" fill="#F2F2F2"/>
<path fill-rule="evenodd" clip-rule="evenodd" d="M38.5993 168.712C40.6158 167.81 41.5193 165.444 40.6172 163.428C39.715 161.411 37.349 160.508 35.3324 161.41C33.3159 162.312 32.4125 164.678 33.3146 166.695C34.2167 168.711 36.5827 169.614 38.5993 168.712Z" fill="#F2F2F2"/>
<path fill-rule="evenodd" clip-rule="evenodd" d="M49.5529 163.812C51.5694 162.91 52.4729 160.544 51.5708 158.527C50.6687 156.511 48.3026 155.607 46.2861 156.51C44.2695 157.412 43.3661 159.778 44.2682 161.794C45.1703 163.811 47.5363 164.714 49.5529 163.812Z" fill="#F2F2F2"/>
<g clip-path="url(#clip2)">
<g clip-path="url(#clip3)">
<rect x="345.307" y="156.393" width="70" height="194" rx="8" transform="rotate(-24.1015 345.307 156.393)" fill="white"/>
<g clip-path="url(#clip4)">
<rect x="369.088" y="165.474" width="34" height="26" rx="4" transform="rotate(-24.1015 369.088 165.474)" fill="#DDE3E9"/>
<rect x="382.972" y="196.51" width="34" height="25" rx="4" transform="rotate(-24.1015 382.972 196.51)" fill="#AFB9C5"/>
<rect x="396.448" y="226.633" width="34" height="25" rx="4" transform="rotate(-24.1015 396.448 226.633)" fill="#DDE3E9"/>
<rect x="423.399" y="286.879" width="34" height="25" rx="4" transform="rotate(-24.1015 423.399 286.879)" fill="#DDE3E9"/>
<rect x="409.923" y="256.756" width="34" height="25" rx="4" transform="rotate(-24.1015 409.923 256.756)" fill="#C5CFD6"/>
</g>
</g>
<rect x="308.963" y="75.1522" width="70" height="81" rx="8" transform="rotate(-24.1015 308.963 75.1522)" fill="white"/>
<g clip-path="url(#clip5)">
<path fill-rule="evenodd" clip-rule="evenodd" d="M360.104 103.763C368.17 100.154 371.784 90.6899 368.176 82.6237C364.567 74.5574 355.103 70.9437 347.037 74.5522C338.971 78.1606 335.357 87.6248 338.965 95.691C342.574 103.757 352.038 107.371 360.104 103.763Z" fill="#DDE3E9"/>
<rect x="338.917" y="117.623" width="50" height="6" rx="3" transform="rotate(-24.1015 338.917 117.623)" fill="#DDE3E9"/>
<rect x="350.303" y="123.484" width="34" height="6" rx="3" transform="rotate(-24.1015 350.303 123.484)" fill="#DDE3E9"/>
</g>
<g clip-path="url(#clip6)">
<g clip-path="url(#clip7)">
<rect x="40.5928" y="195.208" width="286" height="47" rx="4" transform="rotate(-24.1015 40.5928 195.208)" fill="white"/>
<g clip-path="url(#clip8)">
<rect x="54.5659" y="204.404" width="228" height="7.05" rx="3" transform="rotate(-24.1015 54.5659 204.404)" fill="#DDE3E9"/>
<rect x="59.3643" y="215.13" width="153.041" height="7.05" rx="3" transform="rotate(-24.1015 59.3643 215.13)" fill="#DDE3E9"/>
</g>
<path fill-rule="evenodd" clip-rule="evenodd" d="M286.215 118.741C289.744 117.163 291.325 113.022 289.746 109.493C288.167 105.964 284.027 104.383 280.498 105.962C276.969 107.541 275.388 111.681 276.966 115.21C278.545 118.739 282.686 120.32 286.215 118.741Z" fill="#DDE3E9"/>
<path fill-rule="evenodd" clip-rule="evenodd" d="M284.581 115.09C286.094 114.414 286.771 112.639 286.095 111.127C285.418 109.614 283.643 108.937 282.131 109.613C280.619 110.29 279.941 112.064 280.618 113.577C281.294 115.089 283.069 115.767 284.581 115.09Z" fill="#F2F2F2"/>
</g>
<g clip-path="url(#clip9)">
<rect x="63.0522" y="245.414" width="286" height="39" rx="4" transform="rotate(-24.1015 63.0522 245.414)" fill="white"/>
<g clip-path="url(#clip10)">
<rect x="76.0454" y="252.418" width="228" height="5.85" rx="2.925" transform="rotate(-24.1015 76.0454 252.418)" fill="#DDE3E9"/>
<rect x="80.0269" y="261.318" width="153.041" height="5.85" rx="2.925" transform="rotate(-24.1015 80.0269 261.318)" fill="#DDE3E9"/>
</g>
<path fill-rule="evenodd" clip-rule="evenodd" d="M307.041 165.295C310.57 163.717 312.151 159.576 310.572 156.047C308.993 152.518 304.853 150.937 301.324 152.516C297.795 154.095 296.214 158.235 297.793 161.764C299.371 165.293 303.512 166.874 307.041 165.295Z" fill="#DDE3E9"/>
<path fill-rule="evenodd" clip-rule="evenodd" d="M305.407 161.644C306.92 160.968 307.597 159.193 306.921 157.681C306.244 156.168 304.47 155.491 302.957 156.167C301.445 156.844 300.767 158.618 301.444 160.131C302.12 161.643 303.895 162.321 305.407 161.644Z" fill="#F2F2F2"/>
</g>
<g clip-path="url(#clip11)">
<rect x="82.2451" y="288.316" width="286" height="39" rx="4" transform="rotate(-24.1015 82.2451 288.316)" fill="white"/>
<g clip-path="url(#clip12)">
<rect x="95.2383" y="295.321" width="228" height="5.85" rx="2.925" transform="rotate(-24.1015 95.2383 295.321)" fill="#DDE3E9"/>
<rect x="99.2197" y="304.221" width="153.041" height="5.85" rx="2.925" transform="rotate(-24.1015 99.2197 304.221)" fill="#DDE3E9"/>
</g>
<path fill-rule="evenodd" clip-rule="evenodd" d="M326.234 208.198C329.763 206.619 331.344 202.479 329.765 198.95C328.186 195.421 324.046 193.84 320.517 195.419C316.988 196.997 315.407 201.138 316.985 204.667C318.564 208.196 322.705 209.777 326.234 208.198Z" fill="#DDE3E9"/>
<path fill-rule="evenodd" clip-rule="evenodd" d="M324.6 204.547C326.113 203.87 326.79 202.096 326.114 200.583C325.437 199.071 323.663 198.393 322.15 199.07C320.638 199.746 319.96 201.521 320.637 203.033C321.313 204.546 323.088 205.223 324.6 204.547Z" fill="#AFB9C5"/>
</g>
<g clip-path="url(#clip13)">
<rect x="139.823" y="417.024" width="286" height="39" rx="4" transform="rotate(-24.1015 139.823 417.024)" fill="white"/>
<g clip-path="url(#clip14)">
<rect x="152.816" y="424.029" width="228" height="5.85" rx="2.925" transform="rotate(-24.1015 152.816 424.029)" fill="#DDE3E9"/>
<rect x="156.797" y="432.929" width="153.041" height="5.85" rx="2.925" transform="rotate(-24.1015 156.797 432.929)" fill="#DDE3E9"/>
</g>
<path fill-rule="evenodd" clip-rule="evenodd" d="M383.811 336.906C387.34 335.328 388.921 331.187 387.343 327.658C385.764 324.129 381.623 322.548 378.094 324.127C374.565 325.705 372.984 329.846 374.563 333.375C376.142 336.904 380.282 338.485 383.811 336.906Z" fill="#DDE3E9"/>
<path fill-rule="evenodd" clip-rule="evenodd" d="M382.178 333.255C383.69 332.578 384.368 330.804 383.691 329.291C383.015 327.779 381.24 327.101 379.728 327.778C378.215 328.455 377.538 330.229 378.214 331.742C378.891 333.254 380.665 333.932 382.178 333.255Z" fill="#F2F2F2"/>
</g>
<g clip-path="url(#clip15)">
<rect x="120.63" y="374.122" width="286" height="39" rx="4" transform="rotate(-24.1015 120.63 374.122)" fill="white"/>
<g clip-path="url(#clip16)">
<rect x="133.624" y="381.127" width="228" height="5.85" rx="2.925" transform="rotate(-24.1015 133.624 381.127)" fill="#DDE3E9"/>
<rect x="137.605" y="390.027" width="153.041" height="5.85" rx="2.925" transform="rotate(-24.1015 137.605 390.027)" fill="#DDE3E9"/>
</g>
<path fill-rule="evenodd" clip-rule="evenodd" d="M364.619 294.004C368.148 292.425 369.729 288.284 368.15 284.755C366.572 281.226 362.431 279.645 358.902 281.224C355.373 282.803 353.792 286.943 355.371 290.472C356.949 294.001 361.09 295.582 364.619 294.004Z" fill="#DDE3E9"/>
<path fill-rule="evenodd" clip-rule="evenodd" d="M362.985 290.352C364.498 289.676 365.175 287.901 364.499 286.389C363.822 284.876 362.048 284.199 360.535 284.875C359.023 285.552 358.345 287.326 359.022 288.839C359.699 290.351 361.473 291.029 362.985 290.352Z" fill="#F2F2F2"/>
</g>
<g clip-path="url(#clip17)">
<rect x="101.438" y="331.219" width="286" height="39" rx="4" transform="rotate(-24.1015 101.438 331.219)" fill="white"/>
<g clip-path="url(#clip18)">
<rect x="114.431" y="338.224" width="228" height="5.85" rx="2.925" transform="rotate(-24.1015 114.431 338.224)" fill="#DDE3E9"/>
<rect x="118.412" y="347.124" width="153.041" height="5.85" rx="2.925" transform="rotate(-24.1015 118.412 347.124)" fill="#DDE3E9"/>
</g>
<path fill-rule="evenodd" clip-rule="evenodd" d="M345.426 251.101C348.955 249.522 350.536 245.382 348.957 241.853C347.379 238.324 343.238 236.743 339.709 238.321C336.18 239.9 334.599 244.041 336.178 247.57C337.757 251.099 341.897 252.68 345.426 251.101Z" fill="#DDE3E9"/>
<path fill-rule="evenodd" clip-rule="evenodd" d="M343.793 247.45C345.305 246.773 345.983 244.998 345.306 243.486C344.629 241.974 342.855 241.296 341.342 241.973C339.83 242.649 339.152 244.424 339.829 245.936C340.506 247.449 342.28 248.126 343.793 247.45Z" fill="#F2F2F2"/>
</g>
</g>
</g>
</g>
<path fill-rule="evenodd" clip-rule="evenodd" d="M410.855 182.309C404.666 184.937 398.825 185.806 396.288 184.76C389.926 182.136 392.702 157.976 399.144 149.203C405.585 140.43 432.421 139.983 431.102 158.974C430.644 165.564 427.077 171.003 422.348 175.184L424.874 210.046L403.722 207.073L410.855 182.309Z" fill="#EAC8A9"/>
<path fill-rule="evenodd" clip-rule="evenodd" d="M408.951 140.04C411.965 139.568 416.202 139.86 417.939 140.309C417.272 137.77 417.249 135.042 417.94 132.486C418.611 130.002 420.046 128.009 421.411 125.901C422.04 124.929 422.733 123.972 423.661 123.291C424.606 122.598 425.734 122.211 426.873 122.111C428.039 122.008 429.217 122.196 430.315 122.592C430.8 122.767 431.217 123.058 431.69 123.254C432.174 123.455 432.462 123.175 432.871 122.911C433.857 122.276 435.198 122.082 436.329 122.104C437.598 122.129 438.866 122.499 439.998 123.075C441.101 123.636 442.122 124.438 442.827 125.498C443.141 125.969 443.413 126.494 443.559 127.052C443.619 127.281 443.615 127.411 443.821 127.52C444.01 127.622 444.244 127.657 444.441 127.756C446.343 128.711 447.834 130.489 448.486 132.595C448.867 133.823 448.839 135.888 448.449 138.152C448.059 140.416 445.165 146.06 442.935 147.954C440.944 149.644 438.238 150.563 435.721 150.779C437.08 152.851 437.834 155.308 438.301 157.764C438.809 160.433 438.973 163.154 438.791 165.878C438.619 168.466 438.256 171.178 437.301 173.6C436.408 175.865 434.933 177.619 432.75 178.557C431.75 178.986 430.699 179.267 429.648 179.51C428.612 179.751 427.575 179.98 426.515 180.047C424.511 180.175 422.275 179.79 420.992 178.033C420.529 177.4 420.033 176.616 419.734 175.88C419.627 175.615 419.563 175.443 419.77 175.228C420.016 174.97 420.381 174.797 420.678 174.61C422.371 173.544 423.547 171.969 424.068 169.974C424.597 167.949 424.416 165.215 422.535 164.034C420.213 162.577 417.306 163.467 414.937 164.343C414.464 160.919 412.959 157.684 410.159 155.75C407.06 153.61 403.263 152.877 400.04 150.962C399.2 150.463 398.35 149.911 397.8 149.057C397.57 148.7 397.306 148.242 397.255 147.806C397.189 147.233 397.612 146.82 397.949 146.428C399.734 144.349 405.937 140.513 408.951 140.04Z" fill="#184747"/>
<path fill-rule="evenodd" clip-rule="evenodd" d="M417.3 279.93L351.167 390.159L301.587 483.349H290.907L373.98 279.93L417.3 279.93Z" fill="#997659"/>
<path fill-rule="evenodd" clip-rule="evenodd" d="M305.434 478.149C306.507 477.686 307.779 478.161 308.173 479.261C308.81 481.036 309.61 483.551 309.61 484.995C309.61 487.395 308.808 492 308.808 492C306.015 492 258.61 492 258.61 492C258.61 492 256.653 485.551 260.869 485.036C265.085 484.522 267.873 484.108 267.873 484.108L291.103 473.783C291.617 473.555 292.218 473.795 292.433 474.315L293.89 477.837C293.89 477.837 297.792 479.653 300.232 479.653C301.652 479.653 303.847 478.834 305.434 478.149Z" fill="#E4E4E4"/>
<path fill-rule="evenodd" clip-rule="evenodd" d="M315.357 468.426L294.762 462.215C294.762 462.215 308.297 421.876 327.939 373.431C347.582 324.986 370.13 279.93 370.13 279.93H428.297C428.297 279.93 403.228 336.924 375.144 383.503C347.061 430.082 315.357 468.426 315.357 468.426Z" fill="#0B3235"/>
<path fill-rule="evenodd" clip-rule="evenodd" d="M421.646 279.93C427.888 318.665 439.926 368.154 441.062 369.681C441.82 370.699 469.087 379.809 522.863 397.009L520.556 406.398C456.428 397.173 422.638 390.016 419.186 384.927C414.008 377.293 388.154 316.987 378.14 279.93H421.646Z" fill="#B28B67"/>
<path fill-rule="evenodd" clip-rule="evenodd" d="M503.96 388.893L499.897 404.015C451.933 408.209 422.544 405.178 411.731 394.923C400.918 384.668 388.594 346.337 374.759 279.93H430.225C438.99 334.308 443.89 362.639 444.926 364.922C445.961 367.204 465.639 375.195 503.96 388.893Z" fill="#18676C"/>
<path fill-rule="evenodd" clip-rule="evenodd" d="M518.88 395.589C518.608 394.449 519.3 393.275 520.456 393.078C522.32 392.761 524.939 392.414 526.364 392.664C528.735 393.081 533.144 394.668 533.144 394.668C532.659 397.41 524.427 443.955 524.427 443.955C524.427 443.955 517.717 444.756 517.941 440.527C518.165 436.299 518.24 433.489 518.24 433.489L512.077 408.895C511.94 408.348 512.283 407.795 512.834 407.674L516.564 406.856C516.564 406.856 519.035 403.34 519.459 400.944C519.704 399.554 519.28 397.265 518.88 395.589Z" fill="#E4E4E4"/>
<path fill-rule="evenodd" clip-rule="evenodd" d="M354.733 201.703L382.976 222.706L369.98 233.207L350.604 209.792C339.346 204.929 334.322 201.823 335.531 200.473C336.551 199.335 337.904 199.57 339.151 199.786C340.122 199.955 341.028 200.112 341.661 199.6C343.108 198.432 341.37 193.392 339.516 188.679C337.663 183.966 340.248 184.717 341.668 185.557C346.137 189.583 350.492 194.965 354.733 201.703ZM320.681 220.818L333.084 230.066L330.429 243.403C330.429 243.403 322.606 235.918 315.412 232.784C306.238 228.788 302.66 226.219 298.828 219.637C296.777 216.115 295.555 209.443 298.222 207.701C299.246 207.033 302.377 209.391 305.572 211.798C308.007 213.632 310.479 215.494 312.083 216.065C314.242 216.834 314.386 213.924 314.5 211.599C314.583 209.931 314.65 208.563 315.437 209.072C319.361 209.692 320.681 220.818 320.681 220.818Z" fill="#E9CDB6"/>
<path fill-rule="evenodd" clip-rule="evenodd" d="M398.397 221.079C387.698 219.46 373.727 215.196 359.837 203.405L351.978 215.875C361.032 227.758 374.618 238.386 387.598 239.841C397.827 240.987 404.761 229.432 398.397 221.079Z" fill="#C9844F"/>
<path fill-rule="evenodd" clip-rule="evenodd" d="M414.478 316.342C424.851 316.45 434.382 316.548 439.775 318.417C448.831 299.14 445.446 285.727 442.322 273.344C440.438 265.881 438.65 258.792 439.736 251.02C442.9 228.388 429.569 190.993 426.888 190.616L426.118 190.508L404.867 187.521L402.434 187.179C399.372 201.03 392.575 215.536 385.734 230.136C384.136 233.546 382.536 236.96 380.981 240.373C362.644 241.897 325.148 222.351 325.148 222.351C325.148 222.351 312.298 241.499 311.82 250.355C333.109 265.545 352.046 273.646 368.216 276.277C366.352 285.8 366.241 295.095 369.003 303.99C372.705 315.909 395.065 316.141 414.478 316.342Z" fill="#DD8A5B"/>
<path fill-rule="evenodd" clip-rule="evenodd" d="M149.585 182.073C154.883 186.213 160.299 188.564 163.021 188.21C169.846 187.322 173.417 163.267 169.466 153.126C165.515 142.985 139.708 135.607 136.067 154.292C134.804 160.777 136.842 166.953 140.328 172.216L128.865 205.236L150.066 207.839L149.585 182.073Z" fill="#B28B67"/>
<path fill-rule="evenodd" clip-rule="evenodd" d="M158.728 140.678C155.99 139.878 148.505 138.641 147.117 138.47C146.231 138.362 145.245 138.446 144.819 137.569C144.471 136.852 144.767 135.747 144.733 134.96C144.694 134.046 144.591 133.135 144.485 132.227C144.184 129.641 143.556 127.14 142.542 124.739C140.64 120.235 137.501 116.504 133.263 114.038C128.582 111.314 123.052 110.142 117.685 109.919C111.942 109.681 106.565 110.92 100.979 112.022C95.657 113.072 90.217 113.075 84.9665 111.598C79.6763 110.111 75.9602 106.697 71.7521 103.374C67.4442 99.971 62.3511 97.4663 56.7952 97.2161C51.609 96.9828 46.6143 98.5163 42.0192 100.82C37.72 102.975 34.0499 105.753 31.6488 110.001C29.0657 114.571 28.4186 119.857 31.1717 124.514C35.1621 131.265 43.7804 133.942 51.1328 134.684C55.3855 135.113 59.6459 134.853 63.8228 133.94C69.3932 132.723 74.3979 130.116 79.7102 128.154C82.2033 127.233 84.7488 126.538 87.3769 126.135C89.9272 125.744 92.3944 125.723 94.444 127.482C96.6123 129.343 98.5386 131.145 101.119 132.46C103.594 133.722 106.274 134.586 109.038 134.904C114.414 135.522 119.914 134.504 125.268 134.027C129.634 133.638 134.298 133.288 138.528 134.697C140.292 135.285 142.843 136.364 143.267 138.32C132.021 138.957 126.034 151.991 127.913 162.331C128.927 167.911 138.218 175.43 142.478 173.084C145.176 171.598 143.96 169.064 143.176 167.393C141.676 164.193 141.507 160.298 145.212 158.653C148.407 157.235 151.017 161.856 151.077 161.858C151.903 161.894 159.461 158.776 165.046 153.558C169.816 154.432 170.933 151.363 170.103 148.638C169.273 145.914 162.511 141.784 158.728 140.678Z" fill="#184747"/>
<path fill-rule="evenodd" clip-rule="evenodd" d="M103.813 279.929C105.418 301.766 208.8 366.056 209.403 367.86C209.805 369.063 177.224 443.888 177.224 443.888L186.261 447.389C186.261 447.389 236.235 368.144 233.668 359.7C229.993 347.611 153.456 280.162 153.456 280.162L103.813 279.929Z" fill="#B28B67"/>
<path fill-rule="evenodd" clip-rule="evenodd" d="M179.602 432.622L194.357 437.977C225.469 402.979 237.664 374.102 235.441 359.389C233.217 344.676 155.505 279.983 155.505 279.983L102.755 279.983C104.555 330.554 200.377 368.053 201.659 370.208C202.941 372.363 190.327 393.469 179.602 432.622Z" fill="#0C4347"/>
<path fill-rule="evenodd" clip-rule="evenodd" d="M176.729 442.24C175.879 441.438 174.52 441.451 173.771 442.35C172.564 443.801 170.95 445.891 170.455 447.248C169.632 449.503 168.806 454.104 168.806 454.104C171.43 455.056 215.976 471.221 215.976 471.221C215.976 471.221 220.027 465.828 216.242 463.907C212.457 461.986 209.979 460.646 209.979 460.646L191.693 443.023C191.288 442.633 190.64 442.654 190.26 443.069L187.683 445.882C187.683 445.882 183.393 446.257 181.1 445.425C179.766 444.941 177.986 443.424 176.729 442.24Z" fill="#E4E4E4"/>
<path fill-rule="evenodd" clip-rule="evenodd" d="M115.7 279.93L69.6461 390.159L24.3823 483.349H35.0615L151.9 279.93H115.7Z" fill="#997659"/>
<path fill-rule="evenodd" clip-rule="evenodd" d="M26.4263 478.149C25.3528 477.686 24.0813 478.161 23.6864 479.261C23.0494 481.036 22.25 483.551 22.25 484.995C22.25 487.395 23.0521 492 23.0521 492C25.8448 492 73.2497 492 73.2497 492C73.2497 492 75.2064 485.551 70.9907 485.036C66.775 484.522 63.9866 484.108 63.9866 484.108L40.757 473.783C40.2429 473.555 39.6416 473.795 39.4267 474.315L37.9703 477.837C37.9703 477.837 34.0676 479.653 31.6276 479.653C30.2079 479.653 28.0133 478.834 26.4263 478.149Z" fill="#E4E4E4"/>
<path fill-rule="evenodd" clip-rule="evenodd" d="M28.4697 463.99L52.199 468.426C70.5465 441.533 147.331 331.263 155.75 279.93H102.923C74.8088 317.038 45.9586 436.652 28.4697 463.99Z" fill="#18676C"/>
<path fill-rule="evenodd" clip-rule="evenodd" d="M230.782 253.245L197.053 263.33L205.671 277.639L231.893 262.258C244.136 261.535 249.92 260.333 249.246 258.652C248.678 257.234 247.326 256.992 246.08 256.769C245.11 256.596 244.204 256.434 243.785 255.737C242.826 254.144 246.183 250.002 249.538 246.207C252.893 242.412 250.207 242.234 248.585 242.538C243.008 244.794 237.073 248.363 230.782 253.245ZM84.8353 257.104L67.1732 251.301C50.9357 282.053 41.4461 298.833 38.7045 301.639C36.694 303.697 25.2965 308.235 17.6846 310.471C14.6293 311.368 14.9521 313.889 15.707 314.776C20.469 320.368 25.6714 319.251 31.3344 318.036C32.9739 317.684 34.6519 317.324 36.3691 317.116C40.8137 316.578 41.8548 318.951 42.8387 321.193C43.7098 323.178 44.5361 325.061 47.6399 324.731C47.5752 324.124 47.4877 323.442 47.3934 322.705C46.7836 317.946 45.8844 310.926 48.9439 307.288C50.5141 305.421 62.4779 288.693 84.8353 257.104Z" fill="#B28B67"/>
<path fill-rule="evenodd" clip-rule="evenodd" d="M142.765 192.042L150.564 191.673C165.225 209.807 167.268 249.298 177.728 255.776C187.617 261.901 203.052 259.044 221.492 254.892L225.422 267.606C207.247 282.947 171.26 293.374 158.426 283.323C137.907 267.253 138.646 218.947 142.765 192.042Z" fill="#A26638"/>
<path fill-rule="evenodd" clip-rule="evenodd" d="M97.7153 283.658C97.7153 283.658 143.657 289.299 165.303 291.957C168.391 292.336 168.355 287.819 168.184 285.52C166.211 258.994 149.525 228.613 154.05 191.755L134.929 186.313C115.629 210.189 106.144 241.339 97.7153 283.658Z" fill="#DDE3E9"/>
<path fill-rule="evenodd" clip-rule="evenodd" d="M133.894 186.186L133.672 186.158C86.6449 207.655 55.1047 246.056 39.0508 301.361L52.8781 305.866C63.6009 296.119 77.3726 279.701 94.1932 256.615C88.1333 271.022 83.1673 285.952 80.4274 300.309L141.267 307.779C156.688 279.55 141.391 187.106 141.391 187.106L137.19 186.591L133.894 186.186Z" fill="#A26638"/>
<path fill-rule="evenodd" clip-rule="evenodd" d="M299.835 188.709C299.836 188.714 299.836 188.72 299.838 188.726C299.836 188.721 299.837 188.7 299.835 188.709" fill="#C5CFD6"/>
<path fill-rule="evenodd" clip-rule="evenodd" d="M299.838 188.717C299.837 188.718 299.838 188.721 299.837 188.722C299.839 188.718 299.834 188.701 299.838 188.717" fill="#C5CFD6"/>
<path fill-rule="evenodd" clip-rule="evenodd" d="M299.824 188.627C299.826 188.648 299.831 188.669 299.833 188.69C299.832 188.679 299.83 188.671 299.829 188.66C299.867 188.937 299.843 188.757 299.824 188.627" fill="#C5CFD6"/>
<path fill-rule="evenodd" clip-rule="evenodd" d="M299.832 188.691C299.833 188.7 299.835 188.711 299.836 188.721C299.851 188.782 299.832 188.691 299.832 188.691" fill="#C5CFD6"/>
<path fill-rule="evenodd" clip-rule="evenodd" d="M299.837 188.717C299.837 188.716 299.837 188.716 299.837 188.715C299.837 188.716 299.837 188.716 299.837 188.717" fill="#C5CFD6"/>
<path fill-rule="evenodd" clip-rule="evenodd" d="M299.84 188.726C299.843 188.739 299.824 188.674 299.84 188.726Z" fill="#C5CFD6"/>
<path fill-rule="evenodd" clip-rule="evenodd" d="M299.837 188.718L299.836 188.715C299.837 188.716 299.837 188.717 299.837 188.718" fill="#C5CFD6"/>
<rect width="100" height="66" rx="4" transform="matrix(-0.970296 -0.241922 -0.241922 0.970296 361.608 148.676)" fill="#A26638"/>
<path fill-rule="evenodd" clip-rule="evenodd" d="M320.274 158.234L336.887 210.815L280.92 196.861L320.274 158.234Z" fill="black" fill-opacity="0.2"/>
<path fill-rule="evenodd" clip-rule="evenodd" d="M288.376 163.256L304.79 202.812L255.312 190.476L288.376 163.256Z" fill="black" fill-opacity="0.2"/>
<path fill-rule="evenodd" clip-rule="evenodd" d="M277.676 161.063C272.586 159.793 269.488 154.638 270.757 149.547C272.026 144.456 277.182 141.358 282.273 142.627C287.364 143.896 290.462 149.052 289.192 154.143C287.923 159.234 282.767 162.332 277.676 161.063Z" fill="white"/>
</g>
<defs>
<clipPath id="clip0">
<rect width="533" height="493" fill="white" transform="matrix(-1 0 0 1 533 0)"/>
</clipPath>
<clipPath id="clip1">
<rect width="396" height="346" fill="white" transform="translate(8.42822 162.49) rotate(-24.1015)"/>
</clipPath>
<clipPath id="clip2">
<rect width="364" height="283" fill="white" transform="translate(40.5928 195.208) rotate(-24.1015)"/>
</clipPath>
<clipPath id="clip3">
<rect width="70" height="194" fill="white" transform="translate(345.307 156.393) rotate(-24.1015)"/>
</clipPath>
<clipPath id="clip4">
<rect width="34" height="158" fill="white" transform="translate(369.088 165.474) rotate(-24.1015)"/>
</clipPath>
<clipPath id="clip5">
<rect width="50" height="52" fill="white" transform="translate(324.216 84.761) rotate(-24.1015)"/>
</clipPath>
<clipPath id="clip6">
<rect width="286" height="282" fill="white" transform="translate(40.5928 195.208) rotate(-24.1015)"/>
</clipPath>
<clipPath id="clip7">
<rect width="286" height="47" fill="white" transform="translate(40.5928 195.208) rotate(-24.1015)"/>
</clipPath>
<clipPath id="clip8">
<rect width="228" height="19" fill="white" transform="translate(54.5659 204.404) rotate(-24.1015)"/>
</clipPath>
<clipPath id="clip9">
<rect width="286" height="39" fill="white" transform="translate(63.0522 245.414) rotate(-24.1015)"/>
</clipPath>
<clipPath id="clip10">
<rect width="228" height="16" fill="white" transform="translate(76.0454 252.418) rotate(-24.1015)"/>
</clipPath>
<clipPath id="clip11">
<rect width="286" height="39" fill="white" transform="translate(82.2451 288.316) rotate(-24.1015)"/>
</clipPath>
<clipPath id="clip12">
<rect width="228" height="16" fill="white" transform="translate(95.2383 295.321) rotate(-24.1015)"/>
</clipPath>
<clipPath id="clip13">
<rect width="286" height="39" fill="white" transform="translate(139.823 417.024) rotate(-24.1015)"/>
</clipPath>
<clipPath id="clip14">
<rect width="228" height="16" fill="white" transform="translate(152.816 424.029) rotate(-24.1015)"/>
</clipPath>
<clipPath id="clip15">
<rect width="286" height="39" fill="white" transform="translate(120.63 374.122) rotate(-24.1015)"/>
</clipPath>
<clipPath id="clip16">
<rect width="228" height="16" fill="white" transform="translate(133.624 381.127) rotate(-24.1015)"/>
</clipPath>
<clipPath id="clip17">
<rect width="286" height="39" fill="white" transform="translate(101.438 331.219) rotate(-24.1015)"/>
</clipPath>
<clipPath id="clip18">
<rect width="228" height="16" fill="white" transform="translate(114.431 338.224) rotate(-24.1015)"/>
</clipPath>
</defs>
</svg>
