<?xml version="1.0" encoding="utf-8"?>
<!-- Generator: Adobe Illustrator 22.0.1, SVG Export Plug-In . SVG Version: 6.00 Build 0)  -->
<svg version="1.1" id="Layer_1" xmlns="http://www.w3.org/2000/svg" xmlns:xlink="http://www.w3.org/1999/xlink" x="0px" y="0px"
	 viewBox="0 0 770 469" style="enable-background:new 0 0 770 469;" xml:space="preserve">
<style type="text/css">
	.st0{fill:#89C5CC;}
	.st1{fill:#DDE3E9;}
	.st2{fill:#C1DEE2;}
	.st3{fill:#A26638;}
	.st4{opacity:0.1;fill:#703B0E;enable-background:new    ;}
	.st5{fill:#F2F2F2;}
	.st6{fill:#FFFFFF;}
	.st7{clip-path:url(#SVGID_2_);}
	.st8{fill:#C5CFD6;}
	.st9{clip-path:url(#SVGID_4_);}
	.st10{clip-path:url(#SVGID_6_);}
	.st11{fill:#AFB9C5;}
	.st12{clip-path:url(#SVGID_8_);}
	.st13{clip-path:url(#SVGID_10_);}
	.st14{clip-path:url(#SVGID_12_);}
	.st15{clip-path:url(#SVGID_14_);}
	.st16{clip-path:url(#SVGID_16_);}
	.st17{clip-path:url(#SVGID_18_);}
	.st18{clip-path:url(#SVGID_20_);}
	.st19{clip-path:url(#SVGID_22_);}
	.st20{clip-path:url(#SVGID_24_);}
	.st21{clip-path:url(#SVGID_26_);}
	.st22{clip-path:url(#SVGID_28_);}
	.st23{fill:#B28B67;}
	.st24{fill:#191847;}
	.st25{fill:#00383D;}
	.st26{fill:#E4E4E4;}
	.st27{fill:#2F6267;}
	.st28{fill:#FFFFFF;filter:url(#Adobe_OpacityMaskFilter);}
	.st29{mask:url(#mask0_1_);}
	.st30{fill-opacity:0.2;}
	.st31{fill:#997659;}
	.st32{fill:#69A1AC;}
	.st33{fill:#1C9FA8;}
</style>
<path class="st0" d="M759.5,78.7c-0.9-0.6-2.9-0.8-3.8-1c-3.9-0.8-8-1.1-12-1.1c-12.4,0-25,1.2-37.1,3.3c-7.7,1.3-17.1,5.8-24.8,3.4
	c-13.4-4.3-26.9-4-39.7,2c-11.6,5.6-20.4,16.1-25.6,27.5c-0.8,1.7-3.9,8.1-4.8,12.3c-0.4,0.9-0.7,1.8-1.1,2.6
	c-0.9,2.5-1.8,5.1-2.6,7.7c-0.3,1.1-1.2,3.5-0.2,4c-1.6,2.9-3,6-4.2,9.1c-3.4,9.1-7.2,19.1-8.4,28.7c-0.4,3.6-0.5,7.2,0,10.7
	c0.2,1.8,0.1,5.3,1.3,6.7c2.5,2.9,3.8-1.1,3.6-3c-2.2-14.5,2-28.1,7.1-41.7c3.2-8.8,8.6-16.9,14.5-24.2c4.8-5.9,10-10.6,16.6-14.5
	c8.1-4.8,16.7-8.7,25.3-12.6c5.6-2.6,11.3-5,17.1-7.2c1.3-0.5,3.3-1.7,4.7-1.8c3,0,7.3,2.2,10.2,3c9.6,2.7,19.3,6.2,29.2,7.6
	c6.4,0.9,12.3-0.1,18.3-2.2c0.6-0.2,1.6-0.8,2.9-1.6c4.4-1.7,8.6-3.8,12.2-6.9c2.1-1.8,4-4.1,5.7-6.2c0.5-0.6,0.7-1.3,0.8-2
	c0.4-0.2,0.7-0.4,0.7-0.7C766,78.6,762,78.5,759.5,78.7"/>
<path class="st1" d="M114.7,227.5c-1.4,1.1-2.8,2.3-4.1,3.5c-1,0.9-2.8,2-3.2,3.4c-0.4,1.4,0.8,2.8,1.8,3.7c5,4.6,10.6,7.7,17.5,8.2
	c10.7,0.8,19.9-1.9,29.2-7.3c6.5-3.8,10.8-9.3,11.7-16.8c7.7,3.2,15.2,7.6,21.6,13.1c3.1,2.7,5.8,5.7,8.3,9c1.6,2.1,3.1,4.3,4.6,6.5
	c0.6,1,1.3,2.7,2.3,3.2c1.2,0.7,2.7-0.4,2.6-1.7c-0.1-1.1-1.3-2.4-1.8-3.3c-0.9-1.5-1.9-3-2.9-4.5c-1.6-2.4-3.3-4.8-5.1-7
	c-4.1-5-9.4-9.2-14.8-12.7c-10.4-6.8-21.8-11.1-34.5-11.5c-7.8-0.2-14.3,2.4-21,6.4C122.7,222,118.4,224.4,114.7,227.5"/>
<path class="st2" d="M215.8,194.6c-8.1-8.4-16.3-16.6-25.3-24c-5.3-4.3-11-8.3-16.5-12.4c0.6,0.6,1.3,1.1,1.9,1.7
	c-1.7-1.2-4-1.8-5.8-2.9c-2-1.2-4-2.6-5.9-4c-3.7-2.7-7.4-5.5-11.2-8.1c-4.3-2.9-8.7-5.5-13-8.3c-3.7-2.3-7.4-4.9-11.4-6.8
	c-2.1-1-4.3-2.3-6.5-3.4c-0.7-0.4-8.1-5-8-5c0.4-0.3,4.1,1.4,4.7,1.7c1.7,0.7,3.3,1.5,4.9,2.3c-0.9-1.7-1.6-3.6-2-5.5
	c-0.1-0.6-1.1-4.9-0.6-5.3c0.2-0.2,2.6,7.5,2.7,8.3c0.1,0.6,0.1,1.5,0.3,2c0.3,0.9,0.3,0.6,1,1.2c1.3,1,3,1.5,4.4,2.3
	c0.7,0.4,3.1,2.1,4.5,2.6c4.2,2.1,8.5,5.2,12.5,7.8c-1.1-2-1.9-4.1-2.4-6.2c-0.1-0.5-1.6-5.1-1.3-5.4c0.4-0.3,3.3,6.8,3.4,7.4
	c0.3,1.2,0.4,2.6,0.8,3.8c0.4,1.3,1.8,1.8,3,2.6c4.5,2.8,8.8,5.9,13.1,9c4.6-8.3-0.7-18.2-5.2-25.2c-3.3-5-7.6-9.3-12.3-13
	c-6.2-5-13.2-9-20.3-12.6c-8.2-4.2-17.1-6.9-26.3-8.1c-4.8-0.6-9.8-0.6-14.6-0.4c-2.4,0.1-4.7,0.4-6.9,1.2c-1,0.4-2,0.8-3,1.3
	c-0.7,0.4-2.5,0.8-2.9,1.3c-3.5,4.5-5.3,9.1-5,14.8c0.3,5.4,2,10.8,4.3,15.6c2.6,5.4,5.9,10.2,10.2,14.3c3.3,3.1,7,5.8,10.7,8.5
	c13.1,9.5,29.6,17.8,46.5,15.7c5.5-0.7,10.7-2.6,15.5-5.2c1.1-0.6,2.3-1.2,3.4-2c0.7-0.5,2.7-2.7,3.4-2.8c1-0.1,3.2,1.9,4.1,2.6
	c7.2,4.7,14.2,9.7,21,14.9c7.3,5.5,14.2,11.4,20.9,17.6c2.9,2.6,5.7,5.3,8.5,8c0.6,0.6,2.2,3,3.4,3.1c0.7,0.1,1.2-0.6,1.1-1.2
	C219.1,197.2,216.6,195.4,215.8,194.6"/>
<path class="st3" d="M682.5,162.1c-3.1-0.7-6.6-0.6-9.8-0.6c-17.2,0.2-34.1,8.4-45,21.4c-9.4,11.1-11.9,24.8-13.8,38.7
	c-0.2,1.4-0.3,2.8-0.4,4.1c0,0.3-0.1,0.6-0.1,0.8c-0.7,0.6-1.1,1.4-0.7,2.2c-1.6,3.5-3,7.1-4.1,10.8c-3.4,10.9-6.9,22-4.8,33.5
	c0.5-6.3,1.6-12.8,2.8-19c0.1-0.4,0.2-0.7,0.2-1.1c0,0,0-0.1,0-0.1c0.4-1.9,1-3.7,1.7-5.6c0,0,0,0,0-0.1c0.1-0.2,0.2-0.5,0.3-0.7
	c0.2-0.5,0.4-1,0.6-1.5c0.1-0.2,0.1-0.3,0.2-0.5c1-2.5,1.5-5.3,2.4-7.9c0.2-0.6,0.4-1.2,0.7-1.8c0,0,0-0.1,0-0.1
	c0.7-1.6,1.4-3.1,2.1-4.7c0.4-0.3,0.6-1.1,1-1.8c0.1-0.1,0.6-1.1,0.8-1.6c0.4-0.9,0.9-1.7,1.3-2.6c0,0,0,0,0,0
	c0.5-0.8,0.9-1.7,1.4-2.5c0.1-0.2,0.2-0.4,0.3-0.5c0.2-0.3,0.3-0.6,0.5-0.9c1.5-2.7,3.1-5.3,4.8-7.9c0.6-0.9,2-2.3,2.3-3.3
	c0,0,0-0.1,0-0.1c3.6-5.1,7.7-9.7,12.7-13.4c-0.6,0.6-1.9,2.9-2.2,3.3c-1,1.3-2.2,2.6-3.3,3.8c-2,2.3-4,4.6-5.7,7
	c-3.2,4.5-6,9.2-8.6,14.1c0,0-0.1,0.1-0.1,0.1c-1.3,1.6-2.1,4.1-3.1,5.9c3.7-1.7,7.9-2.9,11.7-4.4c3.8-1.5,7.5-3.2,11.1-5.2
	c4.8-2.7,9.7-5.7,14.2-9.1c5.2-3.2,9.5-7.6,13.3-12.2c4.5-5.5,8.7-11,11.3-17.6c1.3-3.3,2.3-6.7,2.8-10.1c0-0.1,0.1-0.3,0.1-0.5
	c0.6-1.2,1.1-2.4,1.6-3.7C684,165,685.7,162.8,682.5,162.1"/>
<path class="st0" d="M129.6,180.8c-1.1-1.1-2.3-2-3.7-2.7c-0.4-0.2-3-1.3-3.2-1.1C122.4,177.6,129.3,180.4,129.6,180.8 M142.2,173.7
	c0,0,0.9,1.5,1.2,1.9c0.5,0.9,1,1.9,1.5,2.8C144.2,176.8,143.5,175.2,142.2,173.7 M78,185.4c-0.9,0.3-1.9-0.8-0.8-1
	c0.9-0.2,0.9-0.3,1.3-0.9c0.3-0.6,0.5-1.2,0.8-1.8c0.6-1.2,1.3-2.4,2.2-3.5c1.9-2.4,4.2-4.4,6.7-6.2c4.5-3,9.5-5.8,14.8-7.2
	c8.5-2.2,18.1-2.3,26.6-0.8c5.3,0.9,10.1,2.6,13.6,6.5c1.7,1.9,3.1,4.2,3.7,6.7c0.2,0.7,0.1,1.4,0.3,2c0.3,1,0.2,0.7,1.4,0.9
	c1.4,0.2,2.7,0.4,4.1,0.6c3.6,0.6,7.2,1.2,10.7,2.1c1.2,0.3,2.3,0.7,3.4,1.1c0.8,0.3,4.1,1.4,4.5,2.3c0.7,1.7-1.6,0.9-2.3,0.5
	c-0.6-0.3-1.2-0.6-1.9-0.9c-1.6-0.7-3.3-1.2-5-1.6c-1.8-0.5-3.7-0.8-5.6-1.1c-1.7-0.3-3.5-0.6-5.3-0.9c-1-0.2-2-0.3-2.9-0.4
	c-0.3-0.1-0.9-0.3-0.9,0.1c-2.1-0.4-4.3-0.3-6.4-0.4c-2.6-0.1-5.1-0.2-7.7-0.1c-1.9,0.1-3.7,0.2-5.6,0.4c-1.1,0.1-2.1,0.3-3.2,0.6
	c-0.6,0.1-2.9,0.4-3.2,0.9c0.1-0.2,2.7,0,3,0c1.3,0,2.6-0.2,3.8-0.3c2.4-0.2,4.8-0.4,7.1-0.4c0,0.4-1.6,1.1-2,1.3
	c-0.9,0.6-1.7,1.2-2.5,1.9c-1.4,1.2-3.1,2.7-4.1,4.1c0.3-0.4,1.7-1,2.2-1.3c0.8-0.5,1.6-1.1,2.3-1.7c0.7-0.5,1.3-1.1,2-1.7
	c0.6-0.6,1.5-1.8,2.3-2.2c0,0,0.4,0.2,0.6,0.1c0.2-0.1,0.5-0.5,0.5-0.6c0.8-0.3,2.2,0.1,3,0.1c2.1,0.1,4.2,0.2,6.3,0.3
	c0.7,0,1.2-0.1,1.4,0.3c0.3,0.5-0.2,1.7-0.4,2.2c-0.5,1.9-1.4,3.6-2.8,5.1c-2.7,2.8-5.9,4.6-9.6,5.8c-14.1,4.7-29.2,6.6-43.3,1.7
	C85.8,196.1,77,192.5,78,185.4"/>
<path class="st4" d="M662.9,376.3c8.9,55.2-206,91.2-390.9,66C87,417.2,2.2,319.1,90.5,266.9C178.7,214.6,654.1,321.1,662.9,376.3z"
	/>
<path class="st5" d="M189.1,18.5H321c4.1,0,7.4,3.3,7.4,7.4v263.8c0,4.1-3.3,7.4-7.4,7.4H189.1c-4.1,0-7.4-3.3-7.4-7.4V25.9
	C181.7,21.9,185,18.5,189.1,18.5z"/>
<path class="st6" d="M254.6,279.6c7.6,0,13.8-6.2,13.8-13.8s-6.2-13.8-13.8-13.8s-13.8,6.2-13.8,13.8S247,279.6,254.6,279.6z"/>
<path class="st6" d="M242.6,37c1,0,1.8-0.8,1.8-1.8s-0.8-1.8-1.8-1.8s-1.8,0.8-1.8,1.8S241.6,37,242.6,37z"/>
<path class="st6" d="M250.9,33.3h15.7c1,0,1.8,0.8,1.8,1.8l0,0c0,1-0.8,1.8-1.8,1.8h-15.7c-1,0-1.8-0.8-1.8-1.8l0,0
	C249.1,34.1,249.9,33.3,250.9,33.3z"/>
<path class="st6" d="M198.3,44.4h113.4c2,0,3.7,1.7,3.7,3.7v42.4c0,2-1.7,3.7-3.7,3.7H198.3c-2,0-3.7-1.7-3.7-3.7V48.1
	C194.7,46,196.3,44.4,198.3,44.4z"/>
<g>
	<defs>
		<rect id="SVGID_1_" x="230.6" y="59.3" width="67.3" height="19.9"/>
	</defs>
	<clipPath id="SVGID_2_">
		<use xlink:href="#SVGID_1_"  style="overflow:visible;"/>
	</clipPath>
	<g class="st7">
		<path class="st1" d="M233.4,59.3h61.8c1.5,0,2.8,1.2,2.8,2.8V64c0,1.5-1.2,2.8-2.8,2.8h-61.8c-1.5,0-2.8-1.2-2.8-2.8v-1.9
			C230.6,60.6,231.9,59.3,233.4,59.3z"/>
		<path class="st1" d="M233.4,71.8h39.7c1.5,0,2.8,1.2,2.8,2.8v1.9c0,1.5-1.2,2.8-2.8,2.8h-39.7c-1.5,0-2.8-1.2-2.8-2.8v-1.9
			C230.6,73,231.9,71.8,233.4,71.8z"/>
	</g>
</g>
<path class="st8" d="M214,80.3c6.1,0,11.1-5,11.1-11.1s-5-11.1-11.1-11.1s-11.1,5-11.1,11.1S207.9,80.3,214,80.3z"/>
<path class="st6" d="M198.3,101.6h113.4c2,0,3.7,1.7,3.7,3.7v31.4c0,2-1.7,3.7-3.7,3.7H198.3c-2,0-3.7-1.7-3.7-3.7v-31.4
	C194.7,103.2,196.3,101.6,198.3,101.6z"/>
<g>
	<defs>
		<rect id="SVGID_3_" x="230.6" y="113.2" width="67.3" height="15.5"/>
	</defs>
	<clipPath id="SVGID_4_">
		<use xlink:href="#SVGID_3_"  style="overflow:visible;"/>
	</clipPath>
	<g class="st9">
		<path class="st1" d="M233.4,113.2h61.8c1.5,0,2.8,1.2,2.8,2.8v0.3c0,1.5-1.2,2.8-2.8,2.8h-61.8c-1.5,0-2.8-1.2-2.8-2.8v-0.3
			C230.6,114.4,231.9,113.2,233.4,113.2z"/>
		<path class="st1" d="M233.4,122.9h39.7c1.5,0,2.8,1.2,2.8,2.8v0.3c0,1.5-1.2,2.8-2.8,2.8h-39.7c-1.5,0-2.8-1.2-2.8-2.8v-0.3
			C230.6,124.1,231.9,122.9,233.4,122.9z"/>
	</g>
</g>
<path class="st8" d="M214,132c6.1,0,11.1-5,11.1-11.1c0-6.1-5-11.1-11.1-11.1s-11.1,5-11.1,11.1C203,127,207.9,132,214,132z"/>
<path class="st6" d="M198.3,147.7h113.4c2,0,3.7,1.7,3.7,3.7v31.4c0,2-1.7,3.7-3.7,3.7H198.3c-2,0-3.7-1.7-3.7-3.7v-31.4
	C194.7,149.3,196.3,147.7,198.3,147.7z"/>
<g>
	<defs>
		<rect id="SVGID_5_" x="230.6" y="159.3" width="67.3" height="15.5"/>
	</defs>
	<clipPath id="SVGID_6_">
		<use xlink:href="#SVGID_5_"  style="overflow:visible;"/>
	</clipPath>
	<g class="st10">
		<path class="st1" d="M233.4,159.3h61.8c1.5,0,2.8,1.2,2.8,2.8v0.3c0,1.5-1.2,2.8-2.8,2.8h-61.8c-1.5,0-2.8-1.2-2.8-2.8v-0.3
			C230.6,160.5,231.9,159.3,233.4,159.3z"/>
		<path class="st1" d="M233.4,169h39.7c1.5,0,2.8,1.2,2.8,2.8v0.3c0,1.5-1.2,2.8-2.8,2.8h-39.7c-1.5,0-2.8-1.2-2.8-2.8v-0.3
			C230.6,170.2,231.9,169,233.4,169z"/>
	</g>
</g>
<path class="st11" d="M214,178.1c6.1,0,11.1-5,11.1-11.1s-5-11.1-11.1-11.1s-11.1,5-11.1,11.1S207.9,178.1,214,178.1z"/>
<path class="st6" d="M198.3,193.8h113.4c2,0,3.7,1.7,3.7,3.7v31.4c0,2-1.7,3.7-3.7,3.7H198.3c-2,0-3.7-1.7-3.7-3.7v-31.4
	C194.7,195.4,196.3,193.8,198.3,193.8z"/>
<g>
	<defs>
		<rect id="SVGID_7_" x="230.6" y="205.4" width="67.3" height="15.5"/>
	</defs>
	<clipPath id="SVGID_8_">
		<use xlink:href="#SVGID_7_"  style="overflow:visible;"/>
	</clipPath>
	<g class="st12">
		<path class="st1" d="M233.4,205.4h61.8c1.5,0,2.8,1.2,2.8,2.8v0.3c0,1.5-1.2,2.8-2.8,2.8h-61.8c-1.5,0-2.8-1.2-2.8-2.8v-0.3
			C230.6,206.6,231.9,205.4,233.4,205.4z"/>
		<path class="st1" d="M233.4,215.1h39.7c1.5,0,2.8,1.2,2.8,2.8v0.3c0,1.5-1.2,2.8-2.8,2.8h-39.7c-1.5,0-2.8-1.2-2.8-2.8v-0.3
			C230.6,216.3,231.9,215.1,233.4,215.1z"/>
	</g>
</g>
<path class="st8" d="M214,224.2c6.1,0,11.1-5,11.1-11.1s-5-11.1-11.1-11.1s-11.1,5-11.1,11.1S207.9,224.2,214,224.2z"/>
<path class="st0" d="M209.5,243.6c-1.2,0-2.4,0-3.7,0.1c-0.9,0-2.4-0.1-3.1,0.4c-0.8,0.6-0.8,1.8-0.6,2.7c0.7,4.6,2.3,8.7,5.8,11.9
	c5.3,5,11.4,7.6,18.6,8.7c5.1,0.8,9.7-0.3,13.5-3.9c2.7,5.1,4.8,10.6,5.8,16.3c0.5,2.8,0.7,5.5,0.6,8.4c-0.1,1.8-0.2,3.6-0.4,5.4
	c-0.1,0.8-0.5,2-0.2,2.7c0.4,0.9,1.6,1,2.1,0.2c0.5-0.6,0.4-1.8,0.5-2.6c0.2-1.2,0.3-2.4,0.4-3.7c0.2-2,0.3-4,0.3-5.9
	c0-4.5-1-8.9-2.4-13.2c-2.6-8.1-6.8-15.3-13.4-21c-4-3.5-8.7-4.9-13.9-5.6C216.2,244.1,212.8,243.6,209.5,243.6"/>
<path class="st0" d="M228.4,275.9c-13.2,0-22.1,10.6-26.3,21.7c-1.6,4.2-2,8.7-2.6,13.1c-0.2,1.4-0.1,3.5-0.7,4.8
	c-0.2,0.5-0.7,0.6-0.5,1.2c0.1,0.4,0.4,0.6,0.8,0.7c0.8,0.2,2-0.8,2.7-1.1c5.9-3,9.8-7.5,12.9-13.1c2-3.5,3.9-7.1,5.1-10.9
	c0.7-2.3,1.1-4.8,1.4-7.2c0.1-1,0.2-1.9,0.2-2.9c0-0.9-0.4-1.5-0.8-2.3c4.4-1.7,9.4-2.1,13.8-0.4c4.1,1.6,7.5,4.7,9.5,8.6
	c0.5,1,0.9,2.1,1.2,3.2c0.2,0.7,0.2,1.6,0.5,2.3c0.8,1.6,2.6,0.5,2.4-0.9c-0.5-4-2.8-8.1-5.7-10.9
	C238.7,278.1,233.6,275.9,228.4,275.9"/>
<path class="st1" d="M250,42.5h131.9c4.1,0,7.4,3.3,7.4,7.4v263.8c0,4.1-3.3,7.4-7.4,7.4H250c-4.1,0-7.4-3.3-7.4-7.4V49.9
	C242.6,45.8,245.9,42.5,250,42.5z"/>
<path class="st6" d="M315.5,303.5c7.6,0,13.8-6.2,13.8-13.8c0-7.6-6.2-13.8-13.8-13.8c-7.6,0-13.8,6.2-13.8,13.8
	C301.6,297.3,307.8,303.5,315.5,303.5z"/>
<path class="st6" d="M303.5,61c1,0,1.8-0.8,1.8-1.8c0-1-0.8-1.8-1.8-1.8s-1.8,0.8-1.8,1.8C301.6,60.2,302.5,61,303.5,61z"/>
<path class="st6" d="M311.8,57.3h15.7c1,0,1.8,0.8,1.8,1.8l0,0c0,1-0.8,1.8-1.8,1.8h-15.7c-1,0-1.8-0.8-1.8-1.8l0,0
	C309.9,58.1,310.8,57.3,311.8,57.3z"/>
<path class="st6" d="M259.2,68.4h113.4c2,0,3.7,1.7,3.7,3.7v42.4c0,2-1.7,3.7-3.7,3.7H259.2c-2,0-3.7-1.7-3.7-3.7V72
	C255.5,70,257.2,68.4,259.2,68.4z"/>
<g>
	<defs>
		<rect id="SVGID_9_" x="263.8" y="83.3" width="67.3" height="19.9"/>
	</defs>
	<clipPath id="SVGID_10_">
		<use xlink:href="#SVGID_9_"  style="overflow:visible;"/>
	</clipPath>
	<g class="st13">
		<path class="st1" d="M266.6,83.3h61.8c1.5,0,2.8,1.2,2.8,2.8V88c0,1.5-1.2,2.8-2.8,2.8h-61.8c-1.5,0-2.8-1.2-2.8-2.8v-1.9
			C263.8,84.5,265.1,83.3,266.6,83.3z"/>
		<path class="st1" d="M266.6,95.7h39.7c1.5,0,2.8,1.2,2.8,2.8v1.9c0,1.5-1.2,2.8-2.8,2.8h-39.7c-1.5,0-2.8-1.2-2.8-2.8v-1.9
			C263.8,97,265.1,95.7,266.6,95.7z"/>
	</g>
</g>
<path class="st1" d="M363.4,99.7c3.6,0,6.5-2.9,6.5-6.5c0-3.6-2.9-6.5-6.5-6.5s-6.5,2.9-6.5,6.5C357,96.8,359.9,99.7,363.4,99.7z"/>
<path class="st5" d="M363.4,96c1.5,0,2.8-1.2,2.8-2.8c0-1.5-1.2-2.8-2.8-2.8c-1.5,0-2.8,1.2-2.8,2.8C360.7,94.8,361.9,96,363.4,96z"
	/>
<path class="st6" d="M259.2,125.5h113.4c2,0,3.7,1.7,3.7,3.7v31.4c0,2-1.7,3.7-3.7,3.7H259.2c-2,0-3.7-1.7-3.7-3.7v-31.4
	C255.5,127.2,257.2,125.5,259.2,125.5z"/>
<g>
	<defs>
		<rect id="SVGID_11_" x="291.5" y="137.2" width="67.3" height="15.5"/>
	</defs>
	<clipPath id="SVGID_12_">
		<use xlink:href="#SVGID_11_"  style="overflow:visible;"/>
	</clipPath>
	<g class="st14">
		<path class="st1" d="M294.3,137.2h61.8c1.5,0,2.8,1.2,2.8,2.8v0.3c0,1.5-1.2,2.8-2.8,2.8h-61.8c-1.5,0-2.8-1.2-2.8-2.8v-0.3
			C291.5,138.4,292.7,137.2,294.3,137.2z"/>
		<path class="st1" d="M294.3,146.8h39.7c1.5,0,2.8,1.2,2.8,2.8v0.3c0,1.5-1.2,2.8-2.8,2.8h-39.7c-1.5,0-2.8-1.2-2.8-2.8v-0.3
			C291.5,148.1,292.7,146.8,294.3,146.8z"/>
	</g>
</g>
<path class="st8" d="M274.9,156c6.1,0,11.1-5,11.1-11.1s-5-11.1-11.1-11.1c-6.1,0-11.1,5-11.1,11.1S268.8,156,274.9,156z"/>
<path class="st6" d="M259.2,171.7h113.4c2,0,3.7,1.7,3.7,3.7v31.4c0,2-1.7,3.7-3.7,3.7H259.2c-2,0-3.7-1.7-3.7-3.7v-31.4
	C255.5,173.3,257.2,171.7,259.2,171.7z"/>
<g>
	<defs>
		<rect id="SVGID_13_" x="263.8" y="183.3" width="67.3" height="15.5"/>
	</defs>
	<clipPath id="SVGID_14_">
		<use xlink:href="#SVGID_13_"  style="overflow:visible;"/>
	</clipPath>
	<g class="st15">
		<path class="st1" d="M266.6,183.3h61.8c1.5,0,2.8,1.2,2.8,2.8v0.3c0,1.5-1.2,2.8-2.8,2.8h-61.8c-1.5,0-2.8-1.2-2.8-2.8V186
			C263.8,184.5,265.1,183.3,266.6,183.3z"/>
		<path class="st11" d="M266.6,193h39.7c1.5,0,2.8,1.2,2.8,2.8v0.3c0,1.5-1.2,2.8-2.8,2.8h-39.7c-1.5,0-2.8-1.2-2.8-2.8v-0.3
			C263.8,194.2,265.1,193,266.6,193z"/>
	</g>
</g>
<path class="st1" d="M363.4,197.5c3.6,0,6.5-2.9,6.5-6.5c0-3.6-2.9-6.5-6.5-6.5s-6.5,2.9-6.5,6.5C357,194.6,359.9,197.5,363.4,197.5
	z"/>
<path class="st5" d="M363.4,193.8c1.5,0,2.8-1.2,2.8-2.8c0-1.5-1.2-2.8-2.8-2.8c-1.5,0-2.8,1.2-2.8,2.8
	C360.7,192.5,361.9,193.8,363.4,193.8z"/>
<path class="st6" d="M259.2,217.8h113.4c2,0,3.7,1.7,3.7,3.7v31.4c0,2-1.7,3.7-3.7,3.7H259.2c-2,0-3.7-1.7-3.7-3.7v-31.4
	C255.5,219.4,257.2,217.8,259.2,217.8z"/>
<g>
	<defs>
		<rect id="SVGID_15_" x="291.5" y="229.4" width="67.3" height="15.5"/>
	</defs>
	<clipPath id="SVGID_16_">
		<use xlink:href="#SVGID_15_"  style="overflow:visible;"/>
	</clipPath>
	<g class="st16">
		<path class="st1" d="M294.3,229.4h61.8c1.5,0,2.8,1.2,2.8,2.8v0.3c0,1.5-1.2,2.8-2.8,2.8h-61.8c-1.5,0-2.8-1.2-2.8-2.8v-0.3
			C291.5,230.6,292.7,229.4,294.3,229.4z"/>
		<path class="st1" d="M294.3,239.1h39.7c1.5,0,2.8,1.2,2.8,2.8v0.3c0,1.5-1.2,2.8-2.8,2.8h-39.7c-1.5,0-2.8-1.2-2.8-2.8v-0.3
			C291.5,240.3,292.7,239.1,294.3,239.1z"/>
	</g>
</g>
<path class="st8" d="M274.9,248.2c6.1,0,11.1-5,11.1-11.1s-5-11.1-11.1-11.1c-6.1,0-11.1,5-11.1,11.1S268.8,248.2,274.9,248.2z"/>
<path class="st5" d="M310.9,65.6h294.2c4.1,0,7.4,3.3,7.4,7.4v304.4c0,4.1-3.3,7.4-7.4,7.4H310.9c-4.1,0-7.4-3.3-7.4-7.4V73
	C303.5,68.9,306.8,65.6,310.9,65.6z"/>
<path class="st6" d="M540.5,105.2h49.8c4.1,0,7.4,3.3,7.4,7.4v60c0,4.1-3.3,7.4-7.4,7.4h-49.8c-4.1,0-7.4-3.3-7.4-7.4v-60
	C533.1,108.6,536.4,105.2,540.5,105.2z"/>
<path class="st1" d="M565.4,148.6c8.2,0,14.8-6.6,14.8-14.8s-6.6-14.8-14.8-14.8s-14.8,6.6-14.8,14.8S557.3,148.6,565.4,148.6z"/>
<path class="st1" d="M545.1,152.3h40.6c1.5,0,2.8,1.2,2.8,2.8l0,0c0,1.5-1.2,2.8-2.8,2.8h-40.6c-1.5,0-2.8-1.2-2.8-2.8l0,0
	C542.4,153.5,543.6,152.3,545.1,152.3z"/>
<path class="st1" d="M552.5,161.5h25.8c1.5,0,2.8,1.2,2.8,2.8l0,0c0,1.5-1.2,2.8-2.8,2.8h-25.8c-1.5,0-2.8-1.2-2.8-2.8l0,0
	C549.7,162.7,551,161.5,552.5,161.5z"/>
<path class="st8" d="M303.5,73c0-4.1,3.3-7.4,7.4-7.4h294.2c4.1,0,7.4,3.3,7.4,7.4v17.5h-309V73z"/>
<path class="st5" d="M315.5,82.2c2,0,3.7-1.7,3.7-3.7c0-2-1.7-3.7-3.7-3.7c-2,0-3.7,1.7-3.7,3.7C311.8,80.5,313.4,82.2,315.5,82.2z"
	/>
<path class="st5" d="M326.5,82.2c2,0,3.7-1.7,3.7-3.7c0-2-1.7-3.7-3.7-3.7c-2,0-3.7,1.7-3.7,3.7C322.9,80.5,324.5,82.2,326.5,82.2z"
	/>
<path class="st5" d="M337.6,82.2c2,0,3.7-1.7,3.7-3.7c0-2-1.7-3.7-3.7-3.7s-3.7,1.7-3.7,3.7C333.9,80.5,335.6,82.2,337.6,82.2z"/>
<path class="st6" d="M540.5,187.3h49.8c4.1,0,7.4,3.3,7.4,7.4v164.2c0,4.1-3.3,7.4-7.4,7.4h-49.8c-4.1,0-7.4-3.3-7.4-7.4V194.7
	C533.1,190.6,536.4,187.3,540.5,187.3z"/>
<path class="st1" d="M553.4,203.9h24c2,0,3.7,1.7,3.7,3.7v16.6c0,2-1.7,3.7-3.7,3.7h-24c-2,0-3.7-1.7-3.7-3.7v-16.6
	C549.7,205.6,551.4,203.9,553.4,203.9z"/>
<path class="st11" d="M553.4,235.3h24c2,0,3.7,1.7,3.7,3.7v15.7c0,2-1.7,3.7-3.7,3.7h-24c-2,0-3.7-1.7-3.7-3.7V239
	C549.7,236.9,551.4,235.3,553.4,235.3z"/>
<path class="st1" d="M553.4,265.7h24c2,0,3.7,1.7,3.7,3.7v15.7c0,2-1.7,3.7-3.7,3.7h-24c-2,0-3.7-1.7-3.7-3.7v-15.7
	C549.7,267.4,551.4,265.7,553.4,265.7z"/>
<path class="st1" d="M553.4,326.6h24c2,0,3.7,1.7,3.7,3.7V346c0,2-1.7,3.7-3.7,3.7h-24c-2,0-3.7-1.7-3.7-3.7v-15.7
	C549.7,328.3,551.4,326.6,553.4,326.6z"/>
<path class="st8" d="M553.4,296.2h24c2,0,3.7,1.7,3.7,3.7v15.7c0,2-1.7,3.7-3.7,3.7h-24c-2,0-3.7-1.7-3.7-3.7v-15.7
	C549.7,297.8,551.4,296.2,553.4,296.2z"/>
<path class="st6" d="M321.9,106.2h200.1c2,0,3.7,1.7,3.7,3.7v36c0,2-1.7,3.7-3.7,3.7H321.9c-2,0-3.7-1.7-3.7-3.7v-36
	C318.2,107.8,319.9,106.2,321.9,106.2z"/>
<g>
	<defs>
		<rect id="SVGID_17_" x="326.5" y="119.2" width="154" height="17.3"/>
	</defs>
	<clipPath id="SVGID_18_">
		<use xlink:href="#SVGID_17_"  style="overflow:visible;"/>
	</clipPath>
	<g class="st17">
		<path class="st1" d="M329.3,119.2h148.5c1.5,0,2.8,1.2,2.8,2.8v1c0,1.5-1.2,2.8-2.8,2.8H329.3c-1.5,0-2.8-1.2-2.8-2.8v-1
			C326.5,120.4,327.8,119.2,329.3,119.2z"/>
		<path class="st1" d="M329.3,130h97.9c1.5,0,2.8,1.2,2.8,2.8v1c0,1.5-1.2,2.8-2.8,2.8h-97.9c-1.5,0-2.8-1.2-2.8-2.8v-1
			C326.5,131.2,327.8,130,329.3,130z"/>
	</g>
</g>
<path class="st1" d="M503.6,134.3c3.6,0,6.5-2.9,6.5-6.5s-2.9-6.5-6.5-6.5s-6.5,2.9-6.5,6.5S500,134.3,503.6,134.3z"/>
<path class="st5" d="M503.6,130.6c1.5,0,2.8-1.2,2.8-2.8c0-1.5-1.2-2.8-2.8-2.8s-2.8,1.2-2.8,2.8
	C500.8,129.4,502.1,130.6,503.6,130.6z"/>
<path class="st6" d="M321.9,156.9h200.1c2,0,3.7,1.7,3.7,3.7v28.6c0,2-1.7,3.7-3.7,3.7H321.9c-2,0-3.7-1.7-3.7-3.7v-28.6
	C318.2,158.5,319.9,156.9,321.9,156.9z"/>
<g>
	<defs>
		<rect id="SVGID_19_" x="326.5" y="167.7" width="154" height="14.4"/>
	</defs>
	<clipPath id="SVGID_20_">
		<use xlink:href="#SVGID_19_"  style="overflow:visible;"/>
	</clipPath>
	<g class="st18">
		<path class="st1" d="M329.2,167.7h148.6c1.5,0,2.7,1.2,2.7,2.7l0,0c0,1.5-1.2,2.7-2.7,2.7H329.2c-1.5,0-2.7-1.2-2.7-2.7l0,0
			C326.5,168.9,327.8,167.7,329.2,167.7z"/>
		<path class="st1" d="M329.2,176.7h98c1.5,0,2.7,1.2,2.7,2.7l0,0c0,1.5-1.2,2.7-2.7,2.7h-98c-1.5,0-2.7-1.2-2.7-2.7l0,0
			C326.5,177.9,327.8,176.7,329.2,176.7z"/>
	</g>
</g>
<path class="st1" d="M503.6,181.3c3.6,0,6.5-2.9,6.5-6.5s-2.9-6.5-6.5-6.5s-6.5,2.9-6.5,6.5S500,181.3,503.6,181.3z"/>
<path class="st5" d="M503.6,177.6c1.5,0,2.8-1.2,2.8-2.8c0-1.5-1.2-2.8-2.8-2.8s-2.8,1.2-2.8,2.8
	C500.8,176.4,502.1,177.6,503.6,177.6z"/>
<path class="st6" d="M321.9,200.2h200.1c2,0,3.7,1.7,3.7,3.7v28.6c0,2-1.7,3.7-3.7,3.7H321.9c-2,0-3.7-1.7-3.7-3.7v-28.6
	C318.2,201.9,319.9,200.2,321.9,200.2z"/>
<g>
	<defs>
		<rect id="SVGID_21_" x="326.5" y="211" width="154" height="14.4"/>
	</defs>
	<clipPath id="SVGID_22_">
		<use xlink:href="#SVGID_21_"  style="overflow:visible;"/>
	</clipPath>
	<g class="st19">
		<path class="st1" d="M329.2,211h148.6c1.5,0,2.7,1.2,2.7,2.7l0,0c0,1.5-1.2,2.7-2.7,2.7H329.2c-1.5,0-2.7-1.2-2.7-2.7l0,0
			C326.5,212.2,327.8,211,329.2,211z"/>
		<path class="st1" d="M329.2,220h98c1.5,0,2.7,1.2,2.7,2.7l0,0c0,1.5-1.2,2.7-2.7,2.7h-98c-1.5,0-2.7-1.2-2.7-2.7l0,0
			C326.5,221.2,327.8,220,329.2,220z"/>
	</g>
</g>
<path class="st1" d="M503.6,224.7c3.6,0,6.5-2.9,6.5-6.5s-2.9-6.5-6.5-6.5s-6.5,2.9-6.5,6.5S500,224.7,503.6,224.7z"/>
<path class="st11" d="M503.6,221c1.5,0,2.8-1.2,2.8-2.8c0-1.5-1.2-2.8-2.8-2.8s-2.8,1.2-2.8,2.8C500.8,219.8,502.1,221,503.6,221z"
	/>
<path class="st6" d="M321.9,330.3h200.1c2,0,3.7,1.7,3.7,3.7v28.6c0,2-1.7,3.7-3.7,3.7H321.9c-2,0-3.7-1.7-3.7-3.7V334
	C318.2,331.9,319.9,330.3,321.9,330.3z"/>
<g>
	<defs>
		<rect id="SVGID_23_" x="326.5" y="341.1" width="154" height="14.4"/>
	</defs>
	<clipPath id="SVGID_24_">
		<use xlink:href="#SVGID_23_"  style="overflow:visible;"/>
	</clipPath>
	<g class="st20">
		<path class="st1" d="M329.2,341.1h148.6c1.5,0,2.7,1.2,2.7,2.7v0c0,1.5-1.2,2.7-2.7,2.7H329.2c-1.5,0-2.7-1.2-2.7-2.7v0
			C326.5,342.3,327.8,341.1,329.2,341.1z"/>
		<path class="st1" d="M329.2,350.1h98c1.5,0,2.7,1.2,2.7,2.7v0c0,1.5-1.2,2.7-2.7,2.7h-98c-1.5,0-2.7-1.2-2.7-2.7v0
			C326.5,351.3,327.8,350.1,329.2,350.1z"/>
	</g>
</g>
<path class="st1" d="M503.6,354.7c3.6,0,6.5-2.9,6.5-6.5s-2.9-6.5-6.5-6.5s-6.5,2.9-6.5,6.5S500,354.7,503.6,354.7z"/>
<path class="st5" d="M503.6,351c1.5,0,2.8-1.2,2.8-2.8c0-1.5-1.2-2.8-2.8-2.8s-2.8,1.2-2.8,2.8C500.8,349.8,502.1,351,503.6,351z"/>
<path class="st6" d="M321.9,286.9h200.1c2,0,3.7,1.7,3.7,3.7v28.6c0,2-1.7,3.7-3.7,3.7H321.9c-2,0-3.7-1.7-3.7-3.7v-28.6
	C318.2,288.6,319.9,286.9,321.9,286.9z"/>
<g>
	<defs>
		<rect id="SVGID_25_" x="326.5" y="297.7" width="154" height="14.4"/>
	</defs>
	<clipPath id="SVGID_26_">
		<use xlink:href="#SVGID_25_"  style="overflow:visible;"/>
	</clipPath>
	<g class="st21">
		<path class="st1" d="M329.2,297.7h148.6c1.5,0,2.7,1.2,2.7,2.7v0c0,1.5-1.2,2.7-2.7,2.7H329.2c-1.5,0-2.7-1.2-2.7-2.7v0
			C326.5,298.9,327.8,297.7,329.2,297.7z"/>
		<path class="st1" d="M329.2,306.7h98c1.5,0,2.7,1.2,2.7,2.7v0c0,1.5-1.2,2.7-2.7,2.7h-98c-1.5,0-2.7-1.2-2.7-2.7v0
			C326.5,307.9,327.8,306.7,329.2,306.7z"/>
	</g>
</g>
<path class="st1" d="M503.6,311.4c3.6,0,6.5-2.9,6.5-6.5s-2.9-6.5-6.5-6.5s-6.5,2.9-6.5,6.5S500,311.4,503.6,311.4z"/>
<path class="st5" d="M503.6,307.7c1.5,0,2.8-1.2,2.8-2.8c0-1.5-1.2-2.8-2.8-2.8s-2.8,1.2-2.8,2.8
	C500.8,306.5,502.1,307.7,503.6,307.7z"/>
<path class="st6" d="M321.9,243.6h200.1c2,0,3.7,1.7,3.7,3.7v28.6c0,2-1.7,3.7-3.7,3.7H321.9c-2,0-3.7-1.7-3.7-3.7v-28.6
	C318.2,245.2,319.9,243.6,321.9,243.6z"/>
<g>
	<defs>
		<rect id="SVGID_27_" x="326.5" y="254.4" width="154" height="14.4"/>
	</defs>
	<clipPath id="SVGID_28_">
		<use xlink:href="#SVGID_27_"  style="overflow:visible;"/>
	</clipPath>
	<g class="st22">
		<path class="st1" d="M329.2,254.4h148.6c1.5,0,2.7,1.2,2.7,2.7l0,0c0,1.5-1.2,2.7-2.7,2.7H329.2c-1.5,0-2.7-1.2-2.7-2.7l0,0
			C326.5,255.6,327.8,254.4,329.2,254.4z"/>
		<path class="st1" d="M329.2,263.4h98c1.5,0,2.7,1.2,2.7,2.7v0c0,1.5-1.2,2.7-2.7,2.7h-98c-1.5,0-2.7-1.2-2.7-2.7v0
			C326.5,264.6,327.8,263.4,329.2,263.4z"/>
	</g>
</g>
<path class="st1" d="M503.6,268c3.6,0,6.5-2.9,6.5-6.5s-2.9-6.5-6.5-6.5s-6.5,2.9-6.5,6.5S500,268,503.6,268z"/>
<path class="st5" d="M503.6,264.3c1.5,0,2.8-1.2,2.8-2.8c0-1.5-1.2-2.8-2.8-2.8s-2.8,1.2-2.8,2.8
	C500.8,263.1,502.1,264.3,503.6,264.3z"/>
<path class="st23" d="M210.9,176.7c4.7,2.8,9.3,4.2,11.5,3.7c5.4-1.4,5.9-21.3,1.7-29.2c-4.2-7.9-25.9-11.3-27,4.3
	c-0.4,5.4,1.9,10.2,5.2,14.2l-6,28h17.5L210.9,176.7z"/>
<path class="st24" d="M225.8,154.7c-0.2-1-0.6-2.1-0.9-3.1c-0.4-1.2-1.1-2.4-1.8-3.4c-1.4-2-3-3.8-4.9-5.3
	c-3.3-2.7-7.6-4.3-11.8-3.8c-2.1,0.3-4.2,1.1-5.9,2.4c-1.6,1.2-3.1,3-5.1,3.1c-2.2,0.1-4.2-1.8-6-3c-2-1.4-4.1-2.4-6.5-2.7
	c-3.9-0.6-7.6,0.7-10.3,3.9c-2.9,3.4-5,8.5-3.1,13c0.4,0.8,0.8,1.6,1.5,2.1c0.6,0.5,1.5,1.1,1.7,2c0.3,0.9-0.5,2.1-0.8,2.9
	c-0.4,1.2-0.8,2.4-0.7,3.7c0.2,2.1,1.5,4.1,2.9,5.5c1.4,1.4,3.2,2.2,5.1,2.6c1.3,0.2,2.5,0.4,3.8,0.3c0.6,0,1.2-0.2,1.8-0.4
	c0.6-0.1,0.9,0,1.4,0.3c2.4,1.5,4.9,2.1,7.6,1.9c2.3-0.2,4.9-0.7,6.8-2.3c2.1-1.7,2-4.2,1.5-6.7c0.5,0.3,2,0.4,1.1-0.6
	c-0.3-0.4-1-0.6-1.4-0.8c-0.5-0.3-1-0.6-1.4-1.1c-1.6-1.8,0-5.6,2-6.2c3-0.9,3.6,3.3,5.7,4.4c1.2,0.6,2.5-0.2,3.4-1.1
	c1.2-1.2,2.1-2.7,2.8-4.3c0.6-1.3,1.1-2.6,1.7-3.9c0.3-0.6,1.3-2.3,0.8-3c2.1-0.4,4.5,0.5,6.3,1.6c0.8,0.5,1.3,1,1.7,1.9
	c0.1,0.2,0.3,0.7,0.5,0.7C226,155.5,225.9,155,225.8,154.7"/>
<path class="st25" d="M176.2,289.7c-5.7,0-10.4,4.6-10.4,10.4v68.7c0,5.7,4.6,10.4,10.4,10.4h60.5c5.7,0,10.4-4.6,10.4-10.4v-68.7
	c0-5.7-4.6-10.4-10.4-10.4H176.2z M181.5,304.5c-1.9,0-3.4,1.5-3.4,3.4V361c0,1.9,1.5,3.4,3.4,3.4H230c1.9,0,3.4-1.5,3.4-3.4v-53.1
	c0-1.9-1.5-3.4-3.4-3.4H181.5z"/>
<path class="st23" d="M320.9,376c-14.3-17.5-24-30.5-29.1-39c-8.7-14.5-15.8-27.4-18-32.3c-5.3-11.7,12.3-17.2,16.3-11.8
	c6,8.3,18.9,34.4,38.7,78.2L320.9,376z"/>
<path class="st25" d="M291.5,370.9l-26.7-67.2c-5.7-12.3,21.9-20.3,26-14.6c9.5,12.9,32.2,64,35,67.9L291.5,370.9z"/>
<path class="st23" d="M220.5,357.4c5.2-7.6,24.1-33.1,34.4-43.7c3-3,5.8-5.9,8.6-8.7c8.1-8.1,24.3,5.5,16.2,12.8
	c-20.2,18.3-49.6,43-52.1,45.2C224.1,366.2,217.2,362.1,220.5,357.4z"/>
<path class="st26" d="M223.7,354.1c-0.4-0.6-1.3-0.8-1.9-0.3c-1.2,1-3,2.6-3.6,3.7c-1,1.7-2.3,5.3-2.3,5.3
	c2,1.1,35.5,20.5,35.5,20.5s4-3.8,1.3-5.9c-2.8-2.1-4.6-3.5-4.6-3.5l-12.3-17c-0.2-0.3-0.6-0.4-0.9-0.1l-2.6,2c0,0-3.5-0.3-5.2-1.3
	C225.9,357,224.6,355.3,223.7,354.1z"/>
<path class="st26" d="M316.6,372.5c-0.7-0.3-1.5,0-1.8,0.7c-0.5,1.5-1.3,3.8-1.3,5.1c0,2,0.7,5.7,0.7,5.7c2.3,0,41,0,41,0
	s1.6-5.3-1.8-5.7c-3.4-0.4-5.7-0.8-5.7-0.8l-19.1-8.5c-0.3-0.1-0.7,0-0.9,0.3l-1.3,3.1c0,0-3.2,1.5-5.2,1.5
	C319.9,373.8,317.9,373,316.6,372.5z"/>
<path class="st27" d="M255.2,307c0,0-33.3-5.4-44.6-7.4c-21.5-3.8-27.7-15.3-24-40.6h39.6c7.9,2.3,65.6,28.1,65.6,28.1
	c6.9,3.4,5.6,13.6,4.4,16.9c-0.1,0.2-35,60.1-35,60.1l-32.4-20.6l26.5-34C255.3,309.4,256.3,307.3,255.2,307z"/>
<path class="st23" d="M149.5,290.7c2.1-4.3,12.8-60,12.8-60l15.9,0.1c0,0-18.2,59-19.3,61.8c-1.5,3.6,1,8.9,2.7,12.4
	c0.3,0.6,0.5,1.1,0.7,1.5c-2.3,1-3.4-0.2-4.6-1.5c-1.3-1.5-2.7-3.1-6.1-1.5c-1.3,0.6-2.5,1.3-3.7,2c-4.1,2.4-7.9,4.6-13,1.4
	c-0.8-0.5-1.7-2.4,0.4-3.9C140.7,299.3,148.4,292.9,149.5,290.7z M283.6,269L263,248.9l-6.8,11.8l21.4,12.6c5.4,8.5,8.5,12.1,9.5,11
	c0.8-1,0.4-2,0.1-3c-0.3-0.8-0.5-1.5-0.2-2.1c0.8-1.3,5.1-0.6,9.1,0.3c4.1,0.9,3.1-1.1,2.3-2.1C294.5,274.4,289.6,271.6,283.6,269z"
	/>
<path class="st3" d="M210.8,185.5l6.3-1.1c9.9,35,60.8,58.9,63.9,72c1.1,4.8-2.3,7.2-0.5,8.7l-8.2,6c-1.4-1.6-4.3,1.3-10.5-0.7
	C255.6,268.4,210.8,227,210.8,185.5z"/>
<path class="st3" d="M199.2,178.2c-1.4-0.1-2.7,1-2.8,2.4l-0.3,4.6c-11.8,9.1-41.2,36.3-48.8,87c-0.8,5.3,0.6,8.2,1.8,10.5
	c0.8,1.6,1.5,2.8,1.2,4.5l10.7,3c0-1.2,1.3-2.1,3.1-3.3c2.5-1.7,5.9-4,7.1-8.5c1.2-4.3,2.9-9.7,5-15.7c0.2,7.9,1.7,15.2,5,21.3
	c8.2,15.1,55.3-1.5,60.3-16.8c2.6-8.2-1.1-15.1-6-24.2c-6.3-11.6-14.5-26.7-14.1-52.6l0.5-7.8c0.1-1.4-1-2.7-2.4-2.8L199.2,178.2z"
	/>
<path class="st23" d="M410.6,127.8c-4.7,2.8-9.3,4.2-11.5,3.7c-5.5-1.4-6-21.4-1.7-29.2c4.2-7.9,25.9-11.3,27,4.3
	c0.4,5.4-1.9,10.2-5.2,14.2l6,28h-17.5L410.6,127.8z"/>
<path class="st27" d="M398.5,99.1c0.2-1-0.2-1.4,3.7-4.1c3.8-2.7,10-5.8,16.2-4.5c8.1,1.8,11.3,7.1,14.4,9.7
	c2.8,2.3,5.6,2.6,7.3,5.5c1.7,2.9,2.6,11.2,1.1,14.5c-2,4.6-5.9,5.8-8.8,7.1c-4.9,2.3-11.9-0.1-12.1-0.5
	c-1.3-3.1-8.3-11.7-12.6-15.3C404.6,108.9,397.8,103.6,398.5,99.1z"/>
<defs>
	<filter id="Adobe_OpacityMaskFilter" filterUnits="userSpaceOnUse" x="409.7" y="101.9" width="28" height="40.5">
		<feColorMatrix  type="matrix" values="1 0 0 0 0  0 1 0 0 0  0 0 1 0 0  0 0 0 1 0"/>
	</filter>
</defs>
<mask maskUnits="userSpaceOnUse" x="409.7" y="101.9" width="28" height="40.5" id="mask0_1_">
	<path class="st28" d="M398.5,99.1c0.2-1-0.2-1.4,3.7-4.1c3.8-2.7,10-5.8,16.2-4.5c8.1,1.8,11.3,7.1,14.4,9.7
		c2.8,2.3,5.6,2.6,7.3,5.5c1.7,2.9,2.6,11.2,1.1,14.5c-2,4.6-5.9,5.8-8.8,7.1c-4.9,2.3-11.9-0.1-12.1-0.5
		c-1.3-3.1-8.3-11.7-12.6-15.3C404.6,108.9,397.8,103.6,398.5,99.1z"/>
</mask>
<g class="st29">
	<path class="st30" d="M414.3,134.3c11.9-14.7,14.7-32.4,14.7-32.4l3.6,2.3C432.6,104.2,428.2,123.6,414.3,134.3z M409.7,142.4
		c19.3-16.9,23.9-36,23.9-36l4.1,1.2C437.8,107.7,432,128.9,409.7,142.4z"/>
</g>
<path class="st31" d="M436.8,210.2l-27.4,89.6l-13.3,76.2h-10.4l14-165.9H436.8z"/>
<path class="st23" d="M446.6,210.2c-1.9,49.2,0.3,74.6,0.7,79.1c0.4,4.5,6.1,33.5,19.6,88.3l-11.1-3.8c-21.3-50.3-28.6-76.4-31-83
	c-2.4-6.6-8.9-33.4-19.5-80.5H446.6z"/>
<path class="st26" d="M465,372.8c0.7-0.3,1.5,0,1.8,0.7c0.5,1.5,1.3,3.8,1.3,5.1c0,2-0.7,5.8-0.7,5.8c-2.3,0-41,0-41,0
	s-1.6-5.3,1.8-5.7c3.4-0.4,5.7-0.8,5.7-0.8l19.1-8.5c0.3-0.1,0.7,0,0.9,0.3l1.3,3.1c0,0,3.2,1.5,5.2,1.5
	C461.6,374.2,463.7,373.4,465,372.8z"/>
<path class="st26" d="M396.6,372.8c0.7-0.3,1.5,0,1.8,0.7c0.5,1.5,1.3,3.8,1.3,5.1c0,2-0.7,5.8-0.7,5.8c-2.3,0-41,0-41,0
	s-1.6-5.3,1.8-5.7c3.4-0.4,5.7-0.8,5.7-0.8l19.1-8.5c0.3-0.1,0.7,0,0.9,0.3l1.3,3.1c0,0,3.2,1.5,5.2,1.5
	C393.3,374.2,395.3,373.4,396.6,372.8z"/>
<path class="st32" d="M440.4,210.2l-11.6,45.7h-35.5l5.3-45.7H440.4z"/>
<path class="st0" d="M447,210.2c5.7,17.2,2.2,45.7,2.2,45.7h-36.3l-10-45.7H447z"/>
<path class="st23" d="M336.3,137.6l28.5,4.3l-5.3,12.6l-23-9.5c-10,0.8-14.8,0.5-14.5-1c0.3-1.2,1.4-1.6,2.4-1.9
	c0.8-0.3,1.5-0.5,1.7-1.1c0.6-1.4-2.6-4.4-5.8-7.1c-3.2-2.7-1-3.1,0.4-3.1C325.5,132.1,330.7,134.4,336.3,137.6z M353.4,209.8
	l20.6-20.1l6.8,11.8l-21.5,12.6c-5.4,8.5-8.5,12.1-9.5,11c-0.8-1-0.4-2-0.1-3c0.3-0.8,0.5-1.5,0.2-2c-0.8-1.3-5.1-0.6-9.1,0.3
	c-4.1,0.9-3.1-1.1-2.3-2.1C342.4,215.2,347.4,212.4,353.4,209.8z"/>
<path class="st25" d="M403.3,139.3c-9.3,25.1-24.9,45.5-48.5,67.8l11.5,9.8c27.8-15,42.3-23.7,46.9-46.8c1.1-5.8,0-23.6-0.2-33
	L403.3,139.3z"/>
<path class="st5" d="M449.3,212l-55.5,7.8c0,0,10.8-60.1,8.2-81.6c-0.1-0.7,1.1-2.2,1.7-2.1c6.8,0.9,13.8-3.3,13.8-3.3
	C433.6,152.1,441.8,177.5,449.3,212z"/>
<path class="st33" d="M408,167c-3.5,38.4,1.2,68.7,20.4,66l29.6-4.2c0.3-32.2-18.2-74.2-32.8-94.7c-0.6-0.8-1.7-2.2-3.9-1.9
	l-8.6,1.2c0,0,0,0,0,0c-2.6,0.4-5.4,0.9-8.5,1.4c-15.8,2.8-37.9,6.6-63.9,2.1l-0.9,15.1C363.9,163.4,388.3,171.4,408,167z"/>
</svg>
