<svg width="437" height="400" viewBox="0 0 437 400" fill="none" xmlns="http://www.w3.org/2000/svg">
<path fill-rule="evenodd" clip-rule="evenodd" d="M197.5 357C276.753 357 341 292.305 341 212.5C341 132.695 276.753 68 197.5 68C118.247 68 54 132.695 54 212.5C54 292.305 118.247 357 197.5 357Z" fill="#F4F4F4"/>
<path fill-rule="evenodd" clip-rule="evenodd" d="M241 304L288 352L241 400L194 352L241 304Z" fill="#B2BBBB"/>
<path opacity="0.6" fill-rule="evenodd" clip-rule="evenodd" d="M123.5 294L152 323L123.5 352L95 323L123.5 294Z" fill="#E9B58F"/>
<path opacity="0.6" fill-rule="evenodd" clip-rule="evenodd" d="M171.5 350L191 370L171.5 390L152 370L171.5 350Z" fill="#1C9FA8"/>
<g opacity="0.8">
<path fill-rule="evenodd" clip-rule="evenodd" d="M399.965 75.2719C402.81 73.4395 408.779 68.2905 411.725 68.3964C413.622 68.4646 410.736 74.3601 410.299 75.5288C408.609 80.0507 406.402 84.336 404.093 88.5706C399.93 96.208 393.852 102.075 386.688 107.147C383.002 109.758 378.901 112.254 374.3 112.975C372.182 113.307 370.046 112.661 368.005 112.862C365.627 113.095 367.028 112.701 365.343 114.361C363.004 116.666 361.187 120.113 359.439 122.867C351.416 135.511 316.533 205.32 312.15 219.671C311.762 220.943 309.883 220.543 310.389 219.003C313.07 210.835 338.916 157.141 348.087 139.864C357.257 122.588 365.621 107.429 370.159 101.99C375.664 95.3914 383.8 88.054 390.368 82.4661C393.419 79.87 396.583 77.4494 399.965 75.2719Z" fill="#A26638"/>
<path fill-rule="evenodd" clip-rule="evenodd" d="M378.632 169.328C384.763 167.787 387.388 176.292 381.711 178.012C378.573 178.963 376.339 177.304 375.554 175.171C374.212 175.898 372.908 176.697 371.708 177.333C368.051 179.271 364.504 181.334 361.034 183.507C353.826 188.022 347.148 193.162 340.335 198.107C333.611 202.987 326.907 207.913 320.507 213.112C315.085 217.516 308.207 222.501 304.668 228.278C311.515 215.766 322.792 205.592 334.855 196.938C346.819 188.355 360.297 179.145 375.377 174.594C374.869 172.453 375.782 170.043 378.632 169.328Z" fill="#C1DEE2"/>
<path fill-rule="evenodd" clip-rule="evenodd" d="M300.585 101.455C303.059 103.02 305.101 110.65 306.418 113.77C307.984 117.477 309.238 121.265 310.301 125.136C312.591 133.466 314.21 142.002 315.069 150.576C316.468 164.554 316.557 178.371 315.045 192.395C314.12 200.979 312.333 209.55 310.007 217.844C309.568 219.408 306.613 231.635 304.163 231.03C301.959 230.486 306.187 221.659 306.573 220.384C310.927 205.996 312.856 191.086 313.281 176.074C313.373 172.804 313.793 168.919 313.152 165.69C312.69 163.365 313.62 164.479 311.8 162.95C310.238 161.637 308.129 160.976 306.577 159.511C303.204 156.329 301.225 151.953 299.648 147.714C296.585 139.478 294.851 131.19 295.668 122.506C296.121 117.69 296.685 112.89 297.803 108.183C298.092 106.966 298.992 100.446 300.585 101.455Z" fill="#69A1AC"/>
<path fill-rule="evenodd" clip-rule="evenodd" d="M349.891 7.34453C353.241 28.3741 354.134 50.3752 351.997 71.4603C350.703 84.2355 348.316 96.9273 345.948 109.528C342.282 129.039 338.428 148.474 332.087 167.302C325.71 186.24 319.132 208.389 305.852 223.815C316.122 206.887 320.78 186.395 327.458 167.92C330.646 159.101 333.325 150.179 335.791 141.134C338.183 132.359 339.973 123.394 341.856 114.495C342.773 110.161 343.654 105.82 344.52 101.476C344.779 100.18 346.102 96.5532 345.642 95.4166C345.178 94.2726 341.274 92.3413 340.247 91.231C338.179 88.9949 336.467 86.3017 335.07 83.6184C332.391 78.4745 330.669 72.4549 329.669 66.7955C327.354 53.7007 329.84 39.8142 334.785 27.6558C335.745 25.295 349.717 1.30719 348.287 0.337113C348.424 0.266387 348.557 0.190134 348.687 0.107394C349.109 2.51659 349.504 4.93018 349.891 7.34453Z" fill="#89C5CC"/>
<path fill-rule="evenodd" clip-rule="evenodd" d="M434.388 111.743C434.63 111.585 436.242 110.462 435.694 110.358C436.81 110.569 433.605 111.475 436.644 111.342C434.971 111.99 435.1 113.739 434.516 115.268C433.567 117.751 432.177 120.036 430.746 122.267C428.484 125.794 425.895 129.069 422.862 131.984C416.253 138.334 407.278 143.418 398.206 145.44C393.727 146.438 389.941 145.887 385.474 145.398C382.653 145.09 381.944 146.296 379.64 148.176C374.845 152.091 370.106 156.007 365.576 160.222C360.166 165.256 354.84 170.331 349.638 175.572C332.111 193.227 315.984 212.318 303.088 233.572C308.289 220.101 316.928 207.522 325.992 196.302C332.595 188.127 339.949 180.636 347.521 173.336C349.355 171.568 351.941 169.382 353.298 167.166C354.248 165.613 353.986 163.656 354.269 161.738C355.37 154.265 358.507 146.644 362.622 140.317C367.16 133.341 373.02 131.583 381.009 133.492C383.931 134.189 387.391 135.72 390.382 135.569C393.64 135.405 396.405 131.733 399.02 129.707C406.044 124.264 413.747 119.426 421.868 115.709C424.117 114.68 426.435 113.826 428.813 113.125C430.313 112.683 433.172 112.537 434.388 111.743Z" fill="#89C5CC"/>
</g>
<path d="M213.576 188.909L213.571 189.288H213.577V198.078V198.452H213.952H234.9C241.358 198.452 246.594 203.688 246.594 210.147V230.052V230.427H246.969H256.057V230.433L256.436 230.428C256.506 230.427 256.576 230.427 256.646 230.427C265.568 230.427 272.78 237.428 272.78 246.039C272.78 254.65 265.568 261.651 256.646 261.651C256.576 261.651 256.506 261.651 256.436 261.65L256.057 261.645V261.651H246.969H246.594V262.026V281.931C246.594 288.389 241.358 293.625 234.9 293.625H214.326V284.836V284.629V284.628V284.461H214.325C214.232 275.491 206.698 268.267 197.442 268.267C188.187 268.267 180.652 275.491 180.56 284.461H180.559V284.628V284.836V293.625H159.985C153.526 293.625 148.291 288.389 148.291 281.931V262.4H157.379H157.594H157.754V262.4C166.993 262.316 174.477 255.034 174.477 246.039C174.477 237.043 166.993 229.761 157.754 229.678V229.677H157.594H157.379H148.291V210.147C148.291 203.688 153.526 198.452 159.985 198.452H180.934H181.309V198.078V189.288H181.315L181.31 188.909C181.309 188.841 181.309 188.774 181.309 188.706C181.309 180.095 188.521 173.094 197.443 173.094C206.365 173.094 213.577 180.095 213.577 188.706C213.577 188.774 213.577 188.841 213.576 188.909Z" fill="white" stroke="#1C9FA8" stroke-width="0.749084"/>
<path fill-rule="evenodd" clip-rule="evenodd" d="M296.322 172.719C305.439 172.719 312.831 179.877 312.831 188.706C312.831 188.776 312.83 188.845 312.829 188.914H312.831V198.078H333.779C340.444 198.078 345.848 203.481 345.848 210.147V230.052H355.311V230.054C355.382 230.053 355.453 230.052 355.525 230.052C364.642 230.052 372.034 237.21 372.034 246.039C372.034 254.869 364.642 262.026 355.525 262.026C355.453 262.026 355.382 262.026 355.311 262.025V262.026H345.848V281.931C345.848 288.596 340.444 294 333.779 294H312.831V284.836H312.829C312.83 284.767 312.831 284.698 312.831 284.629C312.831 275.799 305.44 268.642 296.322 268.642C287.204 268.642 279.813 275.799 279.813 284.629C279.813 284.698 279.814 284.767 279.815 284.836H279.813V294H258.864C252.198 294 246.795 288.596 246.795 281.931V210.147C246.795 203.482 252.198 198.078 258.864 198.078H279.813V188.914H279.815C279.814 188.845 279.813 188.776 279.813 188.706C279.813 179.877 287.204 172.719 296.322 172.719ZM272.982 246.039C272.982 254.868 265.59 262.026 256.473 262.026C256.401 262.026 256.33 262.026 256.259 262.025V262.026H246.795V230.052H256.259V230.053C256.33 230.052 256.401 230.052 256.473 230.052C265.59 230.052 272.982 237.21 272.982 246.039Z" fill="#A26638"/>
<path fill-rule="evenodd" clip-rule="evenodd" d="M105.953 154.02C114.695 156.611 119.747 165.574 117.238 174.04C117.218 174.106 117.198 174.172 117.177 174.238L117.179 174.239L114.574 183.025L134.659 188.979C141.05 190.873 144.695 197.59 142.8 203.98L137.143 223.064L146.216 225.754L146.215 225.755C146.284 225.775 146.352 225.794 146.421 225.815C155.163 228.406 160.215 237.369 157.705 245.835C155.196 254.3 146.075 259.062 137.334 256.47C137.265 256.45 137.197 256.429 137.129 256.408L137.128 256.409L128.056 253.72L122.399 272.804C120.504 279.195 113.788 282.84 107.397 280.945L87.3132 274.992L89.9177 266.206L89.9164 266.205C89.9369 266.139 89.957 266.073 89.9767 266.006C92.4862 257.541 87.434 248.578 78.6925 245.987C69.9509 243.395 60.8302 248.157 58.3208 256.622C58.3011 256.689 58.2818 256.755 58.2631 256.822L58.2618 256.822L55.6572 265.608L35.5718 259.653C29.1811 257.759 25.5361 251.043 27.4306 244.652L47.8324 175.828C49.7269 169.438 56.4433 165.793 62.834 167.687L82.9182 173.641L85.5227 164.855L85.524 164.855C85.5428 164.789 85.562 164.722 85.5817 164.656C88.0911 156.19 97.2118 151.429 105.953 154.02ZM62.7389 217.683C60.2295 226.148 51.1087 230.91 42.3672 228.318C42.2986 228.298 42.2302 228.277 42.162 228.256L42.1616 228.257L33.0887 225.568L42.1761 194.912L51.249 197.602L51.2487 197.603C51.3173 197.623 51.386 197.643 51.4546 197.663C60.1962 200.254 65.2483 209.217 62.7389 217.683Z" fill="#2F6267"/>
<g opacity="0.6">
<path fill-rule="evenodd" clip-rule="evenodd" d="M149.446 56.4679C157.989 53.2805 167.416 57.4026 170.502 65.6749C170.527 65.7398 170.55 65.8048 170.574 65.8699L170.575 65.8694L173.778 74.4547L193.404 67.1318C199.649 64.8016 206.601 67.9751 208.931 74.2201L234.026 141.475C236.356 147.72 233.182 154.671 226.937 157.001L207.31 164.325L204.107 155.739L204.105 155.74C204.082 155.674 204.058 155.609 204.034 155.545C200.947 147.272 191.52 143.15 182.978 146.338C174.436 149.525 170.013 158.815 173.1 167.087C173.124 167.152 173.149 167.217 173.174 167.281L173.172 167.282L176.376 175.867L156.75 183.191C150.504 185.521 143.553 182.347 141.223 176.102L116.128 108.848C113.798 102.603 116.971 95.6511 123.216 93.3209L142.844 85.9972L139.641 77.4119L139.642 77.4114C139.617 77.347 139.592 77.2823 139.568 77.2174C136.481 68.9451 140.904 59.6552 149.446 56.4679ZM153.21 133.32C156.297 141.593 151.874 150.883 143.332 154.07C143.294 154.084 143.255 154.098 143.217 154.112L143.13 154.144L143.131 154.145L134.265 157.453L123.087 127.497L131.953 124.188L131.954 124.19C132.02 124.164 132.087 124.138 132.154 124.113C140.696 120.926 150.123 125.048 153.21 133.32Z" fill="#703B0E"/>
<path d="M224.957 89.4865C233.499 86.2992 242.926 90.4213 246.013 98.6936C249.1 106.966 244.677 116.256 236.135 119.443C236.068 119.468 236 119.493 235.933 119.517L235.934 119.518L227.068 122.826L215.89 92.8697L224.756 89.5615L224.757 89.5627C224.823 89.5369 224.89 89.5116 224.957 89.4865Z" fill="#703B0E"/>
</g>
<path d="M221.573 260.026C221.573 256.431 219.052 253.328 215.666 252.482L215.681 232.177L211.286 232.177L211.271 252.552C207.957 253.539 205.579 256.5 205.579 260.025C205.578 264.326 209.18 267.851 213.574 267.852C217.969 267.852 221.572 264.327 221.573 260.026ZM209.037 260.026C209.037 257.629 211.055 255.655 213.504 255.655C215.954 255.655 217.971 257.629 217.97 260.026C217.97 262.423 215.952 264.397 213.503 264.397C211.053 264.397 209.036 262.423 209.037 260.026Z" fill="#01777E"/>
<path d="M213.556 252.243C209.87 252.243 206.689 254.704 205.821 258.008L179.293 258.009L179.292 262.297L205.892 262.296C206.903 265.529 209.938 267.849 213.552 267.849C217.96 267.849 221.575 264.334 221.576 260.046C221.577 255.758 217.964 252.243 213.556 252.243ZM213.553 264.475C211.095 264.475 209.072 262.506 209.073 260.116C209.073 257.726 211.098 255.758 213.555 255.758C216.012 255.758 218.035 257.726 218.034 260.116C218.034 262.506 216.01 264.474 213.553 264.475Z" fill="#00A8B3"/>
<path d="M174.093 228.257C174.1 231.853 176.629 234.95 180.018 235.79L180.058 256.095L184.455 256.087L184.414 235.711C187.727 234.718 190.1 231.752 190.093 228.227C190.084 223.926 186.473 220.408 182.077 220.416C177.681 220.424 174.084 223.956 174.093 228.257ZM186.633 228.233C186.638 230.63 184.624 232.608 182.173 232.613C179.723 232.618 177.701 230.647 177.696 228.25C177.692 225.853 179.706 223.875 182.156 223.871C184.606 223.866 186.628 225.836 186.633 228.233Z" fill="#01777E"/>
<path d="M182.131 236.011C185.817 236.005 188.991 233.54 189.85 230.234L216.379 230.183L216.368 225.894L189.767 225.945C188.747 222.713 185.705 220.397 182.092 220.403C177.683 220.409 174.078 223.93 174.089 228.219C174.1 232.507 177.722 236.017 182.131 236.011ZM182.1 223.777C184.557 223.774 186.586 225.739 186.592 228.13C186.598 230.52 184.579 232.492 182.122 232.495C179.665 232.499 177.636 230.534 177.63 228.143C177.624 225.753 179.643 223.781 182.1 223.777Z" fill="#00A8B3"/>
<path fill-rule="evenodd" clip-rule="evenodd" d="M0.712436 325.09C1.08705 322.458 2.12763 319.786 3.09392 317.323C8.22174 304.094 19.3664 293.376 32.5732 288.616C43.8163 284.564 55.1883 286.53 66.4676 289.1C67.5874 289.355 68.6703 289.689 69.7694 290.007C70.0052 290.075 70.2194 290.126 70.4224 290.17C71.1333 289.795 71.828 289.718 72.3469 290.289C75.5135 290.058 78.6777 290.043 81.8737 290.209C91.2808 290.698 100.865 291.201 109.106 296.154C104.087 294.727 98.8001 293.688 93.6435 292.878C93.3474 292.832 93.0519 292.79 92.7564 292.752C92.7252 292.748 92.6943 292.743 92.6634 292.739C91.0669 292.538 89.476 292.456 87.8715 292.48C87.854 292.48 87.8369 292.48 87.8196 292.48C87.6084 292.483 87.3964 292.492 87.1849 292.499C86.7469 292.514 86.3081 292.533 85.8676 292.563C85.7177 292.572 85.5674 292.579 85.417 292.584C83.1793 292.655 80.8658 292.175 78.5914 292.139C78.0711 292.139 77.5496 292.147 77.0274 292.165C76.9968 292.166 76.9661 292.167 76.9355 292.168C75.5294 292.219 74.1185 292.327 72.7084 292.472C72.3495 292.702 71.6907 292.652 71.0472 292.726C70.9194 292.743 70.0427 292.925 69.5837 292.905C68.7856 293.002 67.9877 293.099 67.1899 293.199C67.1977 293.19 67.2055 293.181 67.2133 293.172C66.4419 293.282 65.6728 293.395 64.9074 293.505C64.7393 293.53 64.5706 293.555 64.4018 293.58C64.1323 293.622 63.8629 293.663 63.5942 293.705C61.0794 294.095 58.5801 294.571 56.0885 295.104C55.1993 295.294 53.7616 296.004 52.8764 295.914C52.8433 295.91 52.8149 295.902 52.7842 295.896C47.8456 297.226 43.0534 299.09 38.7713 301.871C39.4454 301.593 41.514 301.239 41.9479 301.103C43.2764 300.688 44.5591 300.178 45.8546 299.67C48.1753 298.759 50.5374 297.905 52.9397 297.26C57.3329 296.079 61.7819 295.306 66.2609 294.676C66.2899 294.665 66.3184 294.652 66.3475 294.642C67.9723 294.093 70.0955 294.157 71.7942 293.958C69.3843 296.349 67.3264 299.218 65.038 301.74C62.7562 304.255 60.37 306.64 57.7914 308.84C54.3642 311.764 50.6206 314.728 46.6984 317.236C42.7381 320.31 38.0838 322.399 33.4078 324.032C27.8753 325.964 22.4148 327.589 16.5416 327.666C13.6556 327.703 10.7393 327.492 7.90856 326.957C7.78507 326.934 7.64981 326.912 7.50884 326.891C6.41642 327.015 5.32167 327.082 4.23018 327.073C2.49888 327.061 0.333885 327.747 0.712436 325.09" fill="#E9B58F"/>
<path fill-rule="evenodd" clip-rule="evenodd" d="M47.069 109.874C48.4515 108.759 50.178 107.928 51.7728 107.165C60.3082 103.038 70.639 102.88 79.262 106.574C86.6028 109.718 91.2633 115.863 95.6035 122.259C96.0343 122.894 96.4113 123.551 96.8034 124.207C96.8876 124.348 96.9692 124.471 97.0482 124.585C97.5667 124.725 97.9413 125.004 97.9342 125.52C99.587 126.85 101.14 128.285 102.626 129.823C107 134.35 111.454 138.964 113.223 145.14C111.421 142.156 109.311 139.238 107.161 136.492C107.037 136.334 106.911 136.179 106.785 136.026C106.771 136.01 106.758 135.993 106.745 135.977C106.057 135.151 105.317 134.386 104.522 133.666C104.513 133.659 104.505 133.651 104.496 133.643C104.392 133.548 104.284 133.456 104.178 133.363C103.957 133.17 103.734 132.98 103.505 132.794C103.427 132.73 103.351 132.665 103.275 132.599C102.149 131.613 101.237 130.325 100.143 129.27C99.8884 129.033 99.6298 128.799 99.3665 128.57C99.3511 128.556 99.3355 128.543 99.3199 128.53C98.61 127.913 97.8712 127.323 97.1161 126.751C96.8357 126.7 96.5368 126.375 96.1885 126.118C96.1181 126.069 95.6071 125.758 95.3918 125.539C94.9574 125.223 94.5238 124.906 94.0882 124.591C94.0961 124.59 94.104 124.59 94.1119 124.589C93.6847 124.291 93.2576 123.996 92.8331 123.701C92.7398 123.636 92.646 123.571 92.5522 123.507C92.4014 123.404 92.2508 123.302 92.1004 123.2C90.6937 122.244 89.2556 121.338 87.7951 120.462C87.2739 120.15 86.2479 119.842 85.8566 119.394C85.8421 119.377 85.8321 119.36 85.8199 119.343C82.8002 117.742 79.6089 116.469 76.2491 115.876C76.7052 116.047 77.8774 116.817 78.1513 116.948C78.9895 117.351 79.8487 117.687 80.7136 118.029C82.2628 118.641 83.8061 119.301 85.2742 120.08C87.9589 121.506 90.4854 123.156 92.9608 124.89C92.98 124.898 92.9999 124.904 93.0187 124.913C94.063 125.385 95.0714 126.384 95.992 127.061C93.7249 127.131 91.4116 127.594 89.1438 127.784C86.8824 127.973 84.6294 128.051 82.3666 127.95C79.359 127.817 76.1791 127.559 73.1192 126.997C69.7832 126.694 66.5566 125.593 63.5275 124.26C59.9435 122.682 56.5344 120.988 53.6297 118.348C52.2025 117.051 50.8737 115.618 49.7344 114.067C49.6846 113.999 49.6283 113.927 49.569 113.852C48.9788 113.415 48.4135 112.948 47.8839 112.447C47.0437 111.652 45.673 111 47.069 109.874" fill="#E9B58F"/>
</svg>
