<?xml version="1.0" encoding="utf-8"?>
<!-- Generator: Adobe Illustrator 22.0.1, SVG Export Plug-In . SVG Version: 6.00 Build 0)  -->
<svg version="1.1" id="Layer_1" xmlns="http://www.w3.org/2000/svg" xmlns:xlink="http://www.w3.org/1999/xlink" x="0px" y="0px"
	 viewBox="0 0 587 399" style="enable-background:new 0 0 587 399;" xml:space="preserve">
<style type="text/css">
	.st0{fill:#F4F4F4;}
	.st1{opacity:0.8;}
	.st2{fill:#A26638;}
	.st3{fill:#C1DEE2;}
	.st4{fill:#69A1AC;}
	.st5{fill:#1C9FA8;}
	.st6{fill:#89C5CC;}
	.st7{fill:#F4F4F4;filter:url(#Adobe_OpacityMaskFilter);}
	.st8{mask:url(#mask0_1_);}
	.st9{fill:#703B0E;}
	.st10{fill:#B28B67;}
	.st11{fill:#EAC7A8;}
	.st12{fill:#01777E;}
	.st13{fill:#00A8B3;}
	.st14{opacity:0.6;fill:#1C9FA8;enable-background:new    ;}
	.st15{opacity:0.6;fill:#D69464;enable-background:new    ;}
	.st16{fill:#E9B58F;}
</style>
<path class="st0" d="M297.5,394.2c96.7,0,175.1-79,175.1-176.3c0-97.4-78.4-176.3-175.1-176.3s-175.1,79-175.1,176.3
	C122.4,315.2,200.8,394.2,297.5,394.2z"/>
<g class="st1">
	<path class="st2" d="M534,118.7c4.3-2.8,13.2-10.5,17.6-10.3c2.8,0.1-1.5,8.9-2.1,10.7c-2.5,6.8-5.8,13.2-9.3,19.6
		c-6.2,11.5-15.4,20.3-26.1,27.9c-5.5,3.9-11.7,7.7-18.6,8.7c-3.2,0.5-6.4-0.5-9.4-0.2c-3.6,0.4-1.5-0.2-4,2.3
		c-3.5,3.5-6.2,8.6-8.9,12.8c-12,19-64.4,123.7-71,145.3c-0.6,1.9-3.4,1.3-2.6-1c4-12.3,42.8-92.8,56.6-118.8
		c13.8-25.9,26.3-48.7,33.1-56.8c8.3-9.9,20.5-20.9,30.3-29.3C524.2,125.6,528.9,122,534,118.7z"/>
	<path class="st3" d="M502,259.8c9.2-2.3,13.1,10.5,4.6,13c-4.7,1.4-8.1-1.1-9.2-4.3c-2,1.1-4,2.3-5.8,3.2c-5.5,2.9-10.8,6-16,9.3
		c-10.8,6.8-20.8,14.5-31.1,21.9c-10.1,7.3-20.1,14.7-29.8,22.5c-8.1,6.6-18.5,14.1-23.8,22.8c10.3-18.8,27.2-34,45.3-47
		c18-12.9,38.2-26.7,60.8-33.5C496.3,264.5,497.7,260.9,502,259.8z"/>
	<path class="st4" d="M384.8,158c3.7,2.3,6.8,13.8,8.8,18.5c2.3,5.6,4.2,11.2,5.8,17.1c3.4,12.5,5.9,25.3,7.2,38.2
		c2.1,21,2.2,41.7,0,62.8c-1.4,12.9-4.1,25.7-7.6,38.2c-0.7,2.3-5.1,20.7-8.8,19.8c-3.3-0.8,3-14.1,3.6-16
		c6.5-21.6,9.4-44,10.1-66.5c0.1-4.9,0.8-10.7-0.2-15.6c-0.7-3.5,0.7-1.8-2-4.1c-2.3-2-5.5-3-7.8-5.2c-5.1-4.8-8-11.3-10.4-17.7
		c-4.6-12.4-7.2-24.8-6-37.8c0.7-7.2,1.5-14.4,3.2-21.5C381.1,166.2,382.5,156.5,384.8,158z"/>
	<path class="st5" d="M458.8,16.8c5,31.6,6.4,64.6,3.2,96.2c-1.9,19.2-5.5,38.2-9.1,57.1c-5.5,29.3-11.3,58.4-20.8,86.7
		c-9.6,28.4-19.4,61.7-39.4,84.8c15.4-25.4,22.4-56.2,32.4-83.9c4.8-13.2,8.8-26.6,12.5-40.2c3.6-13.2,6.3-26.6,9.1-40
		c1.4-6.5,2.7-13,4-19.5c0.4-1.9,2.4-7.4,1.7-9.1c-0.7-1.7-6.6-4.6-8.1-6.3c-3.1-3.4-5.7-7.4-7.8-11.4c-4-7.7-6.6-16.8-8.1-25.2
		c-3.5-19.7,0.3-40.5,7.7-58.7c1.4-3.5,22.4-39.5,20.3-41c0.2-0.1,0.4-0.2,0.6-0.3C457.7,9.5,458.3,13.1,458.8,16.8z"/>
	<path class="st6" d="M585.6,173.4c0.4-0.2,2.8-1.9,2-2.1c1.7,0.3-3.1,1.7,1.4,1.5c-2.5,1-2.3,3.6-3.2,5.9
		c-1.4,3.7-3.5,7.2-5.7,10.5c-3.4,5.3-7.3,10.2-11.8,14.6c-9.9,9.5-23.4,17.2-37,20.2c-6.7,1.5-12.4,0.7-19.1-0.1
		c-4.2-0.5-5.3,1.3-8.8,4.2c-7.2,5.9-14.3,11.8-21.1,18.1c-8.1,7.6-16.1,15.2-23.9,23c-26.3,26.5-50.5,55.1-69.9,87
		c7.8-20.2,20.8-39.1,34.4-55.9c9.9-12.3,20.9-23.5,32.3-34.5c2.8-2.7,6.6-5.9,8.7-9.3c1.4-2.3,1-5.3,1.5-8.1
		c1.7-11.2,6.4-22.7,12.5-32.1c6.8-10.5,15.6-13.1,27.6-10.2c4.4,1,9.6,3.3,14.1,3.1c4.9-0.2,9-5.8,13-8.8
		c10.5-8.2,22.1-15.4,34.3-21c3.4-1.5,6.9-2.8,10.4-3.9C579.5,174.8,583.8,174.6,585.6,173.4z"/>
</g>
<defs>
	<filter id="Adobe_OpacityMaskFilter" filterUnits="userSpaceOnUse" x="143.7" y="257.7" width="307.9" height="148.7">
		<feColorMatrix  type="matrix" values="1 0 0 0 0  0 1 0 0 0  0 0 1 0 0  0 0 0 1 0"/>
	</filter>
</defs>
<mask maskUnits="userSpaceOnUse" x="143.7" y="257.7" width="307.9" height="148.7" id="mask0_1_">
	<path class="st7" d="M297.5,394.2c96.7,0,175.1-79,175.1-176.3c0-97.4-78.4-176.3-175.1-176.3s-175.1,79-175.1,176.3
		C122.4,315.2,200.8,394.2,297.5,394.2z"/>
</mask>
<g class="st8">
	<path class="st2" d="M236,398.6l2-72.4c-6-16.1-9.5-30.4-10.4-42.9c0.5-3.3,2.7-8.2,8.5,1.4c5.7,9.6,12.2,19.5,16.3,19.1
		c4-0.4,3.9-8.1,10-7.8c4,0.2,2.6,12.1-4.4,35.9l14.5,62.8L236,398.6z"/>
	<path class="st9" d="M287.8,406.4l3.6-54.5c-3.7-11.8-5.7-22.4-6-31.7c0.4-2.5,2.2-6.3,5.9,0.6c3.7,6.9,8,14.1,10.8,13.6
		c2.9-0.5,3-6.2,7.2-6.3c2.8-0.1,1.4,9-4.2,27.2l8.3,46.5L287.8,406.4z"/>
	<path class="st10" d="M194.6,368.1l9.6-47.3c-1.8-10.8-2.3-20.3-1.4-28.5c0.7-2.2,2.6-5.3,5.1,1.2c2.4,6.5,5.3,13.3,7.8,13.2
		c2.5-0.1,3.4-5.1,7.1-4.7c2.5,0.3,0.2,8.1-6.9,23.3l1.7,41.7L194.6,368.1z"/>
	<path class="st11" d="M171.1,384.2L161,306.2c-8.5-15.6-14.3-30-17.3-43.2c-0.1-3.7,1.3-9.5,8.5-0.8c7.2,8.8,15.1,17.7,19,16.1
		c3.9-1.5,2.5-9.7,8.4-11c4-0.9,4.5,12.3,1.7,39.6l24.6,63.4L171.1,384.2z"/>
	<path class="st2" d="M365.9,398.6l-2-72.4c6-16.1,9.5-30.4,10.4-42.9c-0.5-3.3-2.7-8.2-8.5,1.4c-5.7,9.6-12.2,19.5-16.3,19.1
		c-4.1-0.4-3.9-8.1-10-7.8c-4,0.2-2.6,12.1,4.4,35.9l-14.5,62.8L365.9,398.6z"/>
	<path class="st10" d="M400.6,368.1l-9.6-47.3c1.8-10.8,2.3-20.3,1.4-28.5c-0.7-2.2-2.6-5.3-5.1,1.2c-2.4,6.5-5.3,13.3-7.8,13.2
		c-2.6-0.1-3.4-5.1-7.1-4.7c-2.5,0.3-0.2,8.1,6.9,23.3l-1.7,41.7L400.6,368.1z"/>
	<path class="st11" d="M424.1,384.2l10.2-78.1c8.5-15.6,14.3-30,17.3-43.2c0.1-3.7-1.3-9.5-8.5-0.8c-7.2,8.8-15.1,17.7-19,16.1
		s-2.5-9.7-8.4-11c-4-0.9-4.5,12.3-1.7,39.6l-24.6,63.4L424.1,384.2z"/>
</g>
<path class="st12" d="M351.2,231.1c0-15.1-10.6-28.1-24.8-31.6l0.1-85.2l-18.4,0l-0.1,85.5c-13.9,4.1-23.9,16.6-23.9,31.3
	c0,18,15.1,32.8,33.5,32.8C336.1,264,351.2,249.2,351.2,231.1z M298.6,231.1c0-10.1,8.5-18.3,18.7-18.3c10.3,0,18.7,8.3,18.7,18.3
	c0,10.1-8.5,18.3-18.7,18.3C307.1,249.5,298.6,241.2,298.6,231.1z"/>
<path class="st13" d="M317.5,198.5c-15.5,0-28.8,10.3-32.4,24.2l-111.3,0l0,18l111.6,0c4.2,13.6,17,23.3,32.1,23.3
	c18.5,0,33.7-14.7,33.7-32.7C351.2,213.2,336,198.5,317.5,198.5z M317.5,249.8c-10.3,0-18.8-8.3-18.8-18.3c0-10,8.5-18.3,18.8-18.3
	c10.3,0,18.8,8.3,18.8,18.3C336.3,241.5,327.8,249.8,317.5,249.8z"/>
<path class="st12" d="M152,97.9c0,15.1,10.6,28.1,24.9,31.6l0.2,85.2l18.4,0l-0.2-85.5c13.9-4.2,23.9-16.6,23.8-31.4
	c0-18-15.2-32.8-33.6-32.8C167.1,65,152,79.8,152,97.9z M204.6,97.8c0,10.1-8.4,18.4-18.7,18.4c-10.3,0-18.8-8.2-18.8-18.3
	c0-10.1,8.4-18.4,18.7-18.4C196.1,79.4,204.6,87.7,204.6,97.8z"/>
<path class="st13" d="M185.7,130.4c15.5,0,28.8-10.4,32.4-24.2l111.3-0.2l0-18l-111.6,0.2c-4.3-13.6-17-23.3-32.2-23.3
	c-18.5,0-33.6,14.8-33.6,32.8C152,115.7,167.2,130.4,185.7,130.4z M185.6,79.1c10.3,0,18.8,8.2,18.8,18.3c0,10-8.4,18.3-18.8,18.3
	c-10.3,0-18.8-8.2-18.8-18.3C166.8,87.4,175.3,79.1,185.6,79.1z"/>
<path class="st14" d="M99,161.2l57.4,58.6L99,278.4l-57.4-58.6L99,161.2z"/>
<path class="st15" d="M364.6,41.5l34.8,35.4l-34.8,35.4l-34.8-35.4L364.6,41.5z"/>
<path class="st14" d="M306.1,17.1l23.8,24.4l-23.8,24.4l-23.8-24.4L306.1,17.1z"/>
<path class="st16" d="M132.8,103.7l23.8,24.4l-23.8,24.4L109,128.1L132.8,103.7z"/>
</svg>
