<?xml version="1.0" encoding="utf-8"?>
<!-- Generator: Adobe Illustrator 22.0.1, SVG Export Plug-In . SVG Version: 6.00 Build 0)  -->
<svg version="1.1" id="Layer_1" xmlns="http://www.w3.org/2000/svg" xmlns:xlink="http://www.w3.org/1999/xlink" x="0px" y="0px"
	 viewBox="0 0 586 566" style="enable-background:new 0 0 586 566;" xml:space="preserve">
<style type="text/css">
	.st0{fill:#F2F2F2;}
	.st1{fill-opacity:0.1;}
	.st2{fill:#AFB9C5;}
	.st3{fill:#C5CFD6;}
	.st4{opacity:0.3459;clip-path:url(#SVGID_2_);}
	.st5{fill:#DDE3E9;}
	.st6{clip-path:url(#SVGID_4_);}
	.st7{fill:#2F6267;}
	.st8{opacity:0.7;clip-path:url(#SVGID_6_);}
	.st9{clip-path:url(#SVGID_8_);}
	.st10{fill:none;stroke:#CBCBCB;stroke-width:6.9029;}
	.st11{fill:#DD8A5B;}
	.st12{fill:#C1DEE2;}
	.st13{fill:#89C5CC;}
	.st14{fill:#69A1AC;}
	.st15{fill:#FFFFFF;}
	.st16{fill:#915B3C;}
	.st17{fill:#00383D;}
	.st18{fill:#B28B67;}
	.st19{fill:#E4E4E4;}
	.st20{fill:#DB8A43;}
	.st21{fill:#E1A45A;}
</style>
<path class="st0" d="M485.9,162.4c26.2,0,47.4-21.2,47.4-47.4c0-26.2-21.2-47.4-47.4-47.4c-26.2,0-47.4,21.2-47.4,47.4
	C438.6,141.2,459.8,162.4,485.9,162.4z"/>
<path class="st1" d="M485.9,80.2c1.5,0,2.7-1.2,2.7-2.7c0-1.5-1.2-2.7-2.7-2.7s-2.7,1.2-2.7,2.7C483.3,79,484.5,80.2,485.9,80.2z"/>
<path class="st1" d="M448.4,117.7c1.5,0,2.7-1.2,2.7-2.7c0-1.5-1.2-2.7-2.7-2.7s-2.7,1.2-2.7,2.7
	C445.7,116.5,446.9,117.7,448.4,117.7z"/>
<path class="st1" d="M523.5,117.7c1.5,0,2.7-1.2,2.7-2.7c0-1.5-1.2-2.7-2.7-2.7c-1.5,0-2.7,1.2-2.7,2.7
	C520.8,116.5,522,117.7,523.5,117.7z"/>
<path class="st1" d="M485.9,155.3c1.5,0,2.7-1.2,2.7-2.7c0-1.5-1.2-2.7-2.7-2.7s-2.7,1.2-2.7,2.7
	C483.3,154.1,484.5,155.3,485.9,155.3z"/>
<path class="st2" d="M485.9,82.9l1.8,31.3h-3.6L485.9,82.9z"/>
<path class="st2" d="M501.7,130.9L485.3,117l2.5-2.5L501.7,130.9z"/>
<path class="st3" d="M485.9,118.6c2,0,3.6-1.6,3.6-3.6c0-2-1.6-3.6-3.6-3.6c-2,0-3.6,1.6-3.6,3.6C482.4,117,484,118.6,485.9,118.6z"
	/>
<g>
	<defs>
		<rect id="SVGID_1_" x="50.2" y="220.4" width="531.4" height="253"/>
	</defs>
	<clipPath id="SVGID_2_">
		<use xlink:href="#SVGID_1_"  style="overflow:visible;"/>
	</clipPath>
	<g class="st4">
		<path class="st0" d="M398.6,355.4C393.5,295,120.9,178.6,70.3,235.7c-50.6,57.2-2,164.4,104.1,191.9
			C280.5,455.1,403.7,415.7,398.6,355.4z"/>
		<path class="st5" d="M268.4,394.6c4.5-51.3,244-150.2,288.4-101.7c44.5,48.6,33.2,150.7-60,174
			C403.7,490.3,263.9,445.9,268.4,394.6z"/>
	</g>
</g>
<g>
	<defs>
		<rect id="SVGID_3_" x="9.6" y="29.3" width="88.5" height="187.7"/>
	</defs>
	<clipPath id="SVGID_4_">
		<use xlink:href="#SVGID_3_"  style="overflow:visible;"/>
	</clipPath>
	<g class="st6">
		<path class="st0" d="M53.9,216.6c21,0,38-9,38-20.1c0-11.1-17-20.1-38-20.1s-38,9-38,20.1C15.9,207.6,32.9,216.6,53.9,216.6z"/>
		<path class="st7" d="M98.1,210.4c0-24.7-19.8-44.7-44.2-44.7c-24.4,0-44.2,20-44.2,44.7"/>
		<rect x="51.6" y="29.3" class="st7" width="4.5" height="143"/>
	</g>
</g>
<g>
	<defs>
		<rect id="SVGID_5_" x="90.1" y="29.3" width="66.1" height="142.1"/>
	</defs>
	<clipPath id="SVGID_6_">
		<use xlink:href="#SVGID_5_"  style="overflow:visible;"/>
	</clipPath>
	<g class="st8">
		<path class="st0" d="M123.1,171.3c15.7,0,28.4-7.3,28.4-16.2c0-9-12.7-16.2-28.4-16.2s-28.4,7.3-28.4,16.2
			C94.7,164.1,107.4,171.3,123.1,171.3z"/>
		<path class="st7" d="M156.2,166.3c0-19.9-14.8-36.1-33.1-36.1c-18.3,0-33.1,16.1-33.1,36.1"/>
		<rect x="121.3" y="29.3" class="st7" width="4.5" height="121.5"/>
	</g>
</g>
<g>
	<defs>
		<rect id="SVGID_7_" x="438.2" y="131.1" width="135.6" height="368.2"/>
	</defs>
	<clipPath id="SVGID_8_">
		<use xlink:href="#SVGID_7_"  style="overflow:visible;"/>
	</clipPath>
	<g class="st9">
		<path class="st10" d="M491.8,163.5l10.5-14c2.9-3.8,8.6-3.8,11.4,0l31.5,42c1.9,2.5,2.9,5.5,2.9,8.6v293.9"/>
		<path class="st2" d="M524,493h47.4c1.5,0,2.7,1.2,2.7,2.7v0.9c0,1.5-1.2,2.7-2.7,2.7H524c-1.5,0-2.7-1.2-2.7-2.7v-0.9
			C521.3,494.2,522.5,493,524,493z"/>
		<path class="st11" d="M460.1,153.8c11.5-11.5,30.2-11.5,41.7,0l0,0c11.5,11.5,11.5,30.2,0,41.7l-17.7,17.7l-41.7-41.7L460.1,153.8
			z"/>
		<path class="st0" d="M459.8,195.9c11.5,11.5,22.7,19,25,16.7c2.3-2.3-5.2-13.4-16.7-25c-11.5-11.5-22.7-19-25-16.7
			C440.8,173.2,448.3,184.4,459.8,195.9z"/>
	</g>
</g>
<path class="st5" d="M43.8,286.8c2.6-0.3,5.3-0.2,7.7,0.8c5.1,2.1,6.5,8.1,6.4,13c-0.1,5.2-1.2,10.9,2.8,15.2
	c1.8,1.9,4.1,3.4,5.9,5.4c1.9,2.1,3.4,4.5,4.5,7.1c2,4.8,3.1,10.4,1.2,15.4c-1.6,4.4-5.8,8.4-4.9,13.4c0.9,5.2,6.2,9.2,9.5,13.1
	c3.7,4.4,7.1,10,7.7,15.8c0.5,5.5-1.9,11.1-5.6,15.3c-7.4,8.3-18.5,12.4-29.6,12.4c-4.7,0-10.1-0.2-14.2-2.8
	c-1.3-0.8-1.9-1.7-2.7-2.9c-0.7-1.1-1.6-1.8-2.6-2.6c-2.3-1.7-3.9-4-4.9-6.6c-4.1-10-0.8-22.5,4.9-31.4c1.3-2.1,2.4-4.1,1.8-6.7
	c-0.7-2.6-2.4-5-3.8-7.3c-1.5-2.2-3.1-4.4-4.3-6.8c-1.2-2.5-1.5-5.2-1.3-7.9c0.4-5.2,2.6-10,5.8-14.2c3.1-4,6.7-7.9,6.7-13.2
	c0-5.6-3.7-10.6-2.1-16.3c0.7-2.4,2-4.8,4.1-6.2C38.7,287.5,41.4,287.1,43.8,286.8z"/>
<path class="st3" d="M42.1,295.7c0-0.8,0.9-1.2,1.6-1c0.9,0.3,0.9,1.1,0.9,1.9c-0.1,2.4,0.3,4.7,0.8,6.9c1.2,4.8,3.4,9.2,5.1,13.7
	c1.7,4.6,2.5,9.3,1.5,14.1c-1,4.6-2.5,9-3.4,13.6c-0.9,4-1.8,8.3-0.5,12.3c1.3,3.9,4.1,7,6.1,10.5c4.2,7.2,6,15.3,6.3,23.5
	c0.1,3.8,0,7.7-0.9,11.5c-0.5,2.2-1.2,5.1-3.1,6.6c-0.9,0.7-2.3,0.9-3-0.1c-0.7-1-0.1-2.4,0.1-3.5c0.9-4.4,1.1-8.9,0.9-13.4
	c-0.2-4.3-0.7-8.7-2.1-12.8c-1.3-3.9-3.2-7.3-5.5-10.7c-2.3-3.4-4.7-6.9-5.7-10.9c-1-4.1-0.2-8.3,0.9-12.4c1.1-4.3,2.6-8.4,4.1-12.6
	c1.5-4.1,2-7.9,1.2-12.2C45.9,312.3,41.6,304.5,42.1,295.7z"/>
<path class="st5" d="M111.4,297c3.2,1,6.3,2.5,8.6,4.9c4.8,5.2,3.3,13,0.7,18.7c-2.9,6.1-7.2,12.3-4.7,19.4c1.1,3.2,3,6.2,4.1,9.4
	c1.1,3.5,1.6,7.1,1.6,10.8c-0.1,6.7-1.9,13.8-6.7,18.8c-4.3,4.3-11.2,6.9-12.8,13.3c-1.7,6.7,2.4,14.1,4.2,20.4
	c2,7.1,3.1,15.6,0.7,22.7c-2.3,6.8-8.1,12.2-14.6,15.2c-13.1,6-28.2,5.1-41.3-0.7c-5.6-2.5-11.7-5.5-15.2-10.7
	c-1.1-1.6-1.4-3-1.6-4.8c-0.2-1.7-0.9-3-1.7-4.4c-1.8-3.2-2.5-6.8-2.3-10.4c0.5-14,10.9-27,22.3-34.6c2.7-1.8,5.1-3.6,5.6-6.9
	c0.6-3.5-0.1-7.1-0.7-10.6c-0.5-3.4-1.4-6.8-1.4-10.2c-0.1-3.6,0.9-6.9,2.6-10.1c3.2-5.9,8.4-10.4,14.3-13.7
	c5.7-3.2,12-5.9,14.8-12.1c3-6.6,1.2-14.4,6.1-20.3c2-2.4,4.8-4.6,8.1-5.2C105,295.2,108.4,296.1,111.4,297z"/>
<path class="st3" d="M104.9,307.9c0.4-0.9,1.7-0.9,2.4-0.3c0.9,0.8,0.5,1.8,0,2.7c-1.3,2.8-2.1,5.7-2.7,8.7
	c-1.1,6.3-0.9,12.6-1.2,18.9c-0.4,6.3-1.9,12.3-5.6,17.5c-3.5,4.9-7.6,9.4-11.1,14.3c-3.1,4.3-6.4,8.9-7,14.3
	c-0.5,5.2,1.1,10.4,1.6,15.6c1.1,10.7-1,21.2-5,31.1c-1.9,4.6-4,9.1-7,13.1c-1.7,2.3-4.1,5.4-7,6.2c-1.4,0.4-3.2-0.1-3.5-1.7
	c-0.3-1.5,1.2-2.9,2-4c3.4-4.7,6-10,8.1-15.4c2-5.3,3.7-10.7,4.3-16.3c0.5-5.2,0.1-10.3-0.8-15.5c-0.9-5.3-1.9-10.6-0.9-15.9
	c1-5.4,4.2-10,7.5-14.2c3.5-4.5,7.4-8.7,11.4-12.8c3.8-4,6.5-8.3,7.8-13.8C100.6,329.6,99.7,318,104.9,307.9z"/>
<path class="st3" d="M13.5,336.7c5.3,0,9.9,2.8,13.1,6.8c3.7,4.6,4.5,10.3,6,15.8c0.8,2.8,2.1,5.5,4.3,7.4c2.1,1.7,4.7,2,7.2,2.9
	c4.9,1.7,8.9,5.7,10.5,10.5c1.9,6-0.1,12,0.2,18c0.3,5.5,5.8,9,10.2,11.6c4.3,2.6,8.2,5.1,9.5,10.2c1.4,5.4,1.8,11.4-0.1,16.8
	c-3.2,8.9-12.5,12.8-21.6,13.4c-8.2,0.6-18.5-0.3-24.6-6.3c-3.7-3.6-5-8.5-4.8-13.5c0.1-3.1,0.7-6.1,1.5-9.1
	c0.6-2.1,1.3-4.2,1.5-6.4c0.6-5.8-4.8-6.9-9.3-8.5c-5.8-2-9.8-5.8-12.7-11.2c-2.6-5-3.7-10.5-2.2-16c0.8-2.8,2.3-5.3,4.2-7.5
	c0.9-0.9,2.1-1.7,2.9-2.7c0.7-0.9,0.6-2.1,0.3-3.2c-1.2-5-4.8-9.2-6.1-14.2c-1.2-4.5-0.5-10.2,3.7-13.1
	C9.1,337.2,11.3,336.7,13.5,336.7z"/>
<path class="st2" d="M20.6,349.7c5.6,5.9,7.1,14,7.5,21.8c0.2,4.4,0,9,1.3,13.3c1.1,3.6,3.7,6.4,6.4,9.1
	c5.4,5.3,11.3,10.7,12.9,18.3c0.9,4.5,0.3,9.1,1.6,13.6c1.2,4,3.2,8,5.7,11.4c2,2.7,4.6,4.9,6.8,7.4c0.7,0.8,1.6,1.9,1.3,3
	c-0.3,1.3-2,1.7-3.1,1.5c-2.7-0.5-5-3.1-6.8-5c-2.6-2.8-4.8-5.7-6.6-9.1c-2-3.7-3.6-7.6-4.3-11.8c-0.7-4.3-0.4-8.8-2-12.9
	c-2.7-7-9.4-11.1-14.2-16.5c-6-6.8-5.1-15.2-4.5-23.5c0.3-4.6,0.7-9.7-1.6-13.9c-0.9-1.6-2.8-3.1-3.2-4.9
	C17.4,349.9,19.3,348.3,20.6,349.7z"/>
<path class="st11" d="M26.6,447.5c0,34,5.6,51.8,34.9,51.8s34.9-17.8,34.9-51.8H26.6z"/>
<path class="st2" d="M149,398.3h30.4c1,0,1.8,0.8,1.8,1.8v4.5c0,1-0.8,1.8-1.8,1.8H149c-1,0-1.8-0.8-1.8-1.8v-4.5
	C147.2,399.1,148,398.3,149,398.3z"/>
<path class="st5" d="M162.6,333.1h2.5l0,0h1.6c0.5,13.8,2.6,26.9,6.4,39.3h5.8c7.7,0,13.9,6.2,13.9,13.9c0,7.6-6.2,13.9-13.9,13.9
	h-29.5c-7.7,0-13.9-6.2-13.9-13.9c0-7.7,6.2-13.9,13.9-13.9h6.7C161.9,353.8,162.6,333.1,162.6,333.1z"/>
<path class="st3" d="M132.6,271.1c0,0,15.4-1.5,30.7-1.5s30.7,1.5,30.7,1.5l4.1,71c0,0-17.4,1.7-34.9,1.7s-34.9-1.7-34.9-1.7
	L132.6,271.1z"/>
<path class="st0" d="M200.9,406.4h18.8v92.9h-18.8V426h-74.2v73.3h-18.8V426v-19.7h18.8H200.9z"/>
<path class="st12" d="M481.8,247.5c7.9,18.8,21.3,31.8,28.4,51.3c4.2,11.6,6,24.1,6.1,37c0.1,7-0.1,14-0.1,21
	c0,6.8-0.2,13.6-0.8,20.4c-0.6,6.8-1.2,13.5-1.5,20.4c-0.2,5.3-0.3,11.6-2.1,16.4c-1.4,3.9-5.1,4.4-6.1-0.3
	c-0.5-2.6-0.5-5.5-0.4-8.2c0.1-3.4,0.3-6.9,0.4-10.3c0.4-13.8-0.1-27.6,0.2-41.5c0.3-13.5,2-27,0.1-40.4
	c-1.6-11.1-5.6-20.6-10.3-29.7c-4.5-8.8-9.3-17.3-12.3-27.3c-0.9-2.9-1.5-5.8-1.9-8.9C481.6,247.3,481.7,247.3,481.8,247.5z"/>
<path class="st13" d="M479.7,284.5c1.6,1.1,2.4,2.8,3.5,4.4c1.3,2,2.9,3.9,4.2,5.9c2.7,4.2,5.1,8.7,7.6,13.1
	c4.7,8.3,8.3,17.2,10.1,26.9c1.8,10,2.3,20.3,3.1,30.5c0.8,10.8,1.6,21.6,1.8,32.4c0,4.8,0.3,10-0.3,14.8c-0.4,3-1.7,5.5-4.8,5.5
	c-6.5-0.1-9.5-7.2-10.8-13.1c-1.9-8.6-2.2-17.8-1.9-26.7c0.4-10.7,2.2-21.2,3-31.8c0.8-11.2,0.4-22.3-3.5-32.9
	c-2-5.4-4.2-10.6-6.3-15.9c-0.9-2.3-1.6-4.6-2.7-6.7c-1.3-2.3-2.9-4.5-3.9-7C479.1,284.1,479.4,284.3,479.7,284.5z"/>
<path class="st12" d="M554.1,262.1c0.2-0.2,0.4-0.3,0.6-0.5c-0.6,2.4-1.6,4.4-2.4,6.6c-0.7,2-1.1,4.2-1.5,6.4
	c-1.1,5.1-2.4,10-3.5,15.2c-2.1,10.1-1.7,21-0.3,32.3c1.3,10.6,3.4,21.2,4.3,31.8c0.8,8.8,1.2,17.9,0.4,26.3
	c-0.5,5.7-2.2,12.5-6.9,11.9c-2.2-0.3-3.4-2.9-3.8-5.9c-0.7-4.8-0.9-9.9-1.2-14.7c-0.6-10.7-0.8-21.4-0.9-32
	c-0.1-10-0.5-20.2,0.2-29.9c0.6-9.4,2.7-17.9,5.5-25.7c1.5-4.1,3-8.3,4.7-12.3c0.8-1.9,1.8-3.5,2.6-5.4
	C552.6,264.6,553.1,263,554.1,262.1z"/>
<path class="st12" d="M481.7,315.5c0.9-1.4,2.7,3.3,3,3.9c-0.1-0.3-0.2-0.6-0.4-0.9c1.7,2.8,3.2,5.8,4.2,9c1,3.2,1.8,6.5,2.7,9.7
	c1.7,6.1,3.9,11.9,5.4,18c1.5,6,1.9,11.8,1.5,18c-0.4,6.4-0.6,12.9-0.2,19.3c0.2,3.1,1.2,5.9,1.9,8.8c0.7,2.9,1.2,5.9,2,8.8
	c0.2-0.4,0.2,0.9,0.2,1c0,0.7-0.1,1.3-0.3,2c-0.6,1.8-1.7,3.3-3.4,3.8c-3.1,0.9-6-1.9-7-4.9c-1.4-4.3-2.2-9-2.9-13.4
	c-0.6-4.1-0.8-8.2-0.6-12.4c0.4-8.2,1.9-16.3,2.3-24.5c0.4-8.9-1.3-17.3-2.8-26c-0.7-4.2-1.4-8.3-2.8-12.3c-0.6-1.6-1.3-3-2.1-4.5
	C482,318,481.1,316.5,481.7,315.5z"/>
<path class="st14" d="M506.7,301.5c-0.4,10.2-1,20.4-2.3,30.5c-1.4,10.3-3,20.6-4.3,31c-1.3,10.1-2.7,20.3-2.5,30.5
	c0.1,7.5-1.1,20.2,7.2,23.9c8.5,3.8,10.3-12.3,10.8-17.6c1.1-10.2,0.7-20.4,0.2-30.6c-0.5-10.5-1.4-20.9-2.5-31.4
	c-1.2-11.6-2.2-23.3-2.9-34.9c-0.4-5.8-0.5-11.5-0.4-17.3c0.1-5.4-0.1-10.9-2-16.1c-0.1,0.1-0.2,0.1-0.3,0.2"/>
<path class="st13" d="M550.3,333.9c-1.5,2.2-3.1,4.4-4.5,6.8c-2.6,4.2-4.9,8.9-5.6,14.9c-1.5,12.6-0.3,26.1,0,39.1
	c0.1,2.6-0.3,5.2,0.8,7.7c0.9,2.3,2.7,4,4.4,4c3.6,0,3.1-8.9,3.1-12.7c0-6.8-0.8-13.7-0.7-20.5c0.1-6.7,0.5-13.5,1.5-19.9
	c1-6.5,2.4-12.7,4.4-18.5c0.3-0.8,2.2-7,0.4-6"/>
<path class="st14" d="M534.4,267c-2.4,0-2.4,11.8-2.4,13.3c-0.3,5.5-0.2,11-0.4,16.4c-0.4,12-0.8,24-2.6,35.8
	c-1,6.4-2.1,12.7-3.3,19c-1.2,6.3-2.8,12.7-3.6,19.1c-0.8,6.2-0.3,12.5-0.2,18.6c0.1,6.2,0.3,12.5,1.1,18.7c0.2,1.5,0.4,3,0.7,4.6
	c0.2,1.3,0.1,2.8,0.4,4c0.6,1.9,3,2.6,4.7,2.3c4.5-0.8,7.3-6.4,8.8-10.5c1.9-5.2,3-10.9,4-16.4c1.2-6.2,1.8-12.6,2.1-18.9
	c0.6-12.9-0.2-25.8-1.1-38.7c-0.5-7.2-1.1-14.3-2-21.4c-0.9-7.1-2.1-14.1-2.8-21.2c-0.5-5.2-1.1-10.3-1.4-15.5
	C536.3,274.9,536.2,267,534.4,267"/>
<path class="st13" d="M531.5,352.9c-0.4-12.4-5.4-66.9-6.5-81.9c-0.3-3.8-3-19.4-3.4-23.7c-1,1.2-0.9,19.9-0.9,24.2
	c0,4.3-0.5,8.4-0.8,12.7c-0.3,4.3-6.7,60.1-7.5,64.3c-1.6,8.3-2.8,16.7-3.6,25.2c-0.8,8.2-2.1,16.9-1,25.2c0.3,1.9,0.7,3.8,1.3,5.5
	c0.7,1.9,1.2,3.6,1.8,5.6c0.9,3.2,2.6,6,5.1,7.3c5.2,2.7,8-3.4,9.5-8.7c2.3-8.5,3.7-17.1,4.4-26
	C530.6,372.7,531.8,362.8,531.5,352.9"/>
<path class="st15" d="M477.9,389.4h77.7c1,0,1.8,0.8,1.8,1.8v77.7c0,1-0.8,1.8-1.8,1.8h-77.7c-1,0-1.8-0.8-1.8-1.8v-77.7
	C476.1,390.2,476.9,389.4,477.9,389.4z"/>
<path class="st3" d="M469,398.3h5.4c1,0,1.8,0.8,1.8,1.8v97.4c0,1-0.8,1.8-1.8,1.8H469c-1,0-1.8-0.8-1.8-1.8v-97.4
	C467.2,399.1,468,398.3,469,398.3z"/>
<path class="st3" d="M513.6,398.3h5.4c1,0,1.8,0.8,1.8,1.8v97.4c0,1-0.8,1.8-1.8,1.8h-5.4c-1,0-1.8-0.8-1.8-1.8v-97.4
	C511.8,399.1,512.6,398.3,513.6,398.3z"/>
<path class="st3" d="M559.2,398.3h5.4c1,0,1.8,0.8,1.8,1.8v97.4c0,1-0.8,1.8-1.8,1.8h-5.4c-1,0-1.8-0.8-1.8-1.8v-97.4
	C557.4,399.1,558.2,398.3,559.2,398.3z"/>
<path class="st16" d="M336.6,153.2c-8.5,5.1-16.9,7.6-20.8,6.6c-9.8-2.5-10.8-38.6-3.1-52.8c7.6-14.2,46.8-20.4,48.8,7.7
	c0.7,9.8-3.4,18.5-9.5,25.6l10.9,50.6h-31.6L336.6,153.2z"/>
<path class="st17" d="M354.4,146.7c4-17.6,15.2-29.6,13.5-37.5c-1.7-7.9-9.2-9.8-9.2-9.8s-3.9-15.6-24.9-13.3
	c-21,2.3-33.9,11.1-28.3,30.3c5.1,0,11.3-1.8,19.8,1.3c4,1.5,5.8,9.3,5.8,9.3h3.8c0,0,5.6-9.3,11-6.8c5.4,2.5,2.5,12,2.5,12
	l1.9,14.5H354.4z"/>
<path class="st3" d="M451,355.4c11.6,0,21,9.4,21,21v121c0,11.6-9.4,21-21,21H299.7c-11.6,0-21-9.4-21-21v-121c0-11.6,9.4-21,21-21
	H451z M429.9,392.2c2.9,0,5.3,2.4,5.3,5.3v78.9c0,2.9-2.4,5.3-5.3,5.3H320.8c-2.9,0-5.3-2.4-5.3-5.3v-78.9c0-2.9,2.4-5.3,5.3-5.3
	H429.9z"/>
<path class="st18" d="M148.3,511.9c25.9-31.7,43.5-55.1,52.6-70.4c15.7-26.2,28.5-49.5,32.6-58.3c9.7-21.2-22.2-31.1-29.5-21.2
	c-10.9,15-34.3,62.1-70,141.4L148.3,511.9z"/>
<path class="st17" d="M201.4,502.7l48.3-121.5c10.3-22.1-39.5-36.7-47.1-26.4c-17.2,23.4-58.1,115.7-63.3,122.7L201.4,502.7z"/>
<path class="st16" d="M329.9,478.3c-9.4-13.7-43.6-59.8-62.2-78.9c-5.4-5.5-10.6-10.7-15.5-15.7c-14.7-14.6-43.9,9.9-29.3,23.2
	c36.5,33.1,89.7,77.7,94.2,81.7C323.4,494.2,335.8,486.9,329.9,478.3z"/>
<path class="st19" d="M323.8,472.7c0.9-1.2,2.7-1.5,3.9-0.5c2.2,1.8,5.2,4.6,6.4,6.5c1.8,3.1,4.2,9.6,4.2,9.6
	c-3.6,2.1-64.2,37.1-64.2,37.1s-7.3-6.8-2.3-10.6c5-3.8,8.3-6.4,8.3-6.4l22.2-30.5c0.4-0.6,1.3-0.7,1.9-0.3l4.6,3.5
	c0,0,6.3-0.6,9.5-2.4C320,477.6,322.3,474.8,323.8,472.7z"/>
<path class="st19" d="M155.8,505.7c1.4-0.6,3.1,0,3.6,1.5c1,2.6,2.2,6.6,2.2,8.8c0,3.6-1.2,10.4-1.2,10.4c-4.1,0-74.2,0-74.2,0
	s-2.9-9.6,3.3-10.3c6.2-0.8,10.3-1.4,10.3-1.4l34.5-15.4c0.7-0.3,1.5,0,1.8,0.7l2.2,5.4c0,0,5.8,2.7,9.4,2.7
	C150,508.1,153.4,506.7,155.8,505.7z"/>
<path class="st17" d="M267,387.3c0,0,60.2-9.8,80.6-13.4c38.8-6.8,50.1-27.7,43.5-73.3h-71.5c-14.2,4.1-118.7,50.7-118.7,50.7
	c-12.5,6.2-10.2,24.6-7.9,30.6c0.1,0.4,63.4,108.6,63.4,108.6l58.5-37.3l-47.9-61.5C266.9,391.7,265,387.9,267,387.3z"/>
<path class="st16" d="M219.9,314.1l41.9-30.8l9.3,22.9l-41.5,17.2c-11.7,13.8-18.3,19.6-19.7,17.3c-1.2-1.9-0.3-3.7,0.6-5.4
	c0.7-1.3,1.3-2.5,0.8-3.6c-1-2.6-8.9-2.3-16.4-1.7c-7.5,0.6-5.3-2.8-3.5-4.4C199,321,208.5,317.2,219.9,314.1z M439.9,368.4
	c-3.9-7.8-17-84-17-84l-27.5,0.1c0,0,25.5,82.2,27.5,87.2c2.6,6.5-1.8,16-4.9,22.5c-0.5,1-0.9,1.9-1.3,2.7c4.2,1.9,6.2-0.4,8.4-2.8
	c2.4-2.7,5-5.6,11-2.8c2.3,1.1,4.5,2.4,6.7,3.6c7.4,4.3,14.2,8.3,23.5,2.5c1.5-0.9,3.1-4.3-0.8-7
	C455.7,383.9,441.8,372.2,439.9,368.4z"/>
<path class="st20" d="M344.8,169.1l-11.4-2c-42.2,36.4-59.5,106.5-111.2,143.6l12.4,15.4C324.4,315,346.6,229.6,344.8,169.1z"/>
<path class="st5" d="M394.4,312c0,0-68.4,0-100.6,0c-4.6,0-3.7-6.6-3.1-10c7.7-38.7,37.6-80.3,37.6-135.4l29-4.6
	C381.4,200.7,389.7,248.2,394.4,312z"/>
<path class="st21" d="M390.5,199.6c5.3-0.4,10-2.6,13.1-8c10.6-19.1,6.8-29.7-4.6-33.1c-6.2-1.9-12.1-0.6-19.1,1
	c-5.7,1.3-12.3,2.7-20.4,2.7c-0.8,0-1.5,0.1-2.2,0.2l-9.6,0.5c0,0-39.1,132.5-21.6,176.8h79.5c4.5,10.9,9,20.3,13.1,27.6h21.6
	C442.8,292.2,414.3,234.4,390.5,199.6z"/>
<path class="st1" d="M405.7,339.6c-5.9-14.2-12-30.9-17.9-48.1c-2.2,18.9-5.8,37.9-11.9,48.1H405.7z"/>
</svg>
