<svg width="571" height="525" viewBox="0 0 571 525" fill="none" xmlns="http://www.w3.org/2000/svg">
<path d="M441 41.9562L457.098 20.5189C460.298 16.2573 466.692 16.2573 469.892 20.5189L515.794 81.645C517.875 84.4159 519 87.7875 519 91.2527V499" stroke="#CBCBCB" stroke-width="8"/>
<rect x="489" y="498" width="59" height="7" rx="3" fill="#AFB9C5"/>
<path d="M405.498 25.3345C418.386 12.4472 439.28 12.4472 452.168 25.3345V25.3345C465.055 38.2218 465.055 59.1163 452.168 72.0036L432.369 91.8026L385.699 45.1335L405.498 25.3345Z" fill="#A26638"/>
<path fill-rule="evenodd" clip-rule="evenodd" d="M405.228 72.5269C418.115 85.4142 430.62 93.8036 433.158 91.2652C435.697 88.7268 427.307 76.2218 414.42 63.3345C401.533 50.4472 389.028 42.0578 386.489 44.5962C383.951 47.1346 392.34 59.6396 405.228 72.5269Z" fill="#F2F2F2"/>
<path d="M557 505C557 507.626 550.559 510.227 538.046 512.654C525.533 515.08 507.191 517.285 484.07 519.142C460.948 520.999 433.498 522.473 403.288 523.478C373.078 524.483 340.699 525 308 525C275.301 525 242.922 524.483 212.712 523.478C182.502 522.473 155.052 520.999 131.93 519.142C108.809 517.285 90.4674 515.08 77.954 512.654C65.4406 510.227 59 507.626 59 505C59 499.696 85.2338 494.609 131.93 490.858C178.627 487.107 241.961 485 308 485C374.039 485 437.373 487.107 484.07 490.858C530.766 494.609 557 499.696 557 505V505Z" fill="#E0E0E0"/>
<path d="M431.144 499.996H163.82C145.615 499.996 130.832 488.688 130.832 474.763C130.832 467.8 134.528 461.466 140.482 456.911C146.436 452.357 154.717 449.53 163.82 449.53H431.144C431.144 449.53 418.483 471.36 431.144 499.996Z" fill="#F6E7D2"/>
<path d="M434.635 504.917H164.573C141.988 504.917 123.51 490.782 124.468 473.454C124.878 465.916 128.916 458.848 135.966 453.509C143.357 447.803 153.281 444.714 163.82 444.714H434.635C438.126 444.714 441 446.913 441 449.582C441 452.252 438.126 454.451 434.635 454.451H163.82C156.703 454.451 149.996 456.545 145 460.419C140.14 464.136 137.403 469.004 137.198 474.24C136.787 485.809 149.311 495.18 164.436 495.18H434.635C438.126 495.18 441 497.378 441 500.048C441 502.718 438.126 504.917 434.635 504.917Z" fill="#2F6267"/>
<path d="M351.555 379.59H147.022C133.097 379.59 121.789 368.282 121.789 354.357C121.789 347.394 124.616 341.06 129.17 336.505C133.725 331.951 140.059 329.124 147.022 329.124H351.503C351.555 329.124 341.87 350.902 351.555 379.59Z" fill="#F6E7D2"/>
<path d="M354.173 384.458H147.65C130.375 384.458 116.24 370.324 116.973 352.996C117.287 345.457 120.376 338.39 125.768 333.05C131.422 327.344 139.013 324.255 147.075 324.255H354.225C356.895 324.255 359.094 326.454 359.094 329.124C359.094 331.794 356.895 333.993 354.225 333.993H147.022C141.578 333.993 136.447 336.087 132.626 339.96C128.909 343.677 126.815 348.546 126.658 353.781C126.344 365.35 135.924 374.721 147.493 374.721H354.173C356.843 374.721 359.041 376.92 359.041 379.59C359.041 382.26 356.895 384.458 354.173 384.458Z" fill="#2D64A4"/>
<path d="M385.217 391.944V437.175C385.217 441.311 381.866 444.661 377.731 444.661H151.42C147.284 444.661 143.934 441.311 143.934 437.175V391.944C143.934 387.809 147.284 384.458 151.42 384.458H377.731C381.866 384.458 385.217 387.809 385.217 391.944Z" fill="#E0E0E0"/>
<path d="M178.171 384.458H190.997V444.661H178.171V384.458Z" fill="#703B0E"/>
<path d="M401.55 271.486V316.717C401.55 320.853 398.2 324.203 394.064 324.203H167.805C163.67 324.203 160.319 320.853 160.319 316.717V271.486C160.319 267.35 163.67 264 167.805 264H394.116C398.2 264 401.55 267.35 401.55 271.486Z" fill="#717171"/>
<path d="M199.216 264H212.042V324.203H199.216V264Z" fill="#E0E0E0"/>
<path d="M349.828 264H362.654V324.203H349.828V264Z" fill="#E0E0E0"/>
<path d="M442.609 148.869H238.076C224.151 148.869 212.843 160.176 212.843 174.102C212.843 181.064 215.67 187.399 220.225 191.953C224.779 196.508 231.114 199.334 238.076 199.334H442.557C442.609 199.334 432.924 177.557 442.609 148.869Z" fill="#F6E7D2"/>
<path d="M445.227 144H238.705C221.429 144 207.294 158.135 208.027 175.463C208.341 183.001 211.43 190.069 216.822 195.408C222.476 201.114 230.067 204.203 238.129 204.203H445.279C447.949 204.203 450.148 202.004 450.148 199.335C450.148 196.665 447.949 194.466 445.279 194.466H238.076C232.632 194.466 227.502 192.372 223.68 188.498C219.963 184.781 217.869 179.913 217.712 174.677C217.398 163.108 226.978 153.737 238.548 153.737H445.227C447.897 153.737 450.096 151.539 450.096 148.869C450.096 146.199 447.949 144 445.227 144Z" fill="#2D64A4"/>
<path d="M492.604 256.972V211.742C492.604 207.606 489.254 204.256 485.118 204.256H258.86C254.724 204.256 251.374 207.606 251.374 211.742V256.972C251.374 261.108 254.724 264.458 258.86 264.458H485.171C489.254 264.458 492.604 261.108 492.604 256.972Z" fill="#E0E0E0"/>
<path d="M290.27 264.458H303.096V204.256H290.27V264.458Z" fill="#E9B58F"/>
<path d="M440.882 264.458H453.708V204.256H440.882V264.458Z" fill="#E9B58F"/>
<path fill-rule="evenodd" clip-rule="evenodd" d="M193.065 97.2443C186.589 101.147 180.226 103.033 177.24 102.263C169.75 100.333 169.062 72.9351 174.857 62.1339C180.651 51.3328 210.442 46.625 211.943 68.0255C212.464 75.4529 209.346 82.0814 204.738 87.4901L213 126H189L193.065 97.2443Z" fill="#B28B67"/>
<path fill-rule="evenodd" clip-rule="evenodd" d="M206.582 92.3075C209.594 78.9065 218.175 69.7714 216.865 63.7817C215.554 57.792 209.879 56.3321 209.879 56.3321C209.879 56.3321 206.943 44.4572 190.944 46.2304C174.945 48.0036 165.181 54.6478 169.398 69.2679C173.274 69.2679 177.954 67.866 184.424 70.2679C187.504 71.411 188.83 77.358 188.83 77.358H191.754C191.754 77.358 196.011 70.3006 200.149 72.1712C204.287 74.0418 202.03 81.2586 202.03 81.2586L203.471 92.3075H206.582Z" fill="#191847"/>
<path fill-rule="evenodd" clip-rule="evenodd" d="M49.841 370C69.5569 345.924 82.8971 328.075 89.8617 316.454C101.787 296.555 111.547 278.848 114.627 272.084C121.972 255.955 97.7181 248.403 92.229 255.926C83.9209 267.312 66.178 303.143 39 363.417L49.841 370Z" fill="#B28B67"/>
<path fill-rule="evenodd" clip-rule="evenodd" d="M90.2424 363L126.935 270.637C134.783 253.8 96.8842 242.732 91.1167 250.568C78.0227 268.357 46.9012 338.534 43 343.834L90.2424 363Z" fill="#2F6267"/>
<path fill-rule="evenodd" clip-rule="evenodd" d="M187.967 344.477C180.82 334.051 154.822 298.974 140.661 284.461C136.592 280.291 132.622 276.288 128.866 272.557C117.704 261.47 95.4765 280.106 106.618 290.205C134.365 315.355 174.849 349.307 178.232 352.334C182.972 356.577 192.459 351.029 187.967 344.477Z" fill="#B28B67"/>
<path fill-rule="evenodd" clip-rule="evenodd" d="M183.336 340.185C184.028 339.241 185.37 339.017 186.266 339.771C187.9 341.146 190.252 343.264 191.1 344.734C192.453 347.076 194.267 352.021 194.267 352.021C191.549 353.59 145.421 380.222 145.421 380.222C145.421 380.222 139.883 375.027 143.696 372.157C147.508 369.286 149.988 367.315 149.988 367.315L166.847 344.087C167.178 343.631 167.82 343.538 168.267 343.882L171.77 346.579C171.77 346.579 176.59 346.159 178.965 344.788C180.41 343.953 182.176 341.768 183.336 340.185Z" fill="#E4E4E4"/>
<path fill-rule="evenodd" clip-rule="evenodd" d="M55.5504 365.284C56.6221 364.813 57.8957 365.29 58.2949 366.391C59.023 368.398 60 371.409 60 373.106C60 375.811 59.0988 381 59.0988 381C55.9608 381 2.69695 381 2.69695 381C2.69695 381 0.498419 373.732 5.23518 373.152C9.97193 372.573 13.105 372.106 13.105 372.106L39.32 360.419C39.8346 360.189 40.437 360.43 40.6517 360.951L42.3368 365.039C42.3368 365.039 46.7218 367.085 49.4633 367.085C51.1323 367.085 53.7543 366.074 55.5504 365.284Z" fill="#E4E4E4"/>
<path fill-rule="evenodd" clip-rule="evenodd" d="M140.138 275.25C140.138 275.25 185.883 267.798 201.42 265.058C230.943 259.852 239.552 243.965 234.462 209.302L180.066 209.302C169.268 212.42 89.8325 247.872 89.8325 247.872C80.3045 252.602 82.0789 266.548 83.8205 271.142C83.927 271.423 132.008 353.713 132.008 353.713L176.506 325.366L140.054 278.59C140.054 278.59 138.61 275.682 140.138 275.25Z" fill="#1C9FA8"/>
<path fill-rule="evenodd" clip-rule="evenodd" d="M104.321 219.635L136.219 196.211L143.27 213.642L111.683 226.741C102.749 237.235 97.7538 241.61 96.6964 239.865C95.8048 238.394 96.5017 237.017 97.1437 235.748C97.6437 234.76 98.1104 233.838 97.7668 232.989C96.9822 231.049 90.9812 231.254 85.2948 231.691C79.6083 232.128 81.2655 229.598 82.6366 228.348C88.4412 224.874 95.6692 221.97 104.321 219.635ZM271.602 260.908C268.672 254.963 258.692 197.02 258.692 197.02L237.795 197.102C237.795 197.102 257.15 259.583 258.692 263.406C260.696 268.372 257.292 275.587 254.984 280.48C254.627 281.237 254.296 281.938 254.016 282.567C257.218 284 258.757 282.268 260.379 280.442C262.211 278.379 264.149 276.196 268.712 278.319C270.475 279.14 272.143 280.109 273.773 281.057C279.403 284.329 284.575 287.336 291.611 282.994C292.727 282.306 293.949 279.715 290.996 277.69C283.638 272.644 273.035 263.815 271.602 260.908Z" fill="#B28B67"/>
<path fill-rule="evenodd" clip-rule="evenodd" d="M199.305 109.332L190.658 107.849C158.574 135.564 145.397 188.809 106.07 217.015L115.536 228.748C183.76 220.3 200.67 155.355 199.305 109.332Z" fill="#A26638"/>
<path fill-rule="evenodd" clip-rule="evenodd" d="M237 218C237 218 184.992 218 160.489 218C156.992 218 157.651 212.952 158.157 210.404C163.989 181.004 186.759 149.312 186.759 107.461L208.828 104C227.083 133.358 233.395 169.505 237 218Z" fill="#E9B58F"/>
<path fill-rule="evenodd" clip-rule="evenodd" d="M245.603 239C249.042 247.259 252.414 254.465 255.591 260H272C273.765 202.919 252.155 158.997 234.069 132.513C238.084 132.226 241.709 130.546 244 126.411C252.067 111.856 249.153 103.842 240.533 101.208C235.793 99.7599 231.334 100.749 225.998 101.932C221.631 102.9 216.675 103.999 210.496 104C210.494 104 210.492 104 210.49 104C209.891 104 209.346 104.04 208.852 104.117L201.528 104.535C201.528 104.535 171.795 205.305 185.128 239H245.603Z" fill="#E9B58F"/>
<path fill-rule="evenodd" clip-rule="evenodd" d="M245.603 239C241.091 228.164 236.465 215.516 232.013 202.454C230.355 216.839 227.595 231.286 223 239H245.603Z" fill="black" fill-opacity="0.1"/>
<path fill-rule="evenodd" clip-rule="evenodd" d="M427.024 210.136C421.35 213.567 415.775 215.224 413.158 214.548C406.596 212.851 405.992 188.77 411.07 179.276C416.147 169.782 442.249 165.644 443.565 184.454C444.021 190.983 441.289 196.809 437.251 201.563L444.491 235.411H423.462L427.024 210.136Z" fill="#B28B67"/>
<path fill-rule="evenodd" clip-rule="evenodd" d="M415.808 173.016C416.29 172.727 417.298 172.119 417.808 171.898C417.929 171.845 418.775 171.24 418.798 171.248C419.438 171.464 421.293 172.265 421.452 172.956C421.477 173.009 421.501 173.058 421.524 173.101C421.787 173.58 422.028 174.071 422.258 174.568C422.763 175.659 423.199 176.8 423.615 177.931C424.426 180.135 425.13 182.39 425.777 184.65C426.436 186.951 426.996 189.279 427.622 191.589C428.523 194.914 429.676 198.157 430.571 201.48C431.143 203.602 431.461 205.748 431.311 207.932C431.309 207.959 431.308 207.984 431.306 208.011C431.305 208.022 431.304 208.033 431.303 208.044C431.277 208.379 431.241 208.716 431.192 209.054C431.15 209.342 431.107 209.632 431.062 209.921C430.244 208.286 429.62 206.484 428.958 204.774C428.893 204.607 428.831 204.438 428.771 204.269C428.558 203.922 428.34 203.578 428.12 203.235C426.731 201.072 425.337 198.917 424.006 196.714C421.611 192.754 419.238 188.709 416.399 185.072C415.561 183.998 414.703 182.94 413.875 181.857C413.404 181.241 412.945 180.614 412.501 179.977C412.183 179.521 410.804 177.931 411.303 176.977C411.559 176.488 414.559 173.764 415.808 173.016Z" fill="#2C2C2C"/>
<path fill-rule="evenodd" clip-rule="evenodd" d="M417.657 171.978C417.188 172.136 417.416 171.158 417.87 170.814C419.972 169.22 428.007 168.642 435 170.098C439.685 171.073 445.133 173.501 448.875 176.623C452.248 179.437 454.567 183.948 455.762 188.306C457.016 192.882 457.206 197.653 456.507 202.346C456.354 203.377 456.024 204.359 455.84 205.368C455.633 206.504 455.527 207.598 455.158 208.704C454.932 209.38 454.548 210.044 454.355 210.725C454.135 211.501 454.27 212.22 454.43 213.01C454.691 214.297 455.016 215.582 455.476 216.812C456.168 218.658 457.008 220.387 457.534 222.304C458.235 224.853 461.165 233.15 459.023 235.411H418.264C419.291 232.603 422.371 229.297 422.995 226.291C423.362 224.52 423.537 220.652 423.576 220.512C424.494 214.16 426.288 211.127 427.411 210.026C428.534 208.925 430.03 208.587 430.107 207.632C430.426 203.683 428.861 199.899 427.713 196.213C426.345 191.821 425.342 187.319 423.932 182.941C423.307 181.003 420.089 171.158 417.657 171.978Z" fill="#E9B58F"/>
<path fill-rule="evenodd" clip-rule="evenodd" d="M433.484 190.709C433.815 184.025 433.484 181.413 431.947 176.521H432.895C434.393 178.463 435.647 184.401 434.238 190.709H433.484ZM452.058 190.394C452.223 189.989 452.392 189.573 452.567 189.147L453.17 189.437C451.269 196.412 448.957 201.797 441.017 206.311L440.399 205.877C447.908 200.581 449.519 196.628 452.058 190.394ZM440.569 183.821L440.569 183.822C439.428 192.658 438.704 198.262 432.341 208.425L433.062 208.646C440.037 199.221 441.143 191.529 441.472 182.106L440.799 182.052C440.719 182.657 440.643 183.246 440.569 183.821ZM447.668 210.695L448.285 211.448C445.195 212.096 443.094 214.376 440.686 216.99C438.137 219.755 435.245 222.894 430.472 224.87L429.586 224.331C434.795 221.614 437.219 218.914 439.335 216.556C441.525 214.115 443.387 212.041 447.668 210.695Z" fill="black" fill-opacity="0.2"/>
<path fill-rule="evenodd" clip-rule="evenodd" d="M458.481 309.634L425.558 417.817L409.61 509.819H397.105L413.957 309.634H458.481Z" fill="#997659"/>
<path fill-rule="evenodd" clip-rule="evenodd" d="M470.26 309.634C468.023 369.032 470.655 399.671 471.156 405.068C471.656 410.464 478.509 445.456 494.734 511.631L481.409 507.031C455.768 446.339 447.03 414.796 444.089 406.826C441.148 398.857 433.338 366.459 420.657 309.634H470.26Z" fill="#B28B67"/>
<path fill-rule="evenodd" clip-rule="evenodd" d="M491.953 506.094C493.031 505.627 494.309 506.105 494.702 507.211C495.326 508.968 496.102 511.438 496.102 512.86C496.102 515.238 495.314 519.802 495.314 519.802C492.568 519.802 445.968 519.802 445.968 519.802C445.968 519.802 444.045 513.41 448.189 512.901C452.333 512.391 455.074 511.98 455.074 511.98L477.889 501.757C478.405 501.526 479.009 501.768 479.223 502.291L480.649 505.766C480.649 505.766 484.485 507.565 486.884 507.565C488.266 507.565 490.397 506.769 491.953 506.094Z" fill="#393939"/>
<path fill-rule="evenodd" clip-rule="evenodd" d="M409.714 506.094C410.791 505.627 412.069 506.105 412.462 507.211C413.086 508.968 413.862 511.438 413.862 512.86C413.862 515.238 413.074 519.802 413.074 519.802C410.328 519.802 363.728 519.802 363.728 519.802C363.728 519.802 361.805 513.41 365.949 512.901C370.093 512.391 372.834 511.98 372.834 511.98L395.649 501.757C396.165 501.526 396.769 501.768 396.983 502.291L398.409 505.766C398.409 505.766 402.245 507.565 404.644 507.565C406.027 507.565 408.157 506.769 409.714 506.094Z" fill="#393939"/>
<path fill-rule="evenodd" clip-rule="evenodd" d="M462.856 309.634L448.858 364.752H406.101L412.477 309.634H462.856Z" fill="#A26638"/>
<path fill-rule="evenodd" clip-rule="evenodd" d="M470.73 309.634C477.639 330.449 473.355 364.752 473.355 364.752H429.724L417.726 309.634H470.73Z" fill="#E9B58F"/>
<path fill-rule="evenodd" clip-rule="evenodd" d="M518.338 337.357C515.072 332.55 493.055 267.862 493.055 267.862L474.065 270.612C474.065 270.612 505.637 337.973 507.441 341.106C509.784 345.176 507.709 351.861 506.302 356.395C506.084 357.096 505.882 357.746 505.715 358.326C508.669 359.18 509.793 357.486 510.978 355.701C512.316 353.685 513.732 351.552 517.95 352.838C519.58 353.335 521.145 353.973 522.675 354.597C527.958 356.752 532.812 358.731 538.388 354.099C539.272 353.364 540.017 350.963 537.208 349.565C530.21 346.082 519.935 339.707 518.338 337.357ZM354.692 334.014L375.907 306.538L386.053 319.532L362.608 338.225C357.615 349.238 354.463 354.136 353.152 352.921C352.046 351.896 352.301 350.566 352.535 349.341C352.718 348.386 352.889 347.496 352.394 346.863C351.265 345.417 346.26 347.042 341.576 348.787C336.892 350.532 337.677 347.997 338.531 346.611C342.581 342.276 347.969 338.077 354.692 334.014Z" fill="#B28B67"/>
<path fill-rule="evenodd" clip-rule="evenodd" d="M427.598 222.054L419.915 221.823C413.957 265.326 357.226 302.405 355.689 318.57C355.126 324.498 359.654 326.816 357.769 328.864L368.523 334.637C369.904 332.475 373.923 335.508 380.936 332.001C387.95 328.495 434.539 271.592 427.598 222.054Z" fill="#22A4B0"/>
<path fill-rule="evenodd" clip-rule="evenodd" d="M439.235 211.541C441.395 211.081 443.518 212.459 443.977 214.62L444.943 219.18C460.588 228.07 500.139 255.65 517.738 314.891C519.587 321.114 518.331 324.764 517.328 327.68C516.642 329.675 516.074 331.327 516.699 333.224L504.43 338.551C504.228 337.114 502.467 336.247 500.194 335.129C496.889 333.503 492.503 331.345 490.262 326.128C488.139 321.183 485.183 315.049 481.727 308.249C482.821 317.746 482.248 326.703 479.354 334.462C472.132 353.822 413.073 342.034 404.621 324.514C400.111 315.166 403.413 306.318 407.779 294.616C413.322 279.761 420.581 260.308 415.757 229.394L413.98 221.013C413.521 218.852 414.902 216.726 417.062 216.266L439.235 211.541Z" fill="#75C6CE"/>
</svg>
